<?xml version="1.0" encoding="UTF-8"?>
<svg version="1.1" xmlns="http://www.w3.org/2000/svg" width="992" height="300">
<path d="M0 0 C327.36 0 654.72 0 992 0 C992 99 992 198 992 300 C664.64 300 337.28 300 0 300 C0 201 0 102 0 0 Z " fill="#FEFDFD" transform="translate(0,0)"/>
<path d="M0 0 C1.12093552 0.00015106 2.24187103 0.00030212 3.39677429 0.00045776 C4.60622208 0.01078033 5.81566986 0.02110291 7.06176758 0.03173828 C8.91986809 0.03598312 8.91986809 0.03598312 10.81550598 0.04031372 C14.10517969 0.04961892 17.39465746 0.06758287 20.68426514 0.08972168 C24.04249677 0.11019808 27.4007571 0.11931926 30.7590332 0.12939453 C37.34569856 0.15146807 43.93223266 0.18495556 50.51879883 0.22705078 C52.45958763 10.11408808 53.75404917 19.79646952 54.11645508 29.87548828 C54.17742371 31.37921997 54.17742371 31.37921997 54.23962402 32.91333008 C54.33774476 35.3510853 54.43072975 37.78891534 54.51879883 40.22705078 C55.61101305 40.2242854 56.70322727 40.22152002 57.82853889 40.21867085 C84.39340094 40.15209896 110.95825219 40.10278622 137.52318001 40.07161427 C150.36973153 40.05613943 163.21622797 40.03503805 176.06274414 40.00073242 C187.25857927 39.97084904 198.45437451 39.95148027 209.65024841 39.9447853 C215.57944479 39.94087126 221.50852707 39.93165976 227.43768692 39.90986061 C233.01738225 39.88951233 238.59691637 39.88321368 244.17664528 39.88772774 C246.22530684 39.8869018 248.27397373 39.88092636 250.32260323 39.86943436 C253.11892326 39.85451634 255.91463398 39.85809477 258.71096802 39.86628723 C259.52226296 39.85754871 260.33355789 39.84881018 261.16943753 39.83980685 C266.00581448 39.87812496 269.3254049 40.5520168 273.51879883 43.22705078 C275.95488721 48.09922755 274.31133003 53.92911856 273.05004883 58.96923828 C272.89421829 59.60211761 272.73838776 60.23499695 272.57783508 60.88705444 C272.06556184 62.96063793 271.5421404 65.03123592 271.01879883 67.10205078 C270.65555282 68.56505368 270.29318203 70.02827414 269.93164062 71.49169922 C269.1781222 74.53878007 268.42083249 77.58488665 267.66088867 80.63037109 C266.0234274 87.20488669 264.43138839 93.79037258 262.83935547 100.37600708 C262.33024687 102.48140109 261.8201695 104.58655821 261.30981445 106.69165039 C259.5351358 114.01332357 257.7666433 121.33641855 256.01879883 128.66455078 C255.83236816 129.44024414 255.6459375 130.2159375 255.45385742 131.01513672 C254.29598101 135.86031531 253.18162034 140.71379169 252.09542847 145.57545471 C251.39892959 148.68360403 250.69169782 151.78927143 249.98364258 154.89480591 C249.63507454 156.43639242 249.29139736 157.97909384 248.95288086 159.5229187 C248.47550123 161.69812451 247.98127964 163.86890307 247.48364258 166.03955078 C247.20125732 167.30412109 246.91887207 168.56869141 246.62792969 169.87158203 C245.44576673 173.44799579 244.14055169 175.54360597 241.51879883 178.22705078 C238.34155154 179.28613321 236.01917758 179.38358577 232.67871094 179.43237305 C231.44650818 179.45229309 230.21430542 179.47221313 228.94476318 179.49273682 C227.56189241 179.50986805 226.17901873 179.52676551 224.79614258 179.54345703 C223.3178067 179.56444162 221.83947425 179.58566901 220.36114502 179.6071167 C215.39295668 179.67658467 210.42465561 179.73365319 205.45629883 179.78955078 C204.17523443 179.80439829 204.17523443 179.80439829 202.86828995 179.81954575 C187.75208806 179.99425392 172.63562298 180.12044122 157.51879883 180.22705078 C156.27262787 180.23588287 155.02645691 180.24471497 153.74252319 180.2538147 C137.23205659 180.36884817 120.72169287 180.45768954 104.21087742 180.50186825 C102.81946878 180.50561534 101.42806017 180.50937694 100.03665161 180.51315308 C99.34924556 180.51501313 98.66183951 180.51687317 97.95360297 180.51878959 C93.08561566 180.53296646 88.21774412 180.55747052 83.349823 180.58621216 C76.72559849 180.62509997 70.10154923 180.64265201 63.47719574 180.64606476 C61.00774684 180.65054753 58.5383001 180.66189688 56.06891632 180.68038177 C52.674576 180.70453052 49.2811173 180.70394163 45.88671875 180.69702148 C44.88739791 180.70983438 43.88807707 180.72264727 42.85847378 180.73584843 C41.94367276 180.72890178 41.02887175 180.72195513 40.08634949 180.71479797 C38.90018178 180.7183805 38.90018178 180.7183805 37.69005108 180.72203541 C34.59533424 180.01652675 33.41858074 178.73391129 31.51879883 176.22705078 C31.01657677 173.7308836 31.01657677 173.7308836 31.01327515 170.873703 C31.00225266 169.78762756 30.99123016 168.70155212 30.97987366 167.58256531 C30.98804611 166.39556534 30.99621857 165.20856537 31.00463867 163.9855957 C30.99751358 162.73138824 30.99038849 161.47718079 30.98304749 160.18496704 C30.97035963 157.45689003 30.96490901 154.72993246 30.9718132 152.00194359 C30.98262247 147.67491939 30.96518533 143.34828545 30.94400024 139.02131653 C30.91372094 132.16152041 30.90204557 125.30183995 30.89842379 118.44198257 C30.89179579 106.20093261 30.86240354 93.95996606 30.81332743 81.71901399 C30.79698167 77.43248587 30.79163679 73.14612444 30.79467785 68.85956866 C30.90578126 50.87807752 30.90578126 50.87807752 28.94668579 33.04023743 C28.49386488 30.06312001 28.44843194 27.23375849 28.51879883 24.22705078 C27.51502197 24.24799805 26.51124512 24.26894531 25.47705078 24.29052734 C21.74054317 24.36311772 18.00409746 24.40891889 14.26708984 24.44677734 C12.65207424 24.4668497 11.03713094 24.49411408 9.42236328 24.52880859 C7.09625382 24.57752293 4.7711079 24.60006232 2.44458008 24.61767578 C1.72667801 24.63832092 1.00877594 24.65896606 0.26911926 24.68023682 C-3.37933418 24.68185704 -5.31446155 24.33665487 -8.39453125 22.31201172 C-11.78326815 18.9260502 -12.38797992 17.19033701 -12.85620117 12.35205078 C-12.75181596 8.04816825 -11.24829235 5.54756019 -8.48120117 2.22705078 C-5.09450578 -0.03074615 -3.96429266 -0.01781705 0 0 Z " fill="#FE9A30" transform="translate(634.481201171875,23.77294921875)"/>
<path d="M0 0 C0.74544571 -0.00511093 1.49089142 -0.01022186 2.25892639 -0.01548767 C4.71607567 -0.02935238 7.17294326 -0.0284285 9.63012695 -0.02612305 C11.3478048 -0.03001326 13.06548169 -0.0343486 14.78315735 -0.03910828 C18.38346472 -0.04656494 21.98367404 -0.04628437 25.58398438 -0.04101562 C30.17576173 -0.03523853 34.76713342 -0.05211187 39.3588438 -0.0753603 C42.90812998 -0.09016849 46.45732025 -0.09095946 50.00663185 -0.08785057 C51.69814669 -0.08836078 53.38966733 -0.09354165 55.08115196 -0.10366249 C70.29158409 -0.18346869 82.03660864 1.80700724 93.7277832 12.3449707 C102.18293556 21.21334479 105.82054966 31.34409453 105.70825195 43.43481445 C104.8653518 55.10482647 100.17466958 64.98995923 91.7434082 73.0246582 C84.78626936 78.79988929 76.19161865 82.16363699 67.2434082 82.8371582 C66.15672852 82.92094727 65.07004883 83.00473633 63.95043945 83.09106445 C63.11899414 83.15165039 62.28754883 83.21223633 61.4309082 83.2746582 C61.4309082 84.2646582 61.4309082 85.2546582 61.4309082 86.2746582 C62.33856934 86.28924072 63.24623047 86.30382324 64.18139648 86.31884766 C67.57000131 86.38013969 70.95782509 86.45433397 74.34594727 86.53710938 C75.80840528 86.57022956 77.27098715 86.59830125 78.73364258 86.62109375 C80.84420223 86.65487996 82.95364006 86.707202 85.0637207 86.76293945 C86.33103027 86.78912354 87.59833984 86.81530762 88.90405273 86.84228516 C95.26259473 87.62180737 99.31503854 90.47281027 103.4309082 95.2746582 C106.26806551 101.05847712 106.17699439 106.97099127 105.4309082 113.2746582 C103.44539514 118.49278345 100.09016212 122.20935957 95.4309082 125.2746582 C89.42751118 127.27579054 82.50128042 126.58242334 76.20117188 126.62475586 C74.41197609 126.64121046 72.62284312 126.66835941 70.83398438 126.70678711 C56.79522636 127.00634313 45.68748575 125.62273718 34.4699707 116.30200195 C27.02078568 108.89562834 23.42513838 101.22788421 22.3059082 90.9621582 C22.21954102 90.2215918 22.13317383 89.48102539 22.04418945 88.71801758 C21.83356115 86.90427386 21.63137834 85.08955277 21.4309082 83.2746582 C20.4409082 83.2746582 19.4509082 83.2746582 18.4309082 83.2746582 C18.41632568 84.15202637 18.40174316 85.02939453 18.38671875 85.93334961 C18.3254114 89.21015142 18.25121487 92.48614764 18.16845703 95.76245117 C18.13534529 97.17640311 18.10727104 98.59048285 18.08447266 100.00463867 C18.05067045 102.04571643 17.99834856 104.08563748 17.94262695 106.1262207 C17.91644287 107.35163574 17.89025879 108.57705078 17.86328125 109.83959961 C17.19647954 115.13711518 15.41083464 118.31650791 11.6184082 122.0246582 C5.56955064 126.29444002 -0.30215433 127.17319761 -7.5690918 126.2746582 C-13.48019065 124.46534794 -17.10758134 121.3095825 -20.5690918 116.2746582 C-21.46110543 113.50310565 -21.69897619 110.98378995 -21.71626282 108.08232117 C-21.72341812 107.25393738 -21.73057343 106.42555359 -21.73794556 105.57206726 C-21.74063446 104.67172256 -21.74332336 103.77137787 -21.74609375 102.84375 C-21.75595055 101.41133469 -21.75595055 101.41133469 -21.76600647 99.94998169 C-21.78570965 96.79127929 -21.79739461 93.63262433 -21.80737305 90.47387695 C-21.81144857 89.39405863 -21.8155241 88.3142403 -21.81972313 87.20170021 C-21.84056976 81.48782162 -21.85487837 75.77396697 -21.86425781 70.06005859 C-21.87532763 64.16197596 -21.90973849 58.26427001 -21.94942951 52.36632061 C-21.97558275 47.8272278 -21.98394845 43.28822502 -21.98753929 38.74906349 C-21.99240746 36.57498438 -22.00402796 34.40090935 -22.02257729 32.22690392 C-22.04694377 29.1822157 -22.04600817 26.13850602 -22.0390625 23.09375 C-22.05187256 22.199478 -22.06468262 21.30520599 -22.07788086 20.38383484 C-22.02909499 14.50434174 -20.95667839 11.1109128 -17.5690918 6.2746582 C-12.18372172 1.16546095 -7.27092807 -0.02589317 0 0 Z " fill="#1C026F" transform="translate(376.569091796875,148.725341796875)"/>
<path d="M0 0 C0.71151215 -0.00686325 1.42302429 -0.0137265 2.15609741 -0.02079773 C4.49611697 -0.03901671 6.83546216 -0.03523224 9.17553711 -0.02954102 C10.81733922 -0.03410828 12.45913942 -0.03941547 14.10093689 -0.04542542 C17.54149131 -0.05434927 20.9818136 -0.05194539 24.42236328 -0.04199219 C28.79761206 -0.03055932 33.17204686 -0.05062947 37.54718876 -0.07990932 C40.94049551 -0.0984096 44.3336127 -0.09795068 47.72695732 -0.0922718 C49.33784557 -0.09211997 50.94874784 -0.09804828 52.55958748 -0.11056328 C65.93269008 -0.1997599 78.32525215 0.97894619 88.64038086 10.40405273 C89.24366211 10.90549805 89.84694336 11.40694336 90.46850586 11.92358398 C96.63912257 17.43689587 102.31173726 26.5923936 102.78755188 35.0065918 C102.79739609 36.05041016 102.8072403 37.09422852 102.81738281 38.16967773 C102.83663567 39.94797974 102.83663567 39.94797974 102.85627747 41.76220703 C102.8636644 43.04651611 102.87105133 44.3308252 102.87866211 45.65405273 C102.88273764 46.31055817 102.88681316 46.9670636 102.89101219 47.64346313 C102.91186759 51.12501712 102.926166 54.60653186 102.93554688 58.08813477 C102.9465511 61.65764419 102.98088129 65.22651981 103.02071857 68.79580688 C103.04707774 71.56192043 103.05525607 74.32788817 103.05882835 77.09411621 C103.06597629 79.04094381 103.09234065 80.98767097 103.11921692 82.93432617 C103.08795532 95.87199886 99.30928888 105.74355385 90.64038086 115.40405273 C80.41881618 124.82187045 67.76752948 127.03060136 54.28881836 126.93530273 C53.06812653 126.93912964 51.84743469 126.94295654 50.5897522 126.94689941 C48.03012254 126.94960106 45.47046444 126.94236365 42.91088867 126.92553711 C39.018005 126.90406721 35.12695886 126.92542029 31.23413086 126.95092773 C28.73152267 126.94828487 26.22891561 126.94316077 23.72631836 126.93530273 C22.57706879 126.94339966 21.42781921 126.95149658 20.2437439 126.95983887 C7.94478905 126.81865692 -2.61969448 122.86814418 -11.55493164 114.29858398 C-15.79343104 109.75510031 -19.09366426 105.20355112 -21.35961914 99.40405273 C-21.71411133 98.50299805 -22.06860352 97.60194336 -22.43383789 96.67358398 C-25.20697324 86.87985281 -24.27407144 76.08267529 -19.84399414 66.98608398 C-13.30020864 55.60334132 -4.58296287 48.24635517 8.06445312 44.34887695 C13.54119534 43.0152621 18.97095879 43.15486391 24.57788086 43.20874023 C25.69855957 43.21157013 26.81923828 43.21440002 27.97387695 43.21731567 C31.52948997 43.22845023 35.08484484 43.25354259 38.64038086 43.27905273 C41.06095012 43.28909122 43.48152336 43.29821555 45.90209961 43.30639648 C51.8149471 43.32836753 57.72764553 43.36177783 63.64038086 43.40405273 C63.31038086 42.41405273 62.98038086 41.42405273 62.64038086 40.40405273 C61.77895981 40.4004071 60.91753876 40.39676147 60.03001404 40.39300537 C51.89393804 40.3550676 43.75826053 40.29814936 35.62246609 40.22014999 C31.44018978 40.18071677 27.25812271 40.14850812 23.07568359 40.13305664 C19.03593237 40.11786237 14.99675651 40.08336857 10.95726204 40.03574371 C9.41962765 40.02095829 7.8819111 40.01301335 6.34420586 40.01216888 C-8.60517539 39.99570895 -8.60517539 39.99570895 -14.35961914 35.40405273 C-18.79828357 30.8454244 -20.42665473 26.25257612 -20.67211914 19.96655273 C-20.50659792 13.40087749 -17.91905742 8.09376068 -13.35961914 3.40405273 C-8.76649751 0.63217664 -5.3324554 0.02251167 0 0 Z " fill="#1D0370" transform="translate(247.359619140625,148.595947265625)"/>
<path d="M0 0 C4.7629848 2.17736448 7.6225387 5.05295758 10.61328125 9.3125 C11.54252102 12.10021931 11.76195463 13.89484248 11.81860352 16.78393555 C11.84852135 18.13499641 11.84852135 18.13499641 11.87904358 19.51335144 C11.89575607 20.48218765 11.91246857 21.45102386 11.9296875 22.44921875 C11.9504686 23.44379593 11.97124969 24.43837311 11.99266052 25.46308899 C12.05807537 28.64198867 12.11700365 31.82097134 12.17578125 35 C12.21897413 37.15430548 12.26258867 39.30860254 12.30664062 41.46289062 C12.41374851 46.74600588 12.51552998 52.02920379 12.61328125 57.3125 C15.76400253 54.18677529 18.91121261 51.0575669 22.05541992 47.92529297 C23.12220422 46.86349139 24.18988978 45.80259442 25.25854492 44.74267578 C32.36190607 37.74333202 32.36190607 37.74333202 39.06640625 30.3671875 C43.63246456 25.02526544 48.63619227 20.10356572 53.6027832 15.13769531 C55.31295991 13.42530558 57.01494061 11.70502956 58.71679688 9.984375 C59.81070891 8.88753291 60.90509303 7.7911614 62 6.6953125 C62.75635994 5.92817429 62.75635994 5.92817429 63.52799988 5.14553833 C67.9079762 0.79377583 70.81280695 -0.97405263 76.98828125 -1 C83.11661942 -0.86960983 86.61683275 0.55372394 91.23828125 4.625 C92.41390625 5.9553125 92.41390625 5.9553125 93.61328125 7.3125 C94.37640625 8.158125 95.13953125 9.00375 95.92578125 9.875 C98.40597343 14.92724333 98.82648552 19.81394517 97.61328125 25.3125 C93.31098751 34.46458792 84.84722337 41.41232105 77.73828125 48.375 C76.46414585 49.63405976 75.19070227 50.89382003 73.91796875 52.15429688 C70.82432484 55.2151675 67.72146779 58.26640077 64.61328125 61.3125 C65.89797056 64.1433358 67.22343153 66.1596393 69.45483398 68.31762695 C70.02560165 68.87533279 70.59636932 69.43303864 71.18443298 70.00764465 C71.79903885 70.59937973 72.41364471 71.19111481 73.046875 71.80078125 C74.34858399 73.07719184 75.65000738 74.35389374 76.95117188 75.63085938 C78.99915025 77.62928791 81.05015278 79.62439198 83.10668945 81.61401367 C85.09570787 83.54233154 87.07185962 85.48313778 89.046875 87.42578125 C89.65945663 88.01144363 90.27203827 88.59710602 90.90318298 89.20051575 C95.17004879 93.41714217 98.27507723 97.52461495 98.828125 103.71875 C97.75635224 111.8098796 94.80702395 116.987466 88.3984375 122.08984375 C83.70041379 125.30752738 78.2098157 126.34030881 72.61328125 125.3125 C66.75142388 122.53821406 62.1835433 118.29708345 57.70703125 113.69921875 C57.09686157 113.08480423 56.48669189 112.47038971 55.85803223 111.83735657 C53.93587115 109.89857885 52.02448557 107.94957319 50.11328125 106 C48.80148353 104.67313346 47.48898951 103.34695492 46.17578125 102.02148438 C42.98018537 98.79304538 39.79420065 95.55539775 36.61328125 92.3125 C32.25023063 93.97174424 29.50655618 97.23760164 26.34375 100.52734375 C25.11291261 101.7834799 23.8817836 103.03933036 22.65039062 104.29492188 C20.72438304 106.27047149 18.80170762 108.24904129 16.88452148 110.2331543 C15.02571423 112.15268657 13.15440489 114.05932422 11.28125 115.96484375 C10.7174614 116.55555161 10.15367279 117.14625946 9.57279968 117.75486755 C4.3877529 123.00395259 -0.74793548 125.73114394 -8.32421875 125.8125 C-14.17696005 125.65134817 -18.07920103 124.29825133 -22.38671875 120.3125 C-25.70500188 116.05829086 -27.50484918 112.63031391 -27.52716064 107.23368835 C-27.53287079 106.40523407 -27.53858093 105.57677979 -27.54446411 104.72322083 C-27.54558197 103.81770981 -27.54669983 102.91219879 -27.54785156 101.97924805 C-27.55281647 101.02284424 -27.55778137 100.06644043 -27.56289673 99.08105469 C-27.57752044 95.91210209 -27.5843208 92.74319956 -27.58984375 89.57421875 C-27.59559513 87.37327574 -27.60135286 85.17233275 -27.6071167 82.97138977 C-27.61762735 78.35372687 -27.62346957 73.73608139 -27.62695312 69.1184082 C-27.63243727 63.20345238 -27.65646349 57.28872681 -27.68492508 51.37384319 C-27.70355532 46.82621083 -27.70875728 42.27863387 -27.710289 37.73096657 C-27.71331529 35.55049188 -27.72134299 33.37001816 -27.73447418 31.18958092 C-27.75154207 28.13752131 -27.74965243 25.08602361 -27.74316406 22.03393555 C-27.75237885 21.13449722 -27.76159363 20.2350589 -27.77108765 19.30836487 C-27.73272304 13.54305974 -26.96252163 9.14244877 -22.921875 4.703125 C-15.74719599 -0.85392081 -9.01640977 -2.59719823 0 0 Z " fill="#1C036F" transform="translate(125.38671875,149.6875)"/>
<path d="M0 0 C4.57401341 2.71733144 7.80000335 6.27501006 9.5 11.375 C9.65109093 13.58459253 9.74873801 15.79800047 9.81640625 18.01171875 C9.85830078 19.31044922 9.90019531 20.60917969 9.94335938 21.94726562 C9.98316987 23.31900761 10.02288216 24.69075244 10.0625 26.0625 C10.10570835 27.44597645 10.14932339 28.82944027 10.19335938 30.21289062 C10.29958028 33.60015719 10.40162358 36.98749799 10.5 40.375 C11.39678467 40.37642502 12.29356934 40.37785004 13.2175293 40.37931824 C21.69179484 40.39718865 30.16554082 40.43892172 38.63955688 40.50709057 C42.99561371 40.54130093 47.35132204 40.56646122 51.70751953 40.57055664 C55.91592182 40.57485247 60.12353877 40.60342044 64.33169556 40.64843178 C65.9327028 40.66136598 67.53380422 40.66572895 69.13485718 40.66115379 C85.64494335 40.62498139 85.64494335 40.62498139 91.5 46.375 C96.52979892 52.82346015 97.27514846 58.39424617 96.5 66.375 C94.75227014 72.31728154 91.49270522 75.86948357 86.5 79.375 C82.98835795 80.54554735 80.16503216 80.53566226 76.45825195 80.58032227 C75.74580322 80.59022186 75.03335449 80.60012146 74.29931641 80.61032104 C71.94567176 80.641895 69.59200694 80.66667719 67.23828125 80.69140625 C65.60588559 80.71197933 63.97349521 80.73297589 62.34111023 80.75437927 C58.04544354 80.80956344 53.74972906 80.85898883 49.45397949 80.90722656 C45.07018788 80.95746827 40.68646562 81.0131404 36.30273438 81.06835938 C27.70188157 81.17589625 19.10097072 81.27735114 10.5 81.375 C10.5 82.365 10.5 83.355 10.5 84.375 C11.40122589 84.38086624 12.30245178 84.38673248 13.23098755 84.39277649 C21.73522405 84.45074394 30.23919905 84.522844 38.74318123 84.61071491 C43.11490145 84.65539182 47.48652906 84.69465377 51.85839844 84.72143555 C56.07960838 84.74749539 60.30046143 84.78791653 64.52145004 84.83818626 C66.12969388 84.8548369 67.73799942 84.86636241 69.34631729 84.87261391 C71.60381499 84.8822749 73.86040335 84.91035629 76.11767578 84.94262695 C77.40118927 84.95373001 78.68470276 84.96483307 80.0071106 84.97627258 C85.39269318 85.59105856 88.52948618 87.36037191 92.25 91.25 C96.68709021 97.4126253 97.34490685 102.9273026 96.5 110.375 C94.86612116 115.69173007 92.28295774 119.4141214 87.5 122.375 C82.91267649 124.22301245 78.75652379 124.67666642 73.86499023 124.68139648 C73.12421738 124.68972 72.38344452 124.69804352 71.620224 124.70661926 C69.18295954 124.73061479 66.74596365 124.73948101 64.30859375 124.74609375 C62.59953233 124.75507212 60.89047167 124.76419416 59.18141174 124.77345276 C55.59968158 124.7899199 52.01804459 124.79763799 48.4362793 124.80053711 C43.87935283 124.8059007 39.32332132 124.84350599 34.76664639 124.88928127 C31.23438957 124.91925172 27.70234238 124.92626506 24.16996956 124.92726326 C22.49206533 124.93143057 20.8141584 124.94372206 19.13638115 124.96478081 C5.14496406 125.12633532 -6.37554389 123.03518568 -17.34765625 113.5390625 C-20.74495353 110.12326814 -23.1738137 106.5724221 -25.5 102.375 C-25.8671814 101.72065475 -26.23436279 101.06630951 -26.6126709 100.39213562 C-30.67658082 91.8529186 -30.08004289 82.9483204 -30.03125 73.70703125 C-30.03394921 71.89963065 -30.03783519 70.09223148 -30.04284668 68.28483582 C-30.04871704 64.51339775 -30.04025572 60.74234076 -30.02148438 56.97094727 C-29.99864682 52.14906301 -30.0118637 47.32806715 -30.03577423 42.5062151 C-30.05025709 38.78030246 -30.04561569 35.05459912 -30.03526306 31.32868004 C-30.0326052 29.55096009 -30.03583227 27.77322081 -30.04518127 25.99552345 C-30.05539381 23.50928269 -30.03978388 21.02446537 -30.01757812 18.53833008 C-30.02972351 17.44950531 -30.02972351 17.44950531 -30.04211426 16.33868408 C-29.94183378 10.2474063 -28.00657125 6.02114831 -23.81640625 1.59765625 C-16.75841147 -3.07099508 -7.73404298 -3.47153065 0 0 Z " fill="#1C026F" transform="translate(516.5,150.625)"/>
<path d="M0 0 C7.91658722 4.70001467 13.17394686 11.45543432 16.10546875 20.25 C16.19136178 21.64655459 16.2231959 23.04685777 16.21899414 24.44604492 C16.21891861 25.28668991 16.21884308 26.1273349 16.21876526 26.99345398 C16.21360397 27.89666885 16.20844269 28.79988373 16.203125 29.73046875 C16.20171005 30.65845779 16.2002951 31.58644684 16.19883728 32.54255676 C16.19323812 35.50757058 16.18068579 38.47250899 16.16796875 41.4375 C16.16295364 43.44726453 16.15839075 45.45703025 16.15429688 47.46679688 C16.14326896 52.39456032 16.12600492 57.32226737 16.10546875 62.25 C17.09546875 62.25 18.08546875 62.25 19.10546875 62.25 C19.07404785 60.51097412 19.07404785 60.51097412 19.04199219 58.73681641 C18.96904645 54.39449643 18.92347248 50.0522295 18.88574219 45.70947266 C18.86575012 43.83763491 18.83854707 41.96585862 18.80371094 40.09423828 C18.44312402 20.20893057 18.44312402 20.20893057 23.10546875 12.25 C23.64276611 11.26628418 23.64276611 11.26628418 24.19091797 10.26269531 C27.85202726 3.89188944 35.28517566 -0.47656897 42.10546875 -2.75 C52.10796388 -3.4972515 60.59686383 -3.7424416 69.10546875 2.25 C69.68554688 2.63414063 70.265625 3.01828125 70.86328125 3.4140625 C77.01313162 7.9569168 80.72840542 14.82671294 82.10546875 22.25 C82.4205921 26.77021116 82.43336847 31.28253805 82.44140625 35.8125 C82.45139145 37.77038452 82.45139145 37.77038452 82.46157837 39.76782227 C82.47350384 42.52135531 82.47726387 45.2747633 82.47607422 48.02832031 C82.47587075 51.54210591 82.50322195 55.05508533 82.53761864 58.56867981 C82.56530092 61.94163117 82.56403796 65.31443664 82.56640625 68.6875 C82.58077728 69.94183838 82.59514832 71.19617676 82.60995483 72.48852539 C82.57449488 79.27780149 82.30558333 83.79455732 78.10546875 89.25 C73.23275094 92.84652981 67.9543706 93.09780499 62.10546875 92.25 C57.50297845 90.03398615 54.03768844 87.03851336 52.10546875 82.25 C51.5547974 77.9674415 51.64029208 73.72558576 51.71484375 69.4140625 C51.72050354 68.17957367 51.72616333 66.94508484 51.73199463 65.67318726 C51.75434 61.74005958 51.80453628 57.80785119 51.85546875 53.875 C51.87779216 51.2044404 51.89378621 48.53388945 51.91015625 45.86328125 C51.95419903 39.32520851 52.02109444 32.78766994 52.10546875 26.25 C51.11546875 26.25 50.12546875 26.25 49.10546875 26.25 C49.11594238 27.41982422 49.12641602 28.58964844 49.13720703 29.79492188 C49.17359382 34.16337994 49.19643685 38.53182478 49.21533203 42.90039062 C49.22534722 44.78583026 49.23896327 46.67125453 49.25634766 48.55664062 C49.28079407 51.27738249 49.29199691 53.99791777 49.30078125 56.71875 C49.31110382 57.55241089 49.32142639 58.38607178 49.33206177 59.24499512 C49.3340535 69.79585628 46.49126349 76.58074238 39.25 84.203125 C31.2618804 91.79263584 23.47383357 92.85350874 12.62890625 92.59375 C7.92682326 92.1350102 4.86766062 91.05287465 1.10546875 88.25 C0.43128906 87.775625 -0.24289063 87.30125 -0.9375 86.8125 C-7.79305838 81.46182029 -12.59376535 73.90548881 -13.89453125 65.25 C-14.02554946 62.24267446 -14.01096467 59.24014755 -13.9921875 56.23046875 C-13.99077255 55.37189774 -13.9893576 54.51332672 -13.98789978 53.6287384 C-13.98232182 50.89828951 -13.96977339 48.16792393 -13.95703125 45.4375 C-13.9520134 43.5813814 -13.94745099 41.7252615 -13.94335938 39.86914062 C-13.93235961 35.3293952 -13.91511018 30.7897117 -13.89453125 26.25 C-14.88453125 26.745 -14.88453125 26.745 -15.89453125 27.25 C-15.90039749 27.92794113 -15.90626373 28.60588226 -15.91230774 29.30436707 C-15.97624704 36.36114535 -16.0606687 43.41746781 -16.15698242 50.47387695 C-16.1902345 53.10727936 -16.21826549 55.74075309 -16.2409668 58.37426758 C-16.27450654 62.15997711 -16.32682445 65.94503289 -16.3828125 69.73046875 C-16.39239738 71.4963459 -16.39239738 71.4963459 -16.4021759 73.29789734 C-16.42197006 74.39866104 -16.44176422 75.49942474 -16.4621582 76.63354492 C-16.47326126 77.59951096 -16.48436432 78.56547699 -16.49580383 79.56071472 C-17.15560294 84.01084271 -19.1270549 86.57611833 -22.45703125 89.5 C-27.14490643 92.86565398 -31.23240143 92.8684788 -36.89453125 92.25 C-41.50226393 90.03146204 -44.95161593 87.03701475 -46.89453125 82.25 C-47.47936795 77.94214768 -47.4310562 73.66975801 -47.390625 69.328125 C-47.39208023 68.07296082 -47.39353546 66.81779663 -47.39503479 65.52459717 C-47.39337656 62.87130701 -47.38392499 60.21945686 -47.36108398 57.56640625 C-47.33281576 54.19306455 -47.33540878 50.82063134 -47.3481741 47.44722366 C-47.35687465 44.19913414 -47.34164841 40.9511865 -47.328125 37.703125 C-47.33106064 36.50488098 -47.33399628 35.30663696 -47.33702087 34.07208252 C-47.20258771 21.97832786 -44.77441564 13.22477935 -36.1953125 4.52734375 C-26.38069671 -4.44917002 -11.96220271 -5.77071086 0 0 Z " fill="#FD9B33" transform="translate(236.89453125,25.75)"/>
<path d="M0 0 C1.71823975 -0.01925285 1.71823975 -0.01925285 3.47119141 -0.03889465 C4.71175293 -0.04628159 5.95231445 -0.05366852 7.23046875 -0.0612793 C8.50970215 -0.06935104 9.78893555 -0.07742279 11.10693359 -0.08573914 C13.8204739 -0.10076068 16.53398814 -0.11059824 19.24755859 -0.11816406 C22.69600993 -0.12916536 26.14380467 -0.16349221 29.59202576 -0.20333576 C32.90897793 -0.23605361 36.22586787 -0.2403038 39.54296875 -0.2487793 C40.76733643 -0.26628738 41.9917041 -0.28379547 43.25317383 -0.30183411 C54.08551982 -0.27476442 62.82085406 1.81388253 70.76953125 9.4543457 C78.38779668 17.4156136 80.00712613 23.51326226 79.76953125 34.44262695 C79.03179771 42.27899651 76.14071372 48.70307198 70.41796875 54.17700195 C63.27687696 59.07913757 56.97746446 62.25915456 48.30859375 62.83325195 C47.6846875 62.94668945 47.06078125 63.06012695 46.41796875 63.17700195 C46.08796875 63.83700195 45.75796875 64.49700195 45.41796875 65.17700195 C46.45352905 65.14558105 46.45352905 65.14558105 47.51000977 65.11352539 C50.66667868 65.029891 53.82311377 64.97819242 56.98046875 64.92700195 C58.06650391 64.89348633 59.15253906 64.8599707 60.27148438 64.82543945 C66.89343635 64.7449294 71.1444276 65.01479766 76.41796875 69.17700195 C80.03279252 73.67889904 79.92030721 77.71547892 79.76953125 83.29418945 C79.29344864 87.19806686 78.11488555 89.33430586 75.41796875 92.17700195 C69.85802053 96.24270261 64.04795395 95.73522093 57.45532227 95.73291016 C55.3842887 95.73941148 53.31821982 95.79374401 51.24804688 95.85083008 C41.36060675 95.97621939 33.03391478 94.0860553 25.42407227 87.43408203 C19.93108511 81.70958626 17.18820654 74.99712107 17.16796875 67.11450195 C17.23121754 65.46777447 17.30732942 63.8212254 17.41796875 62.17700195 C16.09796875 62.17700195 14.77796875 62.17700195 13.41796875 62.17700195 C13.43891602 62.83708252 13.45986328 63.49716309 13.48144531 64.17724609 C13.56512268 67.19784013 13.61679104 70.21818954 13.66796875 73.23950195 C13.70148438 74.2778418 13.735 75.31618164 13.76953125 76.38598633 C13.85242846 82.91414156 13.3634587 86.89721904 9.41796875 92.17700195 C4.5499566 95.77005854 -0.73747409 96.032303 -6.58203125 95.17700195 C-11.07676752 92.97049506 -13.39739618 90.66125288 -15.58203125 86.17700195 C-16.74587062 82.68548384 -16.73051501 79.9156176 -16.7590332 76.23046875 C-16.7656044 75.52765778 -16.7721756 74.8248468 -16.77894592 74.10073853 C-16.79864917 71.77589812 -16.8103347 69.45112222 -16.8203125 67.1262207 C-16.82438803 66.33108377 -16.82846355 65.53594685 -16.83266258 64.71671486 C-16.85351044 60.50824876 -16.86781781 56.29981514 -16.87719727 52.09130859 C-16.88826036 47.75011041 -16.92266235 43.40942499 -16.96236897 39.06840801 C-16.9885435 35.72517459 -16.99688981 32.38206322 -17.00047874 29.03873634 C-17.0053424 27.43878528 -17.01695019 25.8388396 -17.03551674 24.23898888 C-17.05992781 21.99615468 -17.05894042 19.75464578 -17.05200195 17.51171875 C-17.05786819 16.23725388 -17.06373444 14.962789 -17.06977844 13.64970398 C-16.37868753 8.72921884 -14.2173909 5.61413619 -10.51953125 2.36450195 C-6.9893027 0.20081349 -4.04557753 0.03949812 0 0 Z " fill="#FD9B33" transform="translate(437.58203125,22.822998046875)"/>
<path d="M0 0 C1.25420746 -0.0038269 2.50841492 -0.00765381 3.80062866 -0.01159668 C6.4557007 -0.01431829 9.10929897 -0.00896236 11.76416016 0.00976562 C14.46829418 0.02792832 17.17135565 0.02811317 19.87548828 0.00976562 C23.79231326 -0.01512438 27.7081304 -0.01189691 31.625 0 C32.82121979 -0.00809692 34.01743958 -0.01619385 35.24990845 -0.02453613 C45.89300059 0.09274312 55.40769111 2.29312657 63.04003906 10.09179688 C72.32963978 20.53058347 72.15416951 31.53780578 71.99316406 44.85791016 C71.96099574 48.02551497 71.99296377 51.18801923 72.03125 54.35546875 C72.05737878 66.68043111 71.68543125 76.51912529 62.93530273 85.99584961 C56.72331334 92.02403988 49.70328145 95.61029158 40.95239258 95.69238281 C40.12085159 95.70199036 39.28931061 95.7115979 38.43257141 95.72149658 C37.54087753 95.72574646 36.64918365 95.72999634 35.73046875 95.734375 C34.33933113 95.74292511 34.33933113 95.74292511 32.92008972 95.75164795 C30.95739885 95.76108659 28.9946922 95.76762742 27.03198242 95.77148438 C24.0516333 95.78115848 21.07198334 95.81217971 18.09179688 95.84375 C16.17969157 95.85028386 14.26758136 95.85553282 12.35546875 95.859375 C11.47389603 95.8717218 10.5923233 95.8840686 9.68403625 95.89678955 C0.14161362 95.86299079 -7.82209124 93.26033949 -14.828125 86.58984375 C-22.655834 78.40632979 -24.45394253 71.22769561 -24.2109375 59.9765625 C-23.57201002 54.75865475 -21.65046409 50.88157859 -18.7890625 46.53125 C-18.2115625 45.62375 -17.6340625 44.71625 -17.0390625 43.78125 C-9.45550203 36.19768953 -1.83666509 33.25649707 8.66796875 33.1171875 C9.57093185 33.09782135 10.47389496 33.0784552 11.40422058 33.0585022 C14.27719797 32.99890918 17.15021587 32.95240231 20.0234375 32.90625 C21.97592855 32.86805155 23.92840309 32.82899873 25.88085938 32.7890625 C30.65741734 32.69322431 35.43405417 32.60911848 40.2109375 32.53125 C40.7059375 31.04625 40.7059375 31.04625 41.2109375 29.53125 C40.1940258 29.54457367 40.1940258 29.54457367 39.15657043 29.5581665 C32.10015291 29.6466649 25.04389305 29.70699506 17.98706055 29.75097656 C15.35353187 29.77109098 12.72004784 29.79838604 10.08666992 29.83300781 C6.30115743 29.88153088 2.5162355 29.90422112 -1.26953125 29.921875 C-2.44678268 29.94252014 -3.62403412 29.96316528 -4.83695984 29.98443604 C-12.99658535 29.98667559 -12.99658535 29.98667559 -16.95825195 27.70996094 C-20.29307477 23.7414373 -21.93098358 19.62167587 -22.2265625 14.46875 C-21.62074704 9.01641089 -19.4332092 6.4368765 -15.94384766 2.39257812 C-10.88939678 -0.58955572 -5.76088252 -0.03860209 0 0 Z " fill="#FD9A32" transform="translate(346.7890625,22.46875)"/>
<path d="M0 0 C1.80239639 -0.01925285 1.80239639 -0.01925285 3.64120483 -0.03889465 C5.58345444 -0.04997505 5.58345444 -0.04997505 7.56494141 -0.0612793 C8.22677052 -0.06535482 8.88859962 -0.06943035 9.57048416 -0.07362938 C13.07221408 -0.09444588 16.5739053 -0.10876779 20.07568359 -0.11816406 C23.68264281 -0.1292324 27.2889858 -0.16364874 30.89572716 -0.20333576 C33.67879345 -0.22953511 36.46171337 -0.23785866 39.24489212 -0.24144554 C41.21798757 -0.24865343 43.19098278 -0.2750735 45.16390991 -0.30183411 C56.27368609 -0.27492596 56.27368609 -0.27492596 61.04150391 4.17700195 C63.9228157 7.45573607 64.95313872 10.02825448 65.29150391 14.42700195 C64.93131405 19.82984986 63.73194344 23.59317313 59.7265625 27.34594727 C54.7838847 30.44234526 48.83692048 29.78058206 43.20556641 29.78637695 C41.35383316 29.81118134 41.35383316 29.81118134 39.46469116 29.83648682 C35.53191147 29.88497011 31.59951852 29.90633981 27.66650391 29.92700195 C24.99587246 29.95296575 22.32535917 29.98508823 19.65478516 30.0168457 C13.11709495 30.09072962 6.57951353 30.14237033 0.04150391 30.17700195 C0.04150391 30.83700195 0.04150391 31.49700195 0.04150391 32.17700195 C1.78838501 32.19887573 1.78838501 32.19887573 3.57055664 32.22119141 C7.92632453 32.27953507 12.28159481 32.35676343 16.63696289 32.43945312 C18.51546094 32.4725338 20.39405437 32.50061722 22.27270508 32.5234375 C24.9864128 32.55729581 27.69925966 32.60962411 30.41259766 32.6652832 C31.24109726 32.67167313 32.06959686 32.67806305 32.92320251 32.68464661 C42.15490866 32.91302102 50.44795747 35.51658385 57.04150391 42.17700195 C64.08239538 51.57393641 65.9739418 58.47423068 65.04150391 70.17700195 C63.31656253 77.93374471 59.00715607 84.015593 53.04150391 89.17700195 C46.56999146 93.24841894 40.81472432 95.26889268 33.19067383 95.38574219 C32.01232468 95.40503281 30.83397552 95.42432343 29.61991882 95.44419861 C24.24313101 95.50204334 18.86650221 95.55149017 13.48950195 95.58203125 C10.65408025 95.59983852 7.81965425 95.63465513 4.98461914 95.68457031 C0.89274345 95.75651004 -3.1980583 95.77901744 -7.29052734 95.7980957 C-8.55427689 95.82592636 -9.81802643 95.85375702 -11.12007141 95.88243103 C-20.94066272 95.85949185 -20.94066272 95.85949185 -25.22290039 92.32177734 C-28.93517571 88.55478191 -29.76826756 84.92076354 -30.33349609 79.73950195 C-29.74459402 74.14493223 -27.80246334 70.84286761 -23.65576172 67.09667969 C-18.75465687 63.91366571 -12.96716168 64.68728344 -7.34130859 64.78637695 C-6.12901581 64.79203674 -4.91672302 64.79769653 -3.66769409 64.80352783 C0.1941114 64.82587037 4.05498008 64.87606597 7.91650391 64.92700195 C10.53888632 64.94706955 13.16128331 64.96531986 15.78369141 64.98168945 C22.20328043 65.02572844 28.62232523 65.0926209 35.04150391 65.17700195 C35.04150391 64.18700195 35.04150391 63.19700195 35.04150391 62.17700195 C33.80585693 62.1927124 32.57020996 62.20842285 31.29711914 62.22460938 C26.69204279 62.27910346 22.0869947 62.31342278 17.48168945 62.34179688 C15.4923828 62.3568392 13.50310907 62.37727818 11.51391602 62.40332031 C8.64672701 62.43990441 5.77997832 62.45677414 2.91259766 62.4699707 C2.03002792 62.48545456 1.14745819 62.50093842 0.23814392 62.51689148 C-8.34206265 62.51920508 -15.20044436 59.72147531 -21.52490234 53.6809082 C-28.16212535 46.4781073 -31.3602508 37.88000857 -31.23193359 28.15356445 C-30.45234936 19.66723318 -26.2797283 12.75737141 -19.95849609 7.17700195 C-13.28469344 2.45700901 -8.1845047 0.0762483 0 0 Z " fill="#FD9B33" transform="translate(121.95849609375,22.822998046875)"/>
<path d="M0 0 C3.56489205 2.34761184 5.20085046 3.60255139 6.5625 7.6875 C6.64459792 9.46063851 6.66996294 11.23670775 6.66015625 13.01171875 C6.65693359 14.03974609 6.65371094 15.06777344 6.65039062 16.12695312 C6.64201172 17.19880859 6.63363281 18.27066406 6.625 19.375 C6.62048828 20.45845703 6.61597656 21.54191406 6.61132812 22.65820312 C6.59953743 25.33469085 6.58308063 28.01106777 6.5625 30.6875 C7.2507486 30.67861755 7.93899719 30.66973511 8.64810181 30.6605835 C15.81821377 30.57201705 22.98817006 30.51172661 30.15869141 30.46777344 C32.83413375 30.44993175 35.50872016 30.42038951 38.18408203 30.38574219 C42.03168571 30.33716494 45.87870787 30.31451635 49.7265625 30.296875 C50.92052643 30.27622986 52.11449036 30.25558472 53.34463501 30.23431396 C59.71782363 30.23259586 63.75927523 30.31355139 68.5625 34.6875 C72.03822585 38.64263631 72.93342909 42.20814324 72.8359375 47.4921875 C72.35847614 51.32552016 71.13332066 54.78163505 68.5625 57.6875 C62.25927598 61.20234128 56.39283928 61.15878223 49.28515625 61.19921875 C48.1186705 61.21716995 46.95218475 61.23512115 45.75035095 61.25361633 C42.04193688 61.30759379 38.33365062 61.34157574 34.625 61.375 C32.10349789 61.40818405 29.58201262 61.44267471 27.06054688 61.47851562 C20.89464588 61.56331323 14.72872809 61.63171631 8.5625 61.6875 C8.2325 62.3475 7.9025 63.0075 7.5625 63.6875 C8.22569244 63.68083817 8.88888489 63.67417633 9.57217407 63.66731262 C16.48279974 63.60087496 23.39333448 63.55566418 30.30419922 63.52270508 C32.88236171 63.50763095 35.46049862 63.48716833 38.03857422 63.46118164 C41.74713461 63.42473914 45.45535554 63.40775948 49.1640625 63.39453125 C50.31427887 63.37904739 51.46449524 63.36356354 52.64956665 63.34761047 C62.72758005 63.34549733 62.72758005 63.34549733 67.5625 66.6875 C71.69179807 71.15160602 72.87100092 74.51462452 72.78125 80.62890625 C72.23768351 85.74425515 69.39164659 89.45665757 65.5625 92.6875 C62.44258282 93.72747239 60.23831131 93.82652977 56.96459961 93.84863281 C55.81587875 93.85824036 54.6671579 93.8678479 53.48362732 93.87774658 C51.61807945 93.8841214 51.61807945 93.8841214 49.71484375 93.890625 C48.43323868 93.89632507 47.15163361 93.90202515 45.83119202 93.90789795 C43.11345016 93.91840284 40.39573781 93.9242475 37.67797852 93.92773438 C34.2205815 93.93318991 30.76358413 93.95715598 27.30631161 93.98570633 C23.98416462 94.00899808 20.66206802 94.01079454 17.33984375 94.015625 C16.11031479 94.0279718 14.88078583 94.0403186 13.61399841 94.05303955 C2.83940003 94.02542081 -6.53270557 92.50747904 -14.4375 84.6875 C-22.23695334 75.17216692 -22.7592741 66.61942098 -22.80859375 54.65234375 C-22.81757436 53.28666595 -22.82669644 51.92098907 -22.83595276 50.55531311 C-22.8523744 47.70343648 -22.86013114 44.85167635 -22.86303711 41.99975586 C-22.86843451 38.35569681 -22.90619724 34.71273908 -22.95178127 31.06899166 C-22.98159114 28.25244682 -22.98876138 25.43616708 -22.98976326 22.61947823 C-22.99597969 20.6264121 -23.02541488 18.63346176 -23.05528259 16.64060974 C-23.00506482 6.57479611 -23.00506482 6.57479611 -20.02807617 2.90332031 C-13.97935075 -2.27038923 -7.45307378 -2.84571908 0 0 Z " fill="#FC9A33" transform="translate(543.4375,24.3125)"/>
<path d="M0 0 C6.56204076 4.48718597 11.3430833 11.1282439 13.73828125 18.71484375 C14.69499345 28.65457993 14.67681661 37.28277972 8.73828125 45.71484375 C8.16207031 46.58496094 8.16207031 46.58496094 7.57421875 47.47265625 C3.20313427 53.3899747 -3.29646486 56.81369957 -10.26171875 58.71484375 C-22.09845625 59.76972398 -30.71813764 58.65560298 -40.07421875 50.96484375 C-44.01229821 47.27375185 -46.34764198 43.72739838 -48.26171875 38.71484375 C-48.67421875 37.80734375 -49.08671875 36.89984375 -49.51171875 35.96484375 C-51.55524241 27.10957457 -50.923101 18.5927054 -46.26171875 10.71484375 C-34.66279195 -5.41971226 -17.4259824 -9.90181038 0 0 Z " fill="#1D046F" transform="translate(803.26171875,217.28515625)"/>
<path d="M0 0 C9.05500595 4.84709142 13.756434 12.769302 16.9375 22.3125 C17.81620687 32.46832367 16.21945832 41.48871761 9.66796875 49.49609375 C2.99375061 56.5017629 -4.11757705 60.28591657 -13.82470703 60.76538086 C-21.60376709 60.9388681 -27.57781171 59.80094582 -34.0625 55.3125 C-34.93455078 54.73628906 -34.93455078 54.73628906 -35.82421875 54.1484375 C-42.20404826 49.42382824 -45.24760384 42.83476696 -47.0625 35.3125 C-48.2439976 25.00847763 -47.09530339 16.87186207 -41.0625 8.3125 C-36.09458664 2.45290988 -30.25707742 -0.31060586 -23.0625 -2.6875 C-15.26828059 -5.28557314 -7.27745728 -3.26714364 0 0 Z " fill="#1D046F" transform="translate(710.0625,215.6875)"/>
<path d="M0 0 C0.99 0.33 1.98 0.66 3 1 C4.49070852 1.09092937 5.98515869 1.12627727 7.4786377 1.12698364 C8.395569 1.12980347 9.31250031 1.13262329 10.25721741 1.13552856 C11.26094894 1.13350433 12.26468048 1.1314801 13.29882812 1.12939453 C14.88696571 1.13202301 14.88696571 1.13202301 16.50718689 1.13470459 C20.01522448 1.13911436 23.52321187 1.13618816 27.03125 1.1328125 C29.46358246 1.13348579 31.89591485 1.13445603 34.32824707 1.13571167 C39.42928711 1.13718746 44.53030965 1.13503788 49.63134766 1.13037109 C56.17875816 1.12467389 62.72612768 1.12795353 69.27353668 1.13394356 C74.29714264 1.13755236 79.32073884 1.1364091 84.34434509 1.13381577 C86.75894679 1.13314738 89.17354936 1.13397184 91.58815002 1.13629532 C94.95918128 1.13882704 98.33014562 1.13497382 101.70117188 1.12939453 C103.20676918 1.13243088 103.20676918 1.13243088 104.74278259 1.13552856 C105.6597139 1.13270874 106.5766452 1.12988892 107.5213623 1.12698364 C108.31850395 1.12660662 109.1156456 1.12622959 109.93694305 1.12584114 C112.1992643 1.07684592 112.1992643 1.07684592 115 0 C117.96723606 -0.09169534 120.91057276 -0.12594642 123.87768555 -0.11352539 C124.78520569 -0.11367142 125.69272583 -0.11381744 126.62774658 -0.1139679 C129.63076152 -0.11327061 132.63371463 -0.10548676 135.63671875 -0.09765625 C137.71751369 -0.09579142 139.79830908 -0.09436782 141.87910461 -0.09336853 C147.3585023 -0.08954849 152.83787352 -0.07972255 158.31726074 -0.06866455 C163.90746706 -0.05843943 169.49767765 -0.05386855 175.08789062 -0.04882812 C186.05860538 -0.03809985 197.02930049 -0.02102955 208 0 C204.5527825 2.298145 203.225913 2.26794738 199.15991211 2.31884766 C197.31162308 2.34862198 197.31162308 2.34862198 195.42599487 2.3789978 C194.04311366 2.39097731 192.66022979 2.40265349 191.27734375 2.4140625 C189.79891068 2.43312146 188.32048659 2.45288819 186.84207153 2.47329712 C182.74080057 2.52660428 178.63950145 2.56592384 174.53804398 2.60169983 C171.93946731 2.62498237 169.3409389 2.65132894 166.74240112 2.67858887 C152.49516827 2.82630084 138.24775848 2.92027372 124 3 C122.75170914 3.00711502 121.50341827 3.01423004 120.21730042 3.02156067 C101.58548111 3.12646784 82.95379076 3.19593253 64.32172054 3.23447978 C59.44116492 3.24521546 54.56066742 3.26321285 49.68014526 3.28399658 C43.04296506 3.31197617 36.40589062 3.3235416 29.76864243 3.32419968 C27.29196985 3.32680361 24.81529701 3.33454647 22.33865738 3.34758377 C18.9392336 3.36448512 15.540317 3.36290099 12.14086914 3.35644531 C11.13435775 3.36566324 10.12784636 3.37488117 9.09083462 3.38437843 C8.17878293 3.37880613 7.26673124 3.37323383 6.32704163 3.36749268 C5.53441957 3.36895924 4.7417975 3.3704258 3.92515659 3.3719368 C3.28985492 3.24919765 2.65455324 3.12645851 2 3 C1.34 2.01 0.68 1.02 0 0 Z " fill="#F0A04D" transform="translate(668,201)"/>
<path d="M0 0 C0.66 0 1.32 0 2 0 C2.05534912 0.60062256 2.11069824 1.20124512 2.16772461 1.82006836 C2.41970782 4.52633131 2.6785117 7.23189884 2.9375 9.9375 C3.02451172 10.88302734 3.11152344 11.82855469 3.20117188 12.80273438 C3.33168945 14.15141602 3.33168945 14.15141602 3.46484375 15.52734375 C3.543396 16.35999756 3.62194824 17.19265137 3.70288086 18.05053711 C3.80311398 20.000612 3.80311398 20.000612 5 21 C5 24.3 5 27.6 5 31 C75.95 31 146.9 31 220 31 C219.67 31.99 219.34 32.98 219 34 C218.01 33.67 217.02 33.34 216 33 C213.17644594 32.89405669 210.37694314 32.84515 207.55293274 32.84178162 C206.68057281 32.83684364 205.80821288 32.83190566 204.90941781 32.82681805 C201.97517698 32.81141344 199.04095809 32.8030744 196.10668945 32.79467773 C194.00774949 32.78510154 191.90881147 32.77509161 189.80987549 32.76467896 C184.10156988 32.7375958 178.39325597 32.71660471 172.6849215 32.69667697 C166.72313432 32.67483844 160.76137281 32.64743933 154.79960632 32.62062073 C143.50556829 32.57066496 132.21151603 32.52573683 120.91745013 32.48259836 C108.06150179 32.43325062 95.20557919 32.37832337 82.34965575 32.32291877 C55.89979452 32.20905445 29.44990859 32.10222511 3 32 C2.57001397 28.08590735 2.14284971 24.17151793 1.71826172 20.25683594 C1.50246062 18.27262449 1.28444615 16.28865418 1.06640625 14.3046875 C0.93105469 13.05429687 0.79570313 11.80390625 0.65625 10.515625 C0.53056641 9.36352539 0.40488281 8.21142578 0.27539062 7.02441406 C0 4 0 4 0 0 Z " fill="#FEF7DC" transform="translate(686,32)"/>
<path d="M0 0 C15.51 0 31.02 0 47 0 C47.495 1.98 47.495 1.98 48 4 C47 5 47 5 45.09544373 5.12025452 C44.26271439 5.11803391 43.42998505 5.11581329 42.57202148 5.11352539 C41.63112167 5.11344986 40.69022186 5.11337433 39.72080994 5.11329651 C38.69790359 5.10813522 37.67499725 5.10297394 36.62109375 5.09765625 C35.57929459 5.0962413 34.53749542 5.09482635 33.46412659 5.09336853 C30.12188906 5.0877508 26.77971743 5.0751953 23.4375 5.0625 C21.17773534 5.05748728 18.91796963 5.05292398 16.65820312 5.04882812 C11.10544609 5.03777561 5.55272775 5.02102024 0 5 C0 3.35 0 1.7 0 0 Z " fill="#D8D1E8" transform="translate(394,188)"/>
<path d="M0 0 C1.32 0.33 2.64 0.66 4 1 C3.34936584 1.6883342 2.69873169 2.3766684 2.02838135 3.08586121 C-0.41750261 6.59981844 -0.48654134 8.38471963 -0.45410156 12.6262207 C-0.45497772 13.59291939 -0.45497772 13.59291939 -0.45587158 14.57914734 C-0.45309954 16.69525272 -0.42205361 18.80992405 -0.390625 20.92578125 C-0.38315937 22.39836355 -0.37746796 23.87095583 -0.37347412 25.34355164 C-0.35824282 29.20878806 -0.31898363 33.07341785 -0.2746582 36.93841553 C-0.23365082 40.88659459 -0.2154515 44.83487222 -0.1953125 48.78320312 C-0.15248605 56.52241119 -0.08426624 64.26112041 0 72 C-0.33 71.01 -0.66 70.02 -1 69 C-1.66 69 -2.32 69 -3 69 C-3 58.77 -3 48.54 -3 38 C-3.66 38 -4.32 38 -5 38 C-4.938125 39.11375 -4.938125 39.11375 -4.875 40.25 C-5.12599738 45.77194244 -8.09508037 48.30060246 -12 52 C-12.66 51.67 -13.32 51.34 -14 51 C-13.38511719 50.12988281 -13.38511719 50.12988281 -12.7578125 49.2421875 C-11.94957031 48.07042969 -11.94957031 48.07042969 -11.125 46.875 C-10.59132813 46.10929687 -10.05765625 45.34359375 -9.5078125 44.5546875 C-5.15313797 37.17656018 -5.12115749 29.34900383 -6 21 C-7.26426245 17.35728698 -8.92212397 14.23603644 -11 11 C-11.33 10.34 -11.66 9.68 -12 9 C-9.6875 9.4375 -9.6875 9.4375 -7 11 C-5.63924116 13.90755893 -4.78637041 16.89287788 -4 20 C-3.96261719 19.14277344 -3.92523437 18.28554688 -3.88671875 17.40234375 C-3.51561297 10.94801388 -3.06490552 5.73004075 0 0 Z " fill="#FEEBC9" transform="translate(522,25)"/>
<path d="M0 0 C0 0.66 0 1.32 0 2 C-5.57432514 3.66251802 -9.3067505 4.18609365 -15 3 C-14.505 4.485 -14.505 4.485 -14 6 C-35.78 5.505 -35.78 5.505 -58 5 C-58 3.68 -58 2.36 -58 1 C-50.73305188 0.86940636 -43.46610034 0.73900438 -36.19914436 0.60884857 C-32.82498125 0.54840911 -29.45081936 0.48790307 -26.07666016 0.42724609 C-22.19954725 0.35758033 -18.32243031 0.28814223 -14.4453125 0.21875 C-12.6233989 0.18593933 -12.6233989 0.18593933 -10.76467896 0.15246582 C-9.08316238 0.12243469 -9.08316238 0.12243469 -7.36767578 0.09179688 C-5.88208664 0.06514954 -5.88208664 0.06514954 -4.3664856 0.03796387 C-2.91112265 0.0146165 -1.45555021 0 0 0 Z " fill="#FCE7C5" transform="translate(180,51)"/>
<path d="M0 0 C10.23 0 20.46 0 31 0 C33.84299544 16.51691812 34.40945834 32.44569895 34.30418181 49.17812562 C34.28509856 52.73744016 34.2836402 56.29676707 34.28010559 59.85612488 C34.27087612 66.55974051 34.2463893 73.26320484 34.21605712 79.96675462 C34.18222509 87.61399114 34.16595563 95.26123588 34.15097082 102.90852892 C34.11982861 118.60577278 34.06725063 134.30286669 34 150 C33.67 150 33.34 150 33 150 C32.99576806 149.35247332 32.99153612 148.70494663 32.98717594 148.03779793 C32.88396998 132.29800407 32.77534744 116.55825838 32.66066074 100.81854439 C32.60533091 93.20700757 32.55184931 85.59546607 32.50268555 77.98388672 C32.45984076 71.35133835 32.41356204 64.71882446 32.36312145 58.08632934 C32.33652287 54.57294603 32.31166987 51.05956955 32.29092598 47.54614639 C32.26773147 43.62853688 32.23687194 39.71100863 32.20532227 35.79345703 C32.19668907 34.03695328 32.19668907 34.03695328 32.18788147 32.2449646 C32.17809265 31.18203186 32.16830383 30.11909912 32.15821838 29.0239563 C32.15176583 28.09663256 32.14531328 27.16930882 32.1386652 26.21388435 C32.14203977 23.958724 32.14203977 23.958724 31 22 C30.84824451 20.40737934 30.75099675 18.80935144 30.68359375 17.2109375 C30.62643188 15.93935791 30.62643188 15.93935791 30.56811523 14.64208984 C30.52501221 13.5639502 30.48190918 12.48581055 30.4375 11.375 C30.293125 7.95125 30.14875 4.5275 30 1 C20.1 1 10.2 1 0 1 C0 0.67 0 0.34 0 0 Z " fill="#FAD3A7" transform="translate(632,48)"/>
<path d="M0 0 C15.84 0 31.68 0 48 0 C47.67 1.32 47.34 2.64 47 4 C31.82 4 16.64 4 1 4 C0.67 2.68 0.34 1.36 0 0 Z " fill="#EEE9F6" transform="translate(263,232)"/>
<path d="M0 0 C-0.99 0.66 -1.98 1.32 -3 2 C-1.68 2.66 -0.36 3.32 1 4 C0.34 4.33 -0.32 4.66 -1 5 C-1.99 4.67 -2.98 4.34 -4 4 C-5.76340143 3.88427033 -7.53064769 3.82350925 -9.29760742 3.79467773 C-10.37850143 3.77473251 -11.45939545 3.75478729 -12.57304382 3.73423767 C-14.32159416 3.70916893 -14.32159416 3.70916893 -16.10546875 3.68359375 C-17.29981033 3.66281265 -18.49415192 3.64203156 -19.72468567 3.62062073 C-23.54556443 3.55515724 -27.36651276 3.4962549 -31.1875 3.4375 C-33.77539786 3.39431176 -36.36328865 3.35069737 -38.95117188 3.30664062 C-45.30070739 3.19947908 -51.65031234 3.0977066 -58 3 C-57.67 2.01 -57.34 1.02 -57 0 C-49.52537889 -0.16827952 -42.05061209 -0.32816002 -34.57568359 -0.48217773 C-32.03234785 -0.53557642 -29.48905186 -0.59090411 -26.94580078 -0.64819336 C-23.29207936 -0.73016331 -19.6382716 -0.80521541 -15.984375 -0.87890625 C-14.84570984 -0.90594131 -13.70704468 -0.93297638 -12.53387451 -0.96083069 C-10.94267792 -0.99097511 -10.94267792 -0.99097511 -9.31933594 -1.02172852 C-8.38667908 -1.04171402 -7.45402222 -1.06169952 -6.49310303 -1.08229065 C-4.16393489 -1.00541105 -2.22493227 -0.66531754 0 0 Z " fill="#FEF6D9" transform="translate(609,85)"/>
<path d="M0 0 C0.99 0 1.98 0 3 0 C3 18.48 3 36.96 3 56 C2.67 56 2.34 56 2 56 C1.92652344 55.04287109 1.92652344 55.04287109 1.8515625 54.06640625 C1.73941406 52.82697266 1.73941406 52.82697266 1.625 51.5625 C1.55539062 50.73878906 1.48578125 49.91507813 1.4140625 49.06640625 C1.27742188 48.38449219 1.14078125 47.70257813 1 47 C0.34 46.67 -0.32 46.34 -1 46 C-0.67 30.82 -0.34 15.64 0 0 Z " fill="#FEF4D9" transform="translate(286,52)"/>
<path d="M0 0 C0.62543701 0.15847412 1.25087402 0.31694824 1.89526367 0.48022461 C6.15624079 1.19357055 10.36199448 1.235664 14.67578125 1.31640625 C16.06351997 1.3475779 16.06351997 1.3475779 17.47929382 1.37937927 C20.42362307 1.4445656 23.36803865 1.50361558 26.3125 1.5625 C28.31315983 1.60571464 30.31381106 1.64932986 32.31445312 1.69335938 C37.20954779 1.8002152 42.10472897 1.90156919 47 2 C47 2.99 47 3.98 47 5 C18.785 5.495 18.785 5.495 -10 6 C-9.67 5.34 -9.34 4.68 -9 4 C-6.27734375 3.5859375 -6.27734375 3.5859375 -2.9375 3.375 C-1.83277344 3.30023438 -0.72804688 3.22546875 0.41015625 3.1484375 C1.26480469 3.09945312 2.11945313 3.05046875 3 3 C2.01 2.67 1.02 2.34 0 2 C0 1.34 0 0.68 0 0 Z " fill="#FFF1D6" transform="translate(110,83)"/>
<path d="M0 0 C0.33 0 0.66 0 1 0 C1 23.76 1 47.52 1 72 C0.67 72 0.34 72 0 72 C-0.33 68.7 -0.66 65.4 -1 62 C-1.33 62.99 -1.66 63.98 -2 65 C-2.66 65 -3.32 65 -4 65 C-3.75601219 64.16604706 -3.75601219 64.16604706 -3.50709534 63.31524658 C-2.95377179 60.78893574 -2.87994521 58.54169819 -2.88647461 55.95605469 C-2.88655014 54.95531921 -2.88662567 53.95458374 -2.88670349 52.92352295 C-2.89186478 51.85047913 -2.89702606 50.7774353 -2.90234375 49.671875 C-2.9037587 48.56773254 -2.90517365 47.46359009 -2.90663147 46.32598877 C-2.91222742 42.80063158 -2.92477921 39.27533798 -2.9375 35.75 C-2.94251552 33.35937592 -2.94707834 30.96875084 -2.95117188 28.578125 C-2.96219553 22.71872832 -2.97892967 16.8593687 -3 11 C-2.34 11.33 -1.68 11.66 -1 12 C-1.01160156 11.21753906 -1.02320313 10.43507813 -1.03515625 9.62890625 C-1.04417969 8.61699219 -1.05320312 7.60507812 -1.0625 6.5625 C-1.07410156 5.55316406 -1.08570313 4.54382812 -1.09765625 3.50390625 C-1 1 -1 1 0 0 Z " fill="#FEF9E1" transform="translate(420,33)"/>
<path d="M0 0 C2.97 0.33 5.94 0.66 9 1 C9 1.66 9 2.32 9 3 C29.46 3 49.92 3 71 3 C67.6490315 5.233979 66.51994604 5.25981863 62.6015625 5.29052734 C61.49611084 5.30328705 60.39065918 5.31604675 59.25170898 5.32919312 C58.05489502 5.33141876 56.85808105 5.33364441 55.625 5.3359375 C53.77273804 5.3459227 53.77273804 5.3459227 51.88305664 5.35610962 C49.26368704 5.36624797 46.64429155 5.37092628 44.02490234 5.37060547 C40.04363507 5.37036401 36.06311641 5.41119077 32.08203125 5.44921875 C29.53385794 5.45509206 26.98567938 5.45905801 24.4375 5.4609375 C23.25687988 5.47530853 22.07625977 5.48967957 20.85986328 5.50448608 C13.16664108 5.46261849 7.03551752 4.12439241 0 1 C0 0.67 0 0.34 0 0 Z " fill="#1C085B" transform="translate(247,270)"/>
<path d="M0 0 C22.11 0 44.22 0 67 0 C67 0.66 67 1.32 67 2 C59.90981599 3.12320286 52.98669118 3.07328128 45.8203125 2.94921875 C44.57120087 2.9303511 43.32208923 2.91148346 42.03512573 2.89204407 C38.73806227 2.83968906 35.44116217 2.78137449 32.14422607 2.72167969 C29.44470412 2.67598455 26.74508077 2.64176407 24.0453968 2.60722637 C20.82438356 2.5634716 17.60362701 2.50552816 14.3828125 2.44921875 C12.56573288 2.42718636 12.56573288 2.42718636 10.71194458 2.40470886 C9.59673431 2.38161148 8.48152405 2.3585141 7.33251953 2.3347168 C6.34849152 2.31837692 5.3644635 2.30203705 4.35061646 2.28520203 C2 2 2 2 0 0 Z " fill="#1A0758" transform="translate(245,149)"/>
<path d="M0 0 C1.78688988 -0.01429802 1.78688988 -0.01429802 3.60987854 -0.02888489 C4.89224899 -0.02797348 6.17461945 -0.02706207 7.49584961 -0.02612305 C9.47433144 -0.03255074 9.47433144 -0.03255074 11.49278259 -0.03910828 C14.28103664 -0.04655985 17.06916402 -0.04628622 19.85742188 -0.04101562 C23.43096934 -0.03521094 27.00400019 -0.05218047 30.5774622 -0.0753603 C33.98778007 -0.09362452 37.39798303 -0.08991291 40.80834961 -0.08862305 C42.09274429 -0.09783279 43.37713898 -0.10704254 44.70045471 -0.11653137 C46.48261635 -0.10718819 46.48261635 -0.10718819 48.30078125 -0.09765625 C49.34794815 -0.09828568 50.39511505 -0.0989151 51.47401428 -0.0995636 C54.41621944 0.32201856 55.30072436 0.9592872 57.08569336 3.2746582 C56.30530701 3.27243759 55.52492065 3.27021698 54.72088623 3.26792908 C47.36406049 3.24788642 40.007248 3.23266377 32.65040207 3.22284603 C28.86824122 3.21762896 25.08610294 3.21055263 21.30395508 3.19921875 C17.65352405 3.18834812 14.00311473 3.1823725 10.35266876 3.17978096 C8.96042794 3.17793425 7.5681883 3.1743281 6.17595673 3.16892815 C4.2249823 3.16166244 2.273986 3.16124967 0.32299805 3.16113281 C-0.78730774 3.1589122 -1.89761353 3.15669159 -3.04156494 3.15440369 C-5.51638529 3.258001 -7.55774288 3.55326706 -9.91430664 4.2746582 C-9.91430664 3.6146582 -9.91430664 2.9546582 -9.91430664 2.2746582 C-6.53248287 0.23597999 -3.91849954 0.01722777 0 0 Z " fill="#FEF4D7" transform="translate(437.914306640625,20.725341796875)"/>
<path d="M0 0 C17.16 0 34.32 0 52 0 C51.67 1.32 51.34 2.64 51 4 C39.45 4 27.9 4 16 4 C16 3.67 16 3.34 16 3 C23.92 2.505 23.92 2.505 32 2 C21.44 1.67 10.88 1.34 0 1 C0 0.67 0 0.34 0 0 Z " fill="#FBDCB5" transform="translate(336,52)"/>
<path d="M0 0 C1.69439089 3.38878178 0.99513621 7.22807535 0.87890625 10.9453125 C0.85529526 11.8303244 0.83168427 12.7153363 0.80735779 13.62716675 C0.73065076 16.45993817 0.64665678 19.29244104 0.5625 22.125 C0.50928636 24.04295551 0.45654592 25.96092422 0.40429688 27.87890625 C0.27502609 32.58610827 0.1392187 37.29308212 0 42 C-0.99 42 -1.98 42 -3 42 C-3 28.47 -3 14.94 -3 1 C-2.01 0.67 -1.02 0.34 0 0 Z " fill="#FFF6DA" transform="translate(256,46)"/>
<path d="M0 0 C1.01459144 3.33459342 1.08973373 6.30249842 1.02172852 9.77832031 C1.00163223 10.9392218 0.98153595 12.10012329 0.96083069 13.29620361 C0.93379562 14.54423767 0.90676056 15.79227173 0.87890625 17.078125 C0.85529526 18.35983582 0.83168427 19.64154663 0.80735779 20.96209717 C0.74466779 24.36192077 0.67555893 27.76158454 0.60510254 31.16125488 C0.53428239 34.63347118 0.46954744 38.10580037 0.40429688 41.578125 C0.27547917 48.38553935 0.13987847 55.19280419 0 62 C-0.33 62 -0.66 62 -1 62 C-1.33 57.38 -1.66 52.76 -2 48 C-2.495 50.475 -2.495 50.475 -3 53 C-3.66 53 -4.32 53 -5 53 C-4.83886719 52.14277344 -4.67773438 51.28554687 -4.51171875 50.40234375 C-3.32617355 42.51982566 -3.20019031 34.52448855 -6 27 C-5.34 27 -4.68 27 -4 27 C-4 27.66 -4 28.32 -4 29 C-3.34 28.67 -2.68 28.34 -2 28 C-1.96241577 26.78098999 -1.96241577 26.78098999 -1.92407227 25.53735352 C-1.80850882 21.87889248 -1.68560416 18.22071472 -1.5625 14.5625 C-1.52318359 13.28310547 -1.48386719 12.00371094 -1.44335938 10.68554688 C-1.40146484 9.47060547 -1.35957031 8.25566406 -1.31640625 7.00390625 C-1.26141968 5.31503296 -1.26141968 5.31503296 -1.20532227 3.59204102 C-1 1 -1 1 0 0 Z " fill="#FEF9E3" transform="translate(190,46)"/>
<path d="M0 0 C11.88 0 23.76 0 36 0 C36 0.99 36 1.98 36 3 C24.12 3 12.24 3 0 3 C0 2.01 0 1.02 0 0 Z " fill="#FFF2D1" transform="translate(451,53)"/>
<path d="M0 0 C11.55 0 23.1 0 35 0 C35 0.99 35 1.98 35 3 C23.12 3 11.24 3 -1 3 C-0.67 2.01 -0.34 1.02 0 0 Z " fill="#FFF0D1" transform="translate(353,85)"/>
<path d="M0 0 C0.33 0 0.66 0 1 0 C1 3.3 1 6.6 1 10 C0.34 10 -0.32 10 -1 10 C-1 11.32 -1 12.64 -1 14 C-7.74824564 19.19026744 -14.70297473 18.51526642 -22.90234375 18.390625 C-24.34964716 18.38315469 -25.79696077 18.37746549 -27.24427795 18.37347412 C-31.03386894 18.35827961 -34.82283624 18.31905289 -38.61218262 18.2746582 C-42.48681199 18.23357074 -46.36154319 18.21543451 -50.23632812 18.1953125 C-57.82450155 18.15255114 -65.41216303 18.0843768 -73 18 C-73.33 17.34 -73.66 16.68 -74 16 C-72.81395927 16.00999275 -72.81395927 16.00999275 -71.60395813 16.02018738 C-64.14444907 16.08035308 -56.68505803 16.126002 -49.22536945 16.15543652 C-45.39045657 16.17107795 -41.55574455 16.19228805 -37.72094727 16.22631836 C-34.01862304 16.25896667 -30.31649175 16.27686447 -26.61403465 16.28463173 C-25.20305533 16.29016547 -23.79208631 16.30097164 -22.38118935 16.31719017 C-20.40177373 16.33903449 -18.42216307 16.340226 -16.44262695 16.34057617 C-14.75385185 16.35056892 -14.75385185 16.35056892 -13.03096008 16.36076355 C-8.88188803 15.86691542 -6.28898686 14.24124661 -3.3125 11.375 C-1.33657798 7.79952206 -0.72529824 3.99340681 0 0 Z " fill="#FFF8DF" transform="translate(616,101)"/>
<path d="M0 0 C0.33 0 0.66 0 1 0 C1.57850227 9.41099226 2.10283833 18.81974832 2.1875 28.25 C2.20039063 28.92732178 2.21328125 29.60464355 2.2265625 30.30249023 C2.23576738 34.92851853 1.42503407 38.65167468 0 43 C-0.33 43 -0.66 43 -1 43 C-1.02473355 37.51904631 -1.04287596 32.03812517 -1.05493164 26.55712891 C-1.05995792 24.69286534 -1.06677992 22.8286057 -1.07543945 20.96435547 C-1.08757963 18.28351876 -1.09324539 15.6027342 -1.09765625 12.921875 C-1.10281754 12.08944275 -1.10797882 11.2570105 -1.11329651 10.39935303 C-1.11340981 9.22859222 -1.11340981 9.22859222 -1.11352539 8.03417969 C-1.115746 7.35023132 -1.11796661 6.66628296 -1.12025452 5.96160889 C-0.99213985 3.87178404 -0.56725751 2.01152256 0 0 Z " fill="#F7AB5A" transform="translate(257,44)"/>
<path d="M0 0 C0.54245361 0.21366211 1.08490723 0.42732422 1.64379883 0.64746094 C10.88304372 3.73953665 20.13999345 3.38491233 29.76196289 3.28125 C32.69104777 3.2499621 35.61959217 3.24025356 38.54882812 3.234375 C40.43229816 3.22520731 42.31576279 3.21483228 44.19921875 3.203125 C45.49638069 3.19675018 45.49638069 3.19675018 46.81974792 3.19024658 C51.95889178 3.13038293 56.91190634 2.73195207 62 2 C60.27811566 4.16469936 59.39794268 4.93622802 56.62283325 5.38095093 C55.68527191 5.38333771 54.74771057 5.38572449 53.78173828 5.38818359 C52.18460495 5.40236832 52.18460495 5.40236832 50.5552063 5.4168396 C49.40519135 5.41076691 48.25517639 5.40469421 47.0703125 5.3984375 C45.88782928 5.40130768 44.70534607 5.40417786 43.48703003 5.40713501 C40.98369875 5.40917807 38.48035159 5.40363139 35.97705078 5.39111328 C32.1470965 5.37509243 28.31820217 5.39094013 24.48828125 5.41015625 C22.05728934 5.4081733 19.62629808 5.40432857 17.1953125 5.3984375 C16.04934601 5.40451019 14.90337952 5.41058289 13.72268677 5.4168396 C12.11609695 5.40265488 12.11609695 5.40265488 10.47705078 5.38818359 C9.53789825 5.38579681 8.59874573 5.38341003 7.63113403 5.38095093 C4.47236676 4.92360618 2.55147835 3.89288565 0 2 C0 1.34 0 0.68 0 0 Z " fill="#FEF6DB" transform="translate(338,114)"/>
<path d="M0 0 C0.99 0.33 1.98 0.66 3 1 C3 1.66 3 2.32 3 3 C3.66 3 4.32 3 5 3 C5.433125 3.45375 5.86625 3.9075 6.3125 4.375 C8.35628817 6.34309231 10.34530324 7.06726871 13 8 C13 8.66 13 9.32 13 10 C16.465 9.505 16.465 9.505 20 9 C20 9.99 20 10.98 20 12 C28.91 12 37.82 12 47 12 C47 11.34 47 10.68 47 10 C48.65 10 50.3 10 52 10 C47.20806984 14.45907486 41.26355281 13.55805133 35.11279297 13.5559082 C33.03288573 13.5623974 30.95795305 13.61666795 28.87890625 13.67382812 C19.14344493 13.79689323 10.5510758 12.08578669 3.15917969 5.31347656 C0 1.66826923 0 1.66826923 0 0 Z " fill="#EDA65A" transform="translate(460,105)"/>
<path d="M0 0 C1.32 0 2.64 0 4 0 C4.06058594 0.73605469 4.12117188 1.47210938 4.18359375 2.23046875 C4.26738281 3.20628906 4.35117187 4.18210937 4.4375 5.1875 C4.51871094 6.15042969 4.59992188 7.11335938 4.68359375 8.10546875 C4.97666151 10.78649602 5.42703754 13.3662986 6 16 C5.34 16 4.68 16 4 16 C3.67 14.68 3.34 13.36 3 12 C2.94392578 13.15628906 2.94392578 13.15628906 2.88671875 14.3359375 C2.78810547 15.84027344 2.78810547 15.84027344 2.6875 17.375 C2.62949219 18.37273437 2.57148438 19.37046875 2.51171875 20.3984375 C2.25841797 21.68621094 2.25841797 21.68621094 2 23 C1.01 23.66 0.02 24.32 -1 25 C-0.67 16.75 -0.34 8.5 0 0 Z " fill="#FEECCA" transform="translate(451,85)"/>
<path d="M0 0 C9.9 0 19.8 0 30 0 C30.33 0.66 30.66 1.32 31 2 C29.2984375 2.07347656 29.2984375 2.07347656 27.5625 2.1484375 C26.04164602 2.2235414 24.52081375 2.29908584 23 2.375 C22.25621094 2.4059375 21.51242187 2.436875 20.74609375 2.46875 C15.58582393 2.73798147 10.98197156 3.62566302 6 5 C4.33605325 5.34665557 2.67056149 5.68676972 1 6 C1 5.34 1 4.68 1 4 C2.32 4 3.64 4 5 4 C5 3.34 5 2.68 5 2 C3.35 1.67 1.7 1.34 0 1 C0 0.67 0 0.34 0 0 Z " fill="#FEF9E5" transform="translate(338,53)"/>
<path d="M0 0 C-3.81846713 2.65586144 -6.35256292 3.37032615 -10.98364258 3.34057617 C-12.16448929 3.34034958 -13.345336 3.34012299 -14.56196594 3.33988953 C-16.45908577 3.31666374 -16.45908577 3.31666374 -18.39453125 3.29296875 C-19.69702316 3.28872391 -20.99951508 3.28447906 -22.34147644 3.28010559 C-25.79232267 3.26869012 -29.24278583 3.23925217 -32.69348145 3.20599365 C-36.21942972 3.17522108 -39.74544032 3.16158497 -43.27148438 3.14648438 C-50.18114624 3.11437868 -57.09055469 3.06322281 -64 3 C-64 2.67 -64 2.34 -64 2 C-63.00521133 1.98786972 -63.00521133 1.98786972 -61.99032593 1.97549438 C-55.07945787 1.88934793 -48.16887331 1.7898396 -41.25830078 1.68261719 C-38.68022426 1.64436583 -36.10209508 1.60950629 -33.52392578 1.578125 C-29.81523838 1.53239167 -26.10691237 1.47440959 -22.3984375 1.4140625 C-21.24822113 1.40251129 -20.09800476 1.39096008 -18.91293335 1.37905884 C-12.95958224 1.26959756 -5.31544766 -2.04440295 0 0 Z " fill="#EA9E53" transform="translate(611,115)"/>
<path d="M0 0 C0.33 0 0.66 0 1 0 C1.09293429 7.70200834 1.16388328 15.40395808 1.20724869 23.10640049 C1.22806871 26.68352209 1.25628224 30.26025834 1.30175781 33.8371582 C1.34541779 37.29312329 1.36917906 40.74871917 1.37950897 44.20493889 C1.39042916 46.15640832 1.42162308 48.1077305 1.45318604 50.05897522 C1.45491405 56.92653087 1.17103828 61.43260201 -3 67 C-3.66 67 -4.32 67 -5 67 C-5 66.34 -5 65.68 -5 65 C-4.34 65 -3.68 65 -3 65 C-2.855625 64.38125 -2.71125 63.7625 -2.5625 63.125 C-2 61 -2 61 -1 59 C-0.88017743 57.12155092 -0.82270839 55.23899169 -0.79467773 53.35693359 C-0.77473251 52.17586029 -0.75478729 50.99478699 -0.73423767 49.77792358 C-0.71752518 48.49769318 -0.70081268 47.21746277 -0.68359375 45.8984375 C-0.66281265 44.59170074 -0.64203156 43.28496399 -0.62062073 41.93862915 C-0.56540706 38.463311 -0.51599475 34.98793347 -0.46777344 31.51251221 C-0.41755323 27.966621 -0.36186988 24.4208161 -0.30664062 20.875 C-0.19906772 13.9167415 -0.09762083 6.95840504 0 0 Z " fill="#E39F58" transform="translate(318,48)"/>
<path d="M0 0 C0 0.99 0 1.98 0 3 C-4.59421474 7.52174434 -8.966847 7.4548712 -15.21786499 7.45318604 C-17.00881088 7.42221832 -17.00881088 7.42221832 -18.8359375 7.390625 C-20.07042633 7.38496521 -21.30491516 7.37930542 -22.57681274 7.37347412 C-26.50994042 7.35112875 -30.44214881 7.30093247 -34.375 7.25 C-37.0455596 7.22767659 -39.71611055 7.21168254 -42.38671875 7.1953125 C-48.92479149 7.15126972 -55.46233006 7.08437431 -62 7 C-62 6.67 -62 6.34 -62 6 C-43.85 6 -25.7 6 -7 6 C-7 5.34 -7 4.68 -7 4 C-5.68 4 -4.36 4 -3 4 C-3 3.01 -3 2.02 -3 1 C-2.01 0.67 -1.02 0.34 0 0 Z " fill="#EE9D48" transform="translate(184,45)"/>
<path d="M0 0 C0.66 0 1.32 0 2 0 C2 0.99 2 1.98 2 3 C1.34 3 0.68 3 0 3 C0.00222061 3.68238235 0.00444122 4.36476471 0.00672913 5.06782532 C0.02881623 12.15645831 0.04392099 19.24508156 0.05493164 26.33374023 C0.059967 28.98087969 0.06679563 31.62801635 0.07543945 34.27514648 C0.08753979 38.07536507 0.09323622 41.87554695 0.09765625 45.67578125 C0.10281754 46.86335526 0.10797882 48.05092926 0.11329651 49.27449036 C0.11337204 50.37540512 0.11344757 51.47631989 0.11352539 52.6105957 C0.115746 53.58100296 0.11796661 54.55141022 0.12025452 55.55122375 C0 58 0 58 -1 61 C-3.0625 61.6875 -3.0625 61.6875 -5 62 C-4.5148291 61.26950439 -4.0296582 60.53900879 -3.52978516 59.78637695 C-0.99790109 54.68326611 -1.53893004 48.98537934 -1.5234375 43.41796875 C-1.50785797 42.20804764 -1.49227844 40.99812653 -1.47622681 39.75154114 C-1.42877863 35.89686694 -1.40095389 32.04237378 -1.375 28.1875 C-1.33855425 24.31489968 -1.29801531 20.44240303 -1.25234985 16.56990051 C-1.22504086 14.16166754 -1.20372573 11.75335811 -1.18881226 9.34501648 C-1.17341904 7.72246696 -1.17341904 7.72246696 -1.15771484 6.06713867 C-1.14797134 4.6320118 -1.14797134 4.6320118 -1.13803101 3.16789246 C-1 1 -1 1 0 0 Z " fill="#FEEFCD" transform="translate(221,52)"/>
<path d="M0 0 C0.66 0 1.32 0 2 0 C2.33 0.99 2.66 1.98 3 3 C5.50447516 4.21869929 5.50447516 4.21869929 8 5 C8 5.66 8 6.32 8 7 C25.16 7 42.32 7 60 7 C60 7.33 60 7.66 60 8 C52.40123904 8.10143412 44.80265273 8.17148021 37.20336914 8.21972656 C34.61834183 8.23983972 32.03336 8.26713386 29.44848633 8.30175781 C25.73247045 8.35028654 22.01705622 8.37297235 18.30078125 8.390625 C17.14540359 8.41127014 15.99002594 8.43191528 14.79963684 8.45318604 C6.77799418 8.4554285 6.77799418 8.4554285 2.78198242 6.11621094 C0.99771505 3.99728649 0.2929125 2.73384998 0 0 Z " fill="#ED9E47" transform="translate(327,44)"/>
<path d="M0 0 C5.78513886 5.30304395 9.72086587 10.97558562 10.16796875 19.0234375 C10.17441406 20.12945312 10.18085938 21.23546875 10.1875 22.375 C10.20167969 23.47585937 10.21585938 24.57671875 10.23046875 25.7109375 C9.99195913 29.11475276 9.21372666 31.82416186 8 35 C7.02443436 32.07330309 6.9393659 30.55938679 7.12109375 27.55078125 C7.16943359 26.70322266 7.21777344 25.85566406 7.26757812 24.98242188 C7.32365234 24.10134766 7.37972656 23.22027344 7.4375 22.3125 C7.48970703 21.41982422 7.54191406 20.52714844 7.59570312 19.60742188 C7.7252818 17.4045844 7.86024246 15.20221127 8 13 C7.34 13 6.68 13 6 13 C6 12.01 6 11.02 6 10 C5.34 10 4.68 10 4 10 C3.67 9.34 3.34 8.68 3 8 C2.01 8.495 2.01 8.495 1 9 C0.67 6.03 0.34 3.06 0 0 Z " fill="#F1A554" transform="translate(177,64)"/>
<path d="M0 0 C3.74961378 3.50770321 4.87052847 5.47223593 5.3125 10.6875 C5.26106001 15.31709939 3.76982015 19.28529137 1 23 C0.01 23.33 -0.98 23.66 -2 24 C-2 23.34 -2 22.68 -2 22 C-1.34 22 -0.68 22 0 22 C1.27831175 14.96928537 2.28289063 6.84867189 0 0 Z " fill="#F59F42" transform="translate(611,59)"/>
<path d="M0 0 C0.66 0 1.32 0 2 0 C1.67 1.65 1.34 3.3 1 5 C-0.80803101 5.03758423 -0.80803101 5.03758423 -2.65258789 5.07592773 C-7.14601354 5.17045665 -11.63930091 5.27056439 -16.13256836 5.37231445 C-18.07329054 5.41549192 -20.01404652 5.45717831 -21.95483398 5.49731445 C-24.75254477 5.55543566 -27.55008814 5.61900716 -30.34765625 5.68359375 C-31.2083522 5.70030624 -32.06904816 5.71701874 -32.95582581 5.73423767 C-37.7210352 5.85009844 -42.29641714 6.22023199 -47 7 C-42.17270283 3.78180189 -38.52161233 3.79078106 -32.8359375 3.68359375 C-31.92872955 3.66281265 -31.02152161 3.64203156 -30.08682251 3.62062073 C-27.1829602 3.55512865 -24.27900595 3.49624186 -21.375 3.4375 C-19.40884458 3.39431445 -17.44269853 3.35070015 -15.4765625 3.30664062 C-10.65113638 3.19944761 -5.8256176 3.09817919 -1 3 C-0.67 2.01 -0.34 1.02 0 0 Z " fill="#EFA14E" transform="translate(388,52)"/>
<path d="M0 0 C0 0.66 0 1.32 0 2 C-1.32 2.33 -2.64 2.66 -4 3 C1.28 3.33 6.56 3.66 12 4 C12.33 4.99 12.66 5.98 13 7 C12.18450684 6.76228882 12.18450684 6.76228882 11.35253906 6.51977539 C8.65597437 5.92399019 6.11930105 5.78635695 3.359375 5.68359375 C2.28945313 5.64169922 1.21953125 5.59980469 0.1171875 5.55664062 C-0.99398438 5.51732422 -2.10515625 5.47800781 -3.25 5.4375 C-4.37664062 5.39431641 -5.50328125 5.35113281 -6.6640625 5.30664062 C-9.44258954 5.20067985 -12.22120391 5.09860858 -15 5 C-14.67 4.01 -14.34 3.02 -14 2 C-12.04200486 1.66468585 -10.08359226 1.33180857 -8.125 1 C-6.48917969 0.7215625 -6.48917969 0.7215625 -4.8203125 0.4375 C-2 0 -2 0 0 0 Z " fill="#FEF5DA" transform="translate(498,83)"/>
<path d="M0 0 C3 1 3 1 4 3 C4 6.63 4 10.26 4 14 C13.24 14 22.48 14 32 14 C32 14.33 32 14.66 32 15 C22.76 15 13.52 15 4 15 C3.34 16.32 2.68 17.64 2 19 C1.67 18.34 1.34 17.68 1 17 C1.33 16.01 1.66 15.02 2 14 C2.25804415 8.75310227 1.97881639 4.94704099 0 0 Z " fill="#F8EEDB" transform="translate(613,60)"/>
<path d="M0 0 C0.99 0.495 0.99 0.495 2 1 C2.02505615 1.89307861 2.0501123 2.78615723 2.07592773 3.70629883 C2.17110186 7.02185454 2.27033283 10.33723729 2.37231445 13.65258789 C2.41560793 15.08711003 2.45728699 16.52168184 2.49731445 17.95629883 C2.55515267 20.0191952 2.61880753 22.08184283 2.68359375 24.14453125 C2.72025146 25.38565674 2.75690918 26.62678223 2.79467773 27.90551758 C2.87144121 31.03553347 2.87144121 31.03553347 4 34 C3.54451823 36.73812607 2.74685247 39.3201176 2 42 C1.67 42 1.34 42 1 42 C0.505 21.21 0.505 21.21 0 0 Z " fill="#FFFBEA" transform="translate(319,48)"/>
<path d="M0 0 C0.33 0 0.66 0 1 0 C1.04970314 5.40770146 1.08586241 10.8152678 1.10986328 16.22314453 C1.11987648 18.06008218 1.13349102 19.89700407 1.15087891 21.73388672 C1.17533422 24.38513089 1.18653013 27.036163 1.1953125 29.6875 C1.20563507 30.49928711 1.21595764 31.31107422 1.22659302 32.14746094 C1.2276147 37.42422221 0.4661764 41.92672526 -1 47 C-1.33 47 -1.66 47 -2 47 C-2.02689216 45.52093108 -2.04634621 44.04172517 -2.0625 42.5625 C-2.07990234 41.32693359 -2.07990234 41.32693359 -2.09765625 40.06640625 C-2 38 -2 38 -1 37 C-0.83989519 34.26298822 -0.74053172 31.5483241 -0.68359375 28.80859375 C-0.66281265 27.98875504 -0.64203156 27.16891632 -0.62062073 26.32423401 C-0.55503506 23.69541099 -0.49619874 21.06648496 -0.4375 18.4375 C-0.39432333 16.65949439 -0.35070933 14.88149935 -0.30664062 13.10351562 C-0.19934457 8.73578366 -0.09810296 4.36794773 0 0 Z " fill="#EDA14E" transform="translate(285,53)"/>
<path d="M0 0 C0.66 0 1.32 0 2 0 C4.49430403 3.74145605 4.40070789 6.67235483 4 11 C3.411438 13.354248 2.74259349 15.68970915 2 18 C1.30560884 20.66026882 0.65582512 23.32985486 0 26 C-0.66 26 -1.32 26 -2 26 C-1.55718688 21.86707758 -1.04356535 17.94600633 0.0625 13.9375 C1.32988429 9.13278939 1.58651974 4.75955923 0 0 Z " fill="#FEF0D3" transform="translate(907,66)"/>
<path d="M0 0 C0.99 0.33 1.98 0.66 3 1 C-1.5003933 6.68134758 -5.44562156 11.31205578 -12.875 12.75 C-14.421875 12.87375 -14.421875 12.87375 -16 13 C-14 11 -14 11 -11 9 C-9.68 9 -8.36 9 -7 9 C-7 8.34 -7 7.68 -7 7 C-6.34 7 -5.68 7 -5 7 C-5 6.01 -5 5.02 -5 4 C-4.34 4 -3.68 4 -3 4 C-2.67 3.34 -2.34 2.68 -2 2 C-1.34 2.33 -0.68 2.66 0 3 C0 2.01 0 1.02 0 0 Z " fill="#F2A250" transform="translate(409,104)"/>
<path d="M0 0 C3.25625077 0.88006778 4.74554762 1.66657964 6.8125 4.375 C8.51957922 9.58608394 8.23748138 14.56431498 8 20 C7.01 20.33 6.02 20.66 5 21 C5.03480469 19.57107422 5.03480469 19.57107422 5.0703125 18.11328125 C5.08835937 16.85902344 5.10640625 15.60476562 5.125 14.3125 C5.14820313 13.07113281 5.17140625 11.82976562 5.1953125 10.55078125 C5.00829894 7.15087476 4.65693882 4.95725173 3 2 C2.01 1.67 1.02 1.34 0 1 C0 0.67 0 0.34 0 0 Z " fill="#FEEDD1" transform="translate(511,90)"/>
<path d="M0 0 C2.97 0.33 5.94 0.66 9 1 C9 1.66 9 2.32 9 3 C14.28 3 19.56 3 25 3 C25 3.33 25 3.66 25 4 C15.33108582 5.93378284 9.00786351 4.70912027 0 1 C0 0.67 0 0.34 0 0 Z " fill="#2F1C6D" transform="translate(247,270)"/>
<path d="M0 0 C0.99 0.33 1.98 0.66 3 1 C2.505 1.66 2.01 2.32 1.5 3 C-1.0073854 8.01477079 -0.47328745 12.764 1 18 C1.33 18.99 1.66 19.98 2 21 C1.01 21 0.02 21 -1 21 C-3.15822383 14.52532852 -4.29709538 9.02655589 -1.5 2.5 C-1.005 1.675 -0.51 0.85 0 0 Z " fill="#FEF3DC" transform="translate(326,27)"/>
<path d="M0 0 C5.19179398 2.17330911 7.94325152 4.36856292 11 9 C10.8125 11.875 10.8125 11.875 10 14 C9.01 14 8.02 14 7 14 C7 13.01 7 12.02 7 11 C7.66 10.67 8.32 10.34 9 10 C8.34 9.67 7.68 9.34 7 9 C7 8.01 7 7.02 7 6 C6.01 6 5.02 6 4 6 C4 5.01 4 4.02 4 3 C2.68 2.67 1.36 2.34 0 2 C0 1.34 0 0.68 0 0 Z " fill="#26126B" transform="translate(514,150)"/>
<path d="M0 0 C0.96229898 3.06605982 0.98765741 5.13153871 0.29296875 8.2578125 C0.11830078 9.04800781 -0.05636719 9.83820313 -0.23632812 10.65234375 C-0.5215332 11.87630859 -0.5215332 11.87630859 -0.8125 13.125 C-0.99103516 13.94871094 -1.16957031 14.77242187 -1.35351562 15.62109375 C-2.74069114 21.74069114 -2.74069114 21.74069114 -5 24 C-4.85966889 22.02043559 -4.7125877 20.04134859 -4.5625 18.0625 C-4.48128906 16.96035156 -4.40007813 15.85820312 -4.31640625 14.72265625 C-4 12 -4 12 -3 11 C-2.77471076 9.00458104 -2.55238905 7.00840136 -2.37890625 5.0078125 C-2 3 -2 3 0 0 Z " fill="#F1A14E" transform="translate(895,126)"/>
<path d="M0 0 C3.58790575 0.29899215 4.78166776 0.76986601 7.3125 3.4375 C9 6 9 6 9 8 C9.66 8 10.32 8 11 8 C13.15305957 11.85756507 14.39253254 14.55129785 14 19 C12.84516484 17.26774726 11.72409613 15.50968891 10.703125 13.6953125 C7.6738993 8.33716596 4.94865993 4.65258233 0 1 C0 0.67 0 0.34 0 0 Z " fill="#FEF4DF" transform="translate(239,27)"/>
<path d="M0 0 C0.33 0 0.66 0 1 0 C0.65508492 7.13617399 0.27827851 13.56486069 -3 20 C-5.10546875 20.70703125 -5.10546875 20.70703125 -7 21 C-6.55011719 20.34644531 -6.10023438 19.69289062 -5.63671875 19.01953125 C-3.63495294 15.3265361 -2.74733526 11.75785275 -1.8125 7.6875 C-1.63525391 6.94693359 -1.45800781 6.20636719 -1.27539062 5.44335938 C-0.84269047 3.63069658 -0.42029284 1.81557973 0 0 Z " fill="#FEF1D5" transform="translate(883,181)"/>
<path d="M0 0 C0.33 0 0.66 0 1 0 C1.02689216 1.47906892 1.04634621 2.95827483 1.0625 4.4375 C1.07410156 5.26121094 1.08570313 6.08492187 1.09765625 6.93359375 C1 9 1 9 0 10 C-0.19316713 12.02825491 -0.38325788 14.05723921 -0.5234375 16.08984375 C-1 18 -1 18 -4 20 C-3.34034961 13.13963599 -1.7637236 6.65556077 0 0 Z " fill="#FEEDCF" transform="translate(896,126)"/>
<path d="M0 0 C3 1 3 1 4.66796875 3.17578125 C6.19884845 6.42160537 6.370174 8.61614827 6.3125 12.1875 C6.30863281 13.23292969 6.30476562 14.27835938 6.30078125 15.35546875 C6 18 6 18 4 20 C4 15.38 4 10.76 4 6 C3.01 5.67 2.02 5.34 1 5 C0.67 3.35 0.34 1.7 0 0 Z " fill="#EFA24F" transform="translate(511,91)"/>
<path d="M0 0 C2.3125 0.4375 2.3125 0.4375 5 2 C9.17566149 8.8670058 8.29596916 17.29384002 8 25 C7.67 25 7.34 25 7 25 C6.98582031 24.17757812 6.97164062 23.35515625 6.95703125 22.5078125 C6.61484726 14.4988574 5.11676471 8.85663852 1 2 C0.67 1.34 0.34 0.68 0 0 Z " fill="#FEF1D2" transform="translate(510,34)"/>
<path d="M0 0 C0.33 0.66 0.66 1.32 1 2 C-1.49872182 5.8373228 -4.0843836 9.45960866 -7 13 C-7.66 11.68 -8.32 10.36 -9 9 C-6.03 6.03 -3.06 3.06 0 0 Z " fill="#321F74" transform="translate(174,170)"/>
<path d="M0 0 C1.11475495 3.34426486 0.87077674 4.34848905 0.00390625 7.66796875 C-0.22490234 8.56064453 -0.45371094 9.45332031 -0.68945312 10.37304688 C-0.93630859 11.30181641 -1.18316406 12.23058594 -1.4375 13.1875 C-1.68048828 14.12787109 -1.92347656 15.06824219 -2.17382812 16.03710938 C-2.77520947 18.36009221 -3.38418746 20.68080883 -4 23 C-4.33 23 -4.66 23 -5 23 C-5.09765625 16.84765625 -5.09765625 16.84765625 -5 15 C-4.67 14.67 -4.34 14.34 -4 14 C-3.87625 12.96875 -3.7525 11.9375 -3.625 10.875 C-2.95526108 6.7226187 -1.77449415 3.78044406 0 0 Z " fill="#EDA24F" transform="translate(904,90)"/>
<path d="M0 0 C0.33 0.66 0.66 1.32 1 2 C-0.375 4 -0.375 4 -2 6 C-2.66 6 -3.32 6 -4 6 C-4 6.66 -4 7.32 -4 8 C-4.680625 8.6496875 -4.680625 8.6496875 -5.375 9.3125 C-7.34309231 11.35628817 -8.06726871 13.34530324 -9 16 C-9.66 16 -10.32 16 -11 16 C-9.22505189 9.38428431 -5.88777119 3.7071152 0 0 Z " fill="#F1A453" transform="translate(269,28)"/>
<path d="M0 0 C0.33 0 0.66 0 1 0 C1 3.3 1 6.6 1 10 C0.34 10 -0.32 10 -1 10 C-1 11.32 -1 12.64 -1 14 C-3.25 15.8125 -3.25 15.8125 -6 17 C-8.3125 16.6875 -8.3125 16.6875 -10 16 C-8.8553125 15.38125 -8.8553125 15.38125 -7.6875 14.75 C-3.23535134 11.85092646 -1.96275539 9.34627041 -0.8125 4.25 C-0.53183165 2.83524899 -0.25774371 1.41910652 0 0 Z " fill="#FEF0D4" transform="translate(616,101)"/>
<path d="M0 0 C0.33 0 0.66 0 1 0 C1 2.97 1 5.94 1 9 C0.34 9 -0.32 9 -1 9 C-0.96519531 9.62648438 -0.93039062 10.25296875 -0.89453125 10.8984375 C-0.85392578 12.12433594 -0.85392578 12.12433594 -0.8125 13.375 C-0.77769531 14.18710938 -0.74289062 14.99921875 -0.70703125 15.8359375 C-0.80371094 16.55007812 -0.90039062 17.26421875 -1 18 C-1.99 18.66 -2.98 19.32 -4 20 C-3.34034961 13.13963599 -1.7637236 6.65556077 0 0 Z " fill="#FDEFD3" transform="translate(904,93)"/>
<path d="M0 0 C0 0.66 0 1.32 0 2 C0.99 2.33 1.98 2.66 3 3 C-4.28571429 6.57142857 -4.28571429 6.57142857 -9 5 C-9 4.67 -9 4.34 -9 4 C-7.35 4 -5.7 4 -4 4 C-4 3.01 -4 2.02 -4 1 C-2 0 -2 0 0 0 Z " fill="#2B176F" transform="translate(454,225)"/>
<path d="M0 0 C0.33 0 0.66 0 1 0 C1.296875 7.71875 1.296875 7.71875 -1 11 C-2.62746694 12.70496537 -4.28891311 14.37897032 -6 16 C-6.66 15.67 -7.32 15.34 -8 15 C-7.38511719 14.12988281 -7.38511719 14.12988281 -6.7578125 13.2421875 C-3.78971393 8.93915465 -1.31573874 5.1313811 0 0 Z " fill="#FEEFD4" transform="translate(516,61)"/>
<path d="M0 0 C0 0.66 0 1.32 0 2 C-1.94982535 3.40568804 -3.95950578 4.7295036 -6 6 C-6.9075 6.598125 -7.815 7.19625 -8.75 7.8125 C-9.4925 8.204375 -10.235 8.59625 -11 9 C-11.66 8.67 -12.32 8.34 -13 8 C-11.5433323 6.85204994 -10.08461063 5.70670581 -8.625 4.5625 C-7.40683594 3.60537109 -7.40683594 3.60537109 -6.1640625 2.62890625 C-2.67146283 0 -2.67146283 0 0 0 Z " fill="#321F6E" transform="translate(249,196)"/>
<path d="M0 0 C-0.3125 3.375 -0.3125 3.375 -1 7 C-1.99 7.66 -2.98 8.32 -4 9 C-4.66 6.69 -5.32 4.38 -6 2 C-1.125 0 -1.125 0 0 0 Z " fill="#F39D40" transform="translate(880,192)"/>
<path d="M0 0 C1.32 0.33 2.64 0.66 4 1 C2.71937515 2.7074998 1.38232443 4.37373596 0 6 C-0.66 6 -1.32 6 -2 6 C-2 6.66 -2 7.32 -2 8 C-2.99 8.33 -3.98 8.66 -5 9 C-3.7508258 5.54074837 -2.32472205 2.85306797 0 0 Z " fill="#2D1A72" transform="translate(233,153)"/>
<path d="M0 0 C0 0.99 0 1.98 0 3 C-3.76204814 6.46504434 -6.25548653 7.25727204 -11.375 7.25 C-12.91760237 7.18629371 -14.45997544 7.10956696 -16 7 C-16 6.67 -16 6.34 -16 6 C-13.03 6 -10.06 6 -7 6 C-7 5.34 -7 4.68 -7 4 C-5.68 4 -4.36 4 -3 4 C-3 3.01 -3 2.02 -3 1 C-2.01 0.67 -1.02 0.34 0 0 Z " fill="#F1A655" transform="translate(184,45)"/>
<path d="M0 0 C0.66 0.33 1.32 0.66 2 1 C1.01 2.175625 1.01 2.175625 0 3.375 C-2.89251428 7.61192232 -2.35098192 12.06675416 -2 17 C-2.66 16.67 -3.32 16.34 -4 16 C-4 11.71 -4 7.42 -4 3 C-3.34 3 -2.68 3 -2 3 C-2 2.34 -2 1.68 -2 1 C-1.34 0.67 -0.68 0.34 0 0 Z " fill="#FFF2D5" transform="translate(625,25)"/>
<path d="M0 0 C0.33 0.66 0.66 1.32 1 2 C1.66 2 2.32 2 3 2 C3.28875 2.804375 3.5775 3.60875 3.875 4.4375 C4.73262568 7.1326468 4.73262568 7.1326468 7 8 C6.67 8.66 6.34 9.32 6 10 C4.66102417 9.04956626 3.32894573 8.08940853 2 7.125 C1.2575 6.59132813 0.515 6.05765625 -0.25 5.5078125 C-0.8275 5.01023437 -1.405 4.51265625 -2 4 C-2 3.34 -2 2.68 -2 2 C-1.34 2 -0.68 2 0 2 C0 1.34 0 0.68 0 0 Z " fill="#251168" transform="translate(500,259)"/>
<path d="M0 0 C2.1875 0.3125 2.1875 0.3125 6.1875 4.3125 C0.2475 3.6525 -5.6925 2.9925 -11.8125 2.3125 C-11.8125 1.9825 -11.8125 1.6525 -11.8125 1.3125 C-7.87922324 0.8326231 -3.9380164 0.43755738 0 0 Z " fill="#FEE2BA" transform="translate(227.8125,20.6875)"/>
<path d="M0 0 C3.53600465 1.91135386 5.78972846 3.62642766 8 7 C6 7 4 7 2 7 C1.34 4.69 0.68 2.38 0 0 Z " fill="#26126A" transform="translate(602,237)"/>
<path d="M0 0 C0.66 0.99 1.32 1.98 2 3 C0.68 4.65 -0.64 6.3 -2 8 C-3.32 7.67 -4.64 7.34 -6 7 C-4.02 4.69 -2.04 2.38 0 0 Z " fill="#311D71" transform="translate(673,220)"/>
<path d="M0 0 C3.53600465 1.91135386 5.78972846 3.62642766 8 7 C7.67 7.66 7.34 8.32 7 9 C4.525 8.01 4.525 8.01 2 7 C2 5.68 2 4.36 2 3 C1.34 2.67 0.68 2.34 0 2 C0 1.34 0 0.68 0 0 Z " fill="#F1A24D" transform="translate(306,29)"/>
<path d="M0 0 C7.26153846 0.36923077 7.26153846 0.36923077 11 3.5625 C11.99 4.7690625 11.99 4.7690625 13 6 C12.67 6.66 12.34 7.32 12 8 C11.319375 7.401875 10.63875 6.80375 9.9375 6.1875 C6.68325166 3.76412357 3.76063775 2.4747599 0 1 C0 0.67 0 0.34 0 0 Z " fill="#FEEFD2" transform="translate(495,24)"/>
<path d="M0 0 C1 3 1 3 0.0625 5.1875 C-0.4634375 6.0846875 -0.4634375 6.0846875 -1 7 C-0.34 7.33 0.32 7.66 1 8 C0.01 8.495 0.01 8.495 -1 9 C-2.13350534 11.01669827 -2.13350534 11.01669827 -3 13 C-3.93045933 10.44855176 -4.08564091 9.25993522 -3.22265625 6.640625 C-2.83980469 5.85171875 -2.45695313 5.0628125 -2.0625 4.25 C-1.68222656 3.45078125 -1.30195313 2.6515625 -0.91015625 1.828125 C-0.60980469 1.22484375 -0.30945313 0.6215625 0 0 Z " fill="#271369" transform="translate(229,213)"/>
<path d="M0 0 C1.12894876 0.93274109 2.25300876 1.87140122 3.375 2.8125 C4.00148437 3.33457031 4.62796875 3.85664063 5.2734375 4.39453125 C7 6 7 6 9 9 C7.35 9 5.7 9 4 9 C4 7.68 4 6.36 4 5 C3.01 4.67 2.02 4.34 1 4 C0.3125 1.9375 0.3125 1.9375 0 0 Z " fill="#1F0A64" transform="translate(191,215)"/>
<path d="M0 0 C1 2 1 2 0.25 4.4375 C-0.93098981 6.85852911 -1.9831559 8.25818009 -4 10 C-4.99 9.67 -5.98 9.34 -7 9 C-5.76302083 7.53515625 -4.52604167 6.0703125 -3.2890625 4.60546875 C-2.10798901 3.1344954 -1.04641471 1.56962206 0 0 Z " fill="#FEEFD3" transform="translate(283,100)"/>
<path d="M0 0 C0.99 0.33 1.98 0.66 3 1 C1.25 5.875 1.25 5.875 -1 7 C-1 6.01 -1 5.02 -1 4 C-1.66 3.67 -2.32 3.34 -3 3 C-2.01 2.01 -1.02 1.02 0 0 Z " fill="#F59D3A" transform="translate(412,98)"/>
<path d="M0 0 C1.32 0.33 2.64 0.66 4 1 C0.04 4.465 0.04 4.465 -4 8 C-4 5 -4 5 -3 3 C-2.01 2.34 -1.02 1.68 0 1 C0 0.67 0 0.34 0 0 Z " fill="#F0A353" transform="translate(177,105)"/>
<path d="M0 0 C1.40907283 2.81814566 0.50872691 4.17277204 -0.4375 7.125 C-0.72496094 8.03507812 -1.01242188 8.94515625 -1.30859375 9.8828125 C-1.53675781 10.58148438 -1.76492187 11.28015625 -2 12 C-2.66 12 -3.32 12 -4 12 C-3.5317879 7.22423661 -2.75668002 3.95523655 0 0 Z " fill="#F0A85D" transform="translate(195,37)"/>
<path d="M0 0 C0.33 0.66 0.66 1.32 1 2 C1.66 2 2.32 2 3 2 C4.38232443 3.62626404 5.71937515 5.2925002 7 7 C6.67 7.66 6.34 8.32 6 9 C2.75700849 6.61042731 0.49097658 4.7952131 -1 1 C-0.67 0.67 -0.34 0.34 0 0 Z " fill="#29166C" transform="translate(230,177)"/>
<path d="M0 0 C1.65 0 3.3 0 5 0 C5.66 2.64 6.32 5.28 7 8 C1.125 3.375 1.125 3.375 0 0 Z " fill="#F0A54F" transform="translate(229,104)"/>
<path d="M0 0 C0.33 0.66 0.66 1.32 1 2 C1.66 2.33 2.32 2.66 3 3 C1.02 4.32 -0.96 5.64 -3 7 C-3.1875 4.625 -3.1875 4.625 -3 2 C-2.01 1.34 -1.02 0.68 0 0 Z " fill="#F4A047" transform="translate(507,72)"/>
<path d="M0 0 C1.98 0.99 3.96 1.98 6 3 C5.67 3.66 5.34 4.32 5 5 C3.35 5 1.7 5 0 5 C-0.33 4.01 -0.66 3.02 -1 2 C-0.67 1.34 -0.34 0.68 0 0 Z " fill="#271273" transform="translate(327,153)"/>
<path d="M0 0 C0.33 0.99 0.66 1.98 1 3 C-0.8125 6.1875 -0.8125 6.1875 -3 9 C-3.66 9 -4.32 9 -5 9 C-5 8.34 -5 7.68 -5 7 C-4.34 7 -3.68 7 -3 7 C-2.87625 6.21625 -2.7525 5.4325 -2.625 4.625 C-2 2 -2 2 0 0 Z " fill="#F0A352" transform="translate(614,74)"/>
<path d="M0 0 C0.66 0 1.32 0 2 0 C2.33 0.99 2.66 1.98 3 3 C5.50447516 4.21869929 5.50447516 4.21869929 8 5 C8 5.99 8 6.98 8 8 C4.11137013 6.73882275 2.10624401 5.54735833 0 2 C0 1.34 0 0.68 0 0 Z " fill="#F1A454" transform="translate(327,44)"/>
<path d="M0 0 C2.0625 0.4375 2.0625 0.4375 4 1 C3.071875 2.1446875 3.071875 2.1446875 2.125 3.3125 C-0.05597052 5.99625809 -0.05597052 5.99625809 -2 9 C-1.125 1.125 -1.125 1.125 0 0 Z " fill="#FEF6DE" transform="translate(522,25)"/>
<path d="M0 0 C2.625 -0.1875 2.625 -0.1875 5 0 C5 1.32 5 2.64 5 4 C2.69 3.67 0.38 3.34 -2 3 C-1.34 2.01 -0.68 1.02 0 0 Z " fill="#240D74" transform="translate(802,265)"/>
<path d="M0 0 C0.66 0.33 1.32 0.66 2 1 C2 2.32 2 3.64 2 5 C1.01 5.33 0.02 5.66 -1 6 C-1.66 4.35 -2.32 2.7 -3 1 C-2.01 0.67 -1.02 0.34 0 0 Z " fill="#230F72" transform="translate(359,262)"/>
<path d="M0 0 C0.99 0.66 1.98 1.32 3 2 C0.03 4.475 0.03 4.475 -3 7 C-2.25 2.25 -2.25 2.25 0 0 Z " fill="#220C6A" transform="translate(143,202)"/>
<path d="M0 0 C0 0.99 0 1.98 0 3 C-4.455 3.495 -4.455 3.495 -9 4 C-3.7826087 0 -3.7826087 0 0 0 Z " fill="#2A166A" transform="translate(114,149)"/>
<path d="M0 0 C-2 2 -2 2 -3.9453125 2.1953125 C-5.96354167 2.13020833 -7.98177083 2.06510417 -10 2 C-6.19832777 -0.53444815 -4.31588991 -1.33941411 0 0 Z " fill="#F1A045" transform="translate(611,115)"/>
<path d="M0 0 C0.66 0 1.32 0 2 0 C2 0.66 2 1.32 2 2 C5.465 1.505 5.465 1.505 9 1 C9 1.99 9 2.98 9 4 C6.36 3.67 3.72 3.34 1 3 C0.67 2.01 0.34 1.02 0 0 Z " fill="#F2A049" transform="translate(471,113)"/>
<path d="M0 0 C1 3 1 3 0.22265625 4.82421875 C-0.8515625 6.54947917 -1.92578125 8.27473958 -3 10 C-3.66 10 -4.32 10 -5 10 C-5 9.34 -5 8.68 -5 8 C-4.34 8 -3.68 8 -3 8 C-2.87625 7.4225 -2.7525 6.845 -2.625 6.25 C-1.99351176 3.97664233 -1.11141809 2.0746471 0 0 Z " fill="#EBA75B" transform="translate(318,105)"/>
<path d="M0 0 C4.455 2.97 4.455 2.97 9 6 C7.68 6.33 6.36 6.66 5 7 C2.25 5.25 2.25 5.25 0 3 C0 2.01 0 1.02 0 0 Z " fill="#FFF2D5" transform="translate(231,108)"/>
<path d="M0 0 C1.98 0.495 1.98 0.495 4 1 C2.515 3.475 2.515 3.475 1 6 C0.34 5.34 -0.32 4.68 -1 4 C-0.625 1.875 -0.625 1.875 0 0 Z " fill="#F59F3C" transform="translate(279,100)"/>
<path d="M0 0 C0.66 0 1.32 0 2 0 C0.52307692 4.67692308 0.52307692 4.67692308 -2.125 6.3125 C-3.053125 6.6528125 -3.053125 6.6528125 -4 7 C-2.92598892 4.08482708 -2.22189824 2.22189824 0 0 Z " fill="#ECA455" transform="translate(627,25)"/>
<path d="M0 0 C3.11954738 0.33724836 4.6209965 0.6209965 6.875 2.875 C7.24625 3.57625 7.6175 4.2775 8 5 C7.67 5.99 7.34 6.98 7 8 C4.35247996 5.42215154 2.05567935 3.08351902 0 0 Z " fill="#FEECCE" transform="translate(239,27)"/>
<path d="M0 0 C1.65 0 3.3 0 5 0 C5 0.99 5 1.98 5 3 C3.02 3 1.04 3 -1 3 C-0.67 2.01 -0.34 1.02 0 0 Z " fill="#F1EAF7" transform="translate(306,232)"/>
<path d="M0 0 C0.33 0 0.66 0 1 0 C1 2.64 1 5.28 1 8 C-0.65 8.66 -2.3 9.32 -4 10 C-3.525625 9.278125 -3.05125 8.55625 -2.5625 7.8125 C-1.05847097 5.10524774 -0.43400818 3.03805725 0 0 Z " fill="#FDEAC9" transform="translate(880,192)"/>
<path d="M0 0 C1 3 1 3 0.0625 5.1875 C-0.4634375 6.0846875 -0.4634375 6.0846875 -1 7 C-1.33 6.34 -1.66 5.68 -2 5 C-2.66 4.67 -3.32 4.34 -4 4 C-2.68 2.68 -1.36 1.36 0 0 Z " fill="#26136E" transform="translate(184,160)"/>
<path d="M0 0 C1.98 1.65 3.96 3.3 6 5 C5.34 5.66 4.68 6.32 4 7 C4 6.34 4 5.68 4 5 C2.68 5.33 1.36 5.66 0 6 C0 4.02 0 2.04 0 0 Z " fill="#2A166C" transform="translate(467,159)"/>
<path d="M0 0 C0.99 0.66 1.98 1.32 3 2 C-2.625 5 -2.625 5 -6 5 C-4.02 3.35 -2.04 1.7 0 0 Z " fill="#2D1B6A" transform="translate(364,151)"/>
<path d="M0 0 C0.99 0.33 1.98 0.66 3 1 C-1.75 5.875 -1.75 5.875 -4 7 C-3.6875 4.625 -3.6875 4.625 -3 2 C-2.01 1.34 -1.02 0.68 0 0 Z " fill="#FEF1D6" transform="translate(97,89)"/>
</svg>
