<?xml version="1.0" encoding="UTF-8"?>
<svg version="1.1" xmlns="http://www.w3.org/2000/svg" width="192" height="192">
<path d="M0 0 C22.12745261 16.56677767 36.3854956 37.22282779 41.3125 64.74609375 C44.75250148 91.25048614 38.51942365 117.10607944 22.25 138.37109375 C5.18651335 158.58833766 -16.18470951 172.28229849 -43 175.24609375 C-68.95004685 176.60640002 -95.29116938 171.54844488 -115.28808594 153.84033203 C-117.93557149 151.38172866 -120.48161679 148.83603186 -123 146.24609375 C-123.83273438 145.41078125 -124.66546875 144.57546875 -125.5234375 143.71484375 C-143.06642259 125.27375362 -150.39419139 100.90013579 -150.15234375 75.85546875 C-149.24793624 54.4279677 -141.35954987 34.85674062 -128 18.24609375 C-127.22462891 17.22515625 -127.22462891 17.22515625 -126.43359375 16.18359375 C-96.83044612 -20.61630907 -37.80141411 -26.59168626 0 0 Z " fill="#E37926" transform="translate(150,16.75390625)"/>
<path d="M0 0 C11.53749384 8.95268439 18.31780336 19.19068299 22.6328125 33.04296875 C22.81118149 33.58878601 22.98955048 34.13460327 23.17332458 34.69696045 C23.84559008 38.12934764 23.76298149 41.54142525 23.74633789 45.02441406 C23.74648392 45.82479095 23.74662994 46.62516785 23.7467804 47.44979858 C23.7460848 50.09025806 23.7383089 52.73064663 23.73046875 55.37109375 C23.72860332 57.20383668 23.72718001 59.03658012 23.72618103 60.86932373 C23.72236572 65.68946717 23.71254383 70.5095804 23.70147705 75.32971191 C23.68944169 81.11502458 23.68485599 86.90034734 23.67902374 92.68566895 C23.66933157 101.47145654 23.6501681 110.25717789 23.6328125 119.04296875 C10.1028125 119.04296875 -3.4271875 119.04296875 -17.3671875 119.04296875 C-17.39296875 114.51578125 -17.41875 109.98859375 -17.4453125 105.32421875 C-17.47050031 102.443955 -17.49684777 99.56379427 -17.52734375 96.68359375 C-17.57556334 92.11913763 -17.61965091 87.55492017 -17.63818359 82.99023438 C-17.65340731 79.30706535 -17.68795205 75.6245237 -17.73549652 71.94163513 C-17.75025189 70.54159521 -17.75822514 69.14146569 -17.75907135 67.74134827 C-17.76983191 58.85885958 -18.00607587 52.050171 -24.0546875 45.10546875 C-27.75575928 43.40497631 -31.30017819 42.83077696 -35.3671875 43.04296875 C-40.07637287 45.0865775 -42.32739684 47.83583781 -44.53112793 52.43945312 C-46.3317603 58.0466786 -45.97303599 63.98932597 -45.9765625 69.82421875 C-45.99156492 71.24769961 -46.00829636 72.67116319 -46.02667236 74.09460449 C-46.07012774 77.81649634 -46.09029594 81.53815348 -46.10540771 85.26025391 C-46.12852135 89.73926876 -46.18092548 94.21802761 -46.22834778 98.69683838 C-46.29691446 105.47894817 -46.32856197 112.26032501 -46.3671875 119.04296875 C-60.2271875 119.04296875 -74.0871875 119.04296875 -88.3671875 119.04296875 C-88.52762274 100.21856757 -88.52762274 100.21856757 -88.5625 92.09765625 C-88.58626741 86.59000939 -88.61415968 81.0826324 -88.66894531 75.57519531 C-88.71290759 71.12716751 -88.73642897 66.67942973 -88.74669647 62.23120117 C-88.75399866 60.54739832 -88.76825326 58.8636085 -88.79010773 57.17993164 C-89.03942681 37.14692032 -85.02479959 20.32544724 -70.81640625 5.296875 C-51.6643747 -12.32788131 -21.49319164 -14.6943249 0 0 Z " fill="#2C2969" transform="translate(130.3671875,32.95703125)"/>
<path d="M0 0 C1 2 1 2 0.2578125 4.56640625 C-0.11601563 5.55511719 -0.48984375 6.54382812 -0.875 7.5625 C-1.24367188 8.55378906 -1.61234375 9.54507813 -1.9921875 10.56640625 C-3 13 -3 13 -4 14 C-5.38867608 22.83992589 -5.22582395 31.79605823 -5.31640625 40.72265625 C-5.3370099 42.43615684 -5.35800719 44.14965274 -5.37937927 45.86314392 C-5.43424803 50.34614228 -5.48381066 54.82918379 -5.53222656 59.31225586 C-5.59159417 64.70561125 -5.65762609 70.09888877 -5.72252655 75.49217987 C-5.8200924 83.66140519 -5.90925127 91.83068331 -6 100 C6.87 100 19.74 100 33 100 C33 78.88 33 57.76 33 36 C33.66 35.67 34.32 35.34 35 35 C34.67 56.78 34.34 78.56 34 101 C20.14 101 6.28 101 -8 101 C-8.16043524 82.17559882 -8.16043524 82.17559882 -8.1953125 74.0546875 C-8.21907991 68.54704064 -8.24697218 63.03966365 -8.30175781 57.53222656 C-8.34572009 53.08419876 -8.36924147 48.63646098 -8.37950897 44.18823242 C-8.38681116 42.50442957 -8.40106576 40.82063975 -8.42292023 39.13696289 C-8.59720852 25.13274221 -7.46925966 12.22362754 0 0 Z " fill="#4F3045" transform="translate(50,51)"/>
<path d="M0 0 C5.96881764 5.96881764 5.32358009 16.30910804 5.34817982 24.22193623 C5.3396591 26.81868376 5.31659003 29.41506838 5.29296875 32.01171875 C5.28736307 33.83445382 5.28309758 35.65719346 5.28010559 37.47993469 C5.26873325 42.24255177 5.2393329 47.00488783 5.20599365 51.76739502 C5.16968616 57.50026392 5.15609532 63.23322757 5.13863373 68.96617889 C5.10968998 77.64431381 5.05215012 86.32183395 5 95 C-8.53 95 -22.06 95 -36 95 C-36 73.88 -36 52.76 -36 31 C-35.67 31 -35.34 31 -35 31 C-35 51.79 -35 72.58 -35 94 C-22.13 94 -9.26 94 4 94 C4 67.93 4 41.86 4 15 C3.34 15 2.68 15 2 15 C1.93941406 14.41992188 1.87882812 13.83984375 1.81640625 13.2421875 C1.33983439 8.79907137 0.78991334 4.40094577 0 0 Z " fill="#381A34" transform="translate(149,57)"/>
<path d="M0 0 C1.32 0.33 2.64 0.66 4 1 C3.43152344 1.46148437 2.86304687 1.92296875 2.27734375 2.3984375 C-9.7470989 12.55598004 -16.88931248 25.35890952 -19 41 C-19.32838457 47.01197453 -19.37275229 53.0193142 -19.4140625 59.0390625 C-19.43280245 60.77355847 -19.45237791 62.5080456 -19.4727478 64.24252319 C-19.52377664 68.77645622 -19.56355765 73.31041871 -19.60089111 77.84448242 C-19.64111556 82.48363355 -19.69212317 87.12266522 -19.7421875 91.76171875 C-19.83859981 100.84106156 -19.92311408 109.92047229 -20 119 C-20.33 119 -20.66 119 -21 119 C-21.0933561 108.86297755 -21.16409374 98.72606011 -21.20724869 88.58869267 C-21.22797808 83.87969156 -21.25602202 79.17098809 -21.30175781 74.4621582 C-21.34574575 69.90390099 -21.36924669 65.34592703 -21.37950897 60.78747368 C-21.38680668 59.06263212 -21.40105191 57.33780316 -21.42292023 55.61308479 C-21.56612686 43.83237179 -20.20910616 33.34632006 -17 22 C-16.34 22 -15.68 22 -15 22 C-15 20.35 -15 18.7 -15 17 C-14.01 17 -13.02 17 -12 17 C-12 14.36 -12 11.72 -12 9 C-11.01 9 -10.02 9 -9 9 C-9.020625 8.05125 -9.04125 7.1025 -9.0625 6.125 C-9 3 -9 3 -8 1 C-6 2 -4 3 -2 4 C-2 3.34 -2 2.68 -2 2 C-1.34 2 -0.68 2 0 2 C0 1.34 0 0.68 0 0 Z " fill="#DE8449" transform="translate(62,33)"/>
<path d="M0 0 C4.83908212 2.68837896 7.3301196 6.81689308 9 12 C9.53906093 16.9271564 9.46735477 21.832588 9.390625 26.78125 C9.38315214 28.20470378 9.37746415 29.62816794 9.37347412 31.05163574 C9.3582996 34.77381467 9.31909079 38.49535587 9.2746582 42.21728516 C9.23352698 46.02497738 9.21542527 49.83277401 9.1953125 53.640625 C9.15258655 61.09403877 9.08443724 68.54692957 9 76 C8.34 76 7.68 76 7 76 C6.99191315 75.19011627 6.98382629 74.38023254 6.97549438 73.54580688 C6.8976396 65.92332269 6.81037705 58.30103245 6.71247292 50.67878151 C6.66246998 46.75984887 6.61614057 42.84094371 6.578125 38.921875 C6.5413223 35.14163767 6.49497657 31.36162809 6.44193649 27.58158493 C6.42336573 26.13749552 6.40826772 24.69335724 6.39665604 23.2491951 C6.37984008 21.23064937 6.34966895 19.21222812 6.31884766 17.19384766 C6.30552399 16.04357086 6.29220032 14.89329407 6.2784729 13.7081604 C6.27262362 10.85191072 6.27262362 10.85191072 4 9 C3.7525 8.195625 3.505 7.39125 3.25 6.5625 C2.14392352 3.79347137 2.14392352 3.79347137 -0.625 2.0625 C-5.21617697 0.61712947 -7.43936342 1.57947385 -12 3 C-12.99 3 -13.98 3 -15 3 C-9.98057904 -1.24720235 -6.35050351 -1.79930933 0 0 Z " fill="#CC7E53" transform="translate(104,76)"/>
<path d="M0 0 C2 1 2 1 3.11080933 3.02787781 C4.26667807 6.89137217 4.26314013 10.56115411 4.22705078 14.55395508 C4.22734283 15.40324585 4.22763489 16.25253662 4.22793579 17.12756348 C4.22654634 19.92499125 4.21100323 22.7221502 4.1953125 25.51953125 C4.191581 27.46294509 4.18873468 29.40636082 4.18673706 31.34977722 C4.17911137 36.45764384 4.15947197 41.56539621 4.1373291 46.67321777 C4.11684778 51.88824925 4.10773045 57.10329924 4.09765625 62.31835938 C4.07622512 72.54562304 4.04210197 82.77280201 4 93 C3.67 93 3.34 93 3 93 C2.99191315 91.99712448 2.98382629 90.99424896 2.97549438 89.96098328 C2.89773702 80.47238796 2.8099251 70.98393083 2.71247292 61.49551678 C2.66269916 56.61837755 2.61636865 51.74125802 2.578125 46.86401367 C2.54103169 42.15009317 2.49460914 37.43634548 2.44193649 32.72257423 C2.42351947 30.93144601 2.40836562 29.14028093 2.39665604 27.3490963 C2.33374127 18.05111012 2.21314722 9.09380099 0 0 Z " fill="#B06949" transform="translate(151,59)"/>
<path d="M0 0 C1.44571275 2.8914255 0.61370836 4.87008736 0 8 C-0.185625 8.94875 -0.37125 9.8975 -0.5625 10.875 C-0.7790625 11.926875 -0.7790625 11.926875 -1 13 C-1.33 13 -1.66 13 -2 13 C-2.33 32.47 -2.66 51.94 -3 72 C-3.33 72 -3.66 72 -4 72 C-4.09297117 63.79366032 -4.16390134 55.58754331 -4.20724869 47.38080597 C-4.22806079 43.56943565 -4.25625997 39.75842754 -4.30175781 35.94726562 C-4.34544579 32.26436336 -4.36918499 28.58180792 -4.37950897 24.89866638 C-4.3868595 23.49851528 -4.40121298 22.09838164 -4.42292023 20.69837952 C-4.54200401 12.69464055 -4.38478703 6.82752306 0 0 Z " fill="#DD8B5C" transform="translate(88,80)"/>
<path d="M0 0 C1.18529297 -0.01224609 2.37058594 -0.02449219 3.59179688 -0.03710938 C10.28886128 -0.04825258 16.21868331 0.43336214 22.6875 2.1875 C22.6875 2.5175 22.6875 2.8475 22.6875 3.1875 C21.0375 3.5175 19.3875 3.8475 17.6875 4.1875 C17.3575 5.1775 17.0275 6.1675 16.6875 7.1875 C16.0275 6.8575 15.3675 6.5275 14.6875 6.1875 C14.6875 5.1975 14.6875 4.2075 14.6875 3.1875 C3.4675 2.8575 -7.7525 2.5275 -19.3125 2.1875 C-19.3125 1.8575 -19.3125 1.5275 -19.3125 1.1875 C-12.84989437 -0.02269186 -6.55618864 0.00353053 0 0 Z " fill="#CE7936" transform="translate(96.3125,0.8125)"/>
<path d="M0 0 C2.64 0 5.28 0 8 0 C8.33 0.99 8.66 1.98 9 3 C9.74765625 2.91621094 10.4953125 2.83242187 11.265625 2.74609375 C12.74289063 2.59333984 12.74289063 2.59333984 14.25 2.4375 C15.22453125 2.33308594 16.1990625 2.22867188 17.203125 2.12109375 C19.7631352 2.01025532 21.58148159 2.22261908 24 3 C24 4.32 24 5.64 24 7 C15.45988044 6.55052002 7.98466367 3.85091417 0 1 C0 0.67 0 0.34 0 0 Z " fill="#D17631" transform="translate(58,184)"/>
<path d="M0 0 C0.66 0.33 1.32 0.66 2 1 C1 4 0 7 -1 10 C-2.65 10 -4.3 10 -6 10 C-7.61949011 12.57213134 -8.04408751 13.67669159 -7.625 16.75 C-7.315625 17.86375 -7.315625 17.86375 -7 19 C-7.99 18.67 -8.98 18.34 -10 18 C-10 17.34 -10 16.68 -10 16 C-10.66 15.67 -11.32 15.34 -12 15 C-8.08566836 9.92377741 -4.14084264 4.89372312 0 0 Z " fill="#D37D37" transform="translate(28,28)"/>
<path d="M0 0 C0.66 0.33 1.32 0.66 2 1 C0.35 2.65 -1.3 4.3 -3 6 C-1.68 6.33 -0.36 6.66 1 7 C0.67 7.66 0.34 8.32 0 9 C-0.928125 8.938125 -1.85625 8.87625 -2.8125 8.8125 C-5.96237867 8.66863275 -5.96237867 8.66863275 -7.625 10.4375 C-8.07875 10.953125 -8.5325 11.46875 -9 12 C-11.1875 12.6875 -11.1875 12.6875 -13 13 C-11.57142347 9.63951428 -9.83945402 7.72274139 -7.0625 5.375 C-6.37285156 4.78460938 -5.68320312 4.19421875 -4.97265625 3.5859375 C-3 2 -3 2 0 0 Z " fill="#3A264A" transform="translate(69,31)"/>
<path d="M0 0 C1.05960938 0.00676758 1.05960938 0.00676758 2.140625 0.01367188 C3.88545275 0.02546125 5.630237 0.04339676 7.375 0.0625 C9.12065111 3.27889654 9.579437 5.38263404 9.375 9.0625 C8.97410156 8.64097656 8.57320312 8.21945313 8.16015625 7.78515625 C4.05572776 3.82964127 1.08149132 2.36066986 -4.609375 1.97265625 C-6.83250875 1.97963083 -6.83250875 1.97963083 -9.625 3.0625 C-9.625 2.4025 -9.625 1.7425 -9.625 1.0625 C-6.55966836 -0.47016582 -3.35745728 -0.04026471 0 0 Z " fill="#372348" transform="translate(101.625,73.9375)"/>
<path d="M0 0 C4.69165109 2.97519337 8.84703191 6.31393365 13 10 C9.12331765 11.29222745 7.37094106 10.64738884 3.75 8.9375 C3.1725 8.628125 2.595 8.31875 2 8 C2.66 7.67 3.32 7.34 4 7 C4 6.01 4 5.02 4 4 C3.01 4 2.02 4 1 4 C0.67 2.68 0.34 1.36 0 0 Z " fill="#D47933" transform="translate(152,19)"/>
<path d="M0 0 C-3.30785775 2.2052385 -6.46371748 3.1247101 -10.25 4.125 C-11.21486328 4.39763672 -11.21486328 4.39763672 -12.19921875 4.67578125 C-16.55797141 5.84220802 -20.50039751 6.17485502 -25 6 C-25.33 5.34 -25.66 4.68 -26 4 C-22.04 4 -18.08 4 -14 4 C-14 3.34 -14 2.68 -14 2 C-9.126739 0.4087311 -5.19209404 -0.21192221 0 0 Z " fill="#C87734" transform="translate(132,185)"/>
<path d="M0 0 C1 2 1 2 0.2578125 4.56640625 C-0.11601563 5.55511719 -0.48984375 6.54382812 -0.875 7.5625 C-1.24367188 8.55378906 -1.61234375 9.54507813 -1.9921875 10.56640625 C-3 13 -3 13 -4 14 C-4.39569108 16.01311449 -4.74252191 18.03597208 -5.0625 20.0625 C-5.23910156 21.16722656 -5.41570313 22.27195312 -5.59765625 23.41015625 C-5.73042969 24.26480469 -5.86320312 25.11945313 -6 26 C-6.33 26 -6.66 26 -7 26 C-7.72337065 16.77702419 -5.01616887 7.74703444 0 0 Z " fill="#402340" transform="translate(50,51)"/>
<path d="M0 0 C0.103125 0.598125 0.20625 1.19625 0.3125 1.8125 C1.08876455 4.28243264 2.07088921 5.32251235 4 7 C-3.5 4 -3.5 4 -11 1 C-11 0.67 -11 0.34 -11 0 C-6.98195309 -0.84098656 -3.98196457 -1.05404945 0 0 Z " fill="#D67C40" transform="translate(125,25)"/>
<path d="M0 0 C0.33 0 0.66 0 1 0 C1.33 3.3 1.66 6.6 2 10 C1.01 10.66 0.02 11.32 -1 12 C-1.33 11.67 -1.66 11.34 -2 11 C-2.33 11.66 -2.66 12.32 -3 13 C-3.66 13 -4.32 13 -5 13 C-4.54554036 11.58208592 -4.08625056 10.16571954 -3.625 8.75 C-3.24214844 7.56664062 -3.24214844 7.56664062 -2.8515625 6.359375 C-2.04826333 4.13372042 -1.10288338 2.09068328 0 0 Z " fill="#DB7D30" transform="translate(12,49)"/>
<path d="M0 0 C4.60209225 -0.17700355 6.78370866 -0.10814567 11 2 C6.05 4.475 6.05 4.475 1 7 C0.67 4.69 0.34 2.38 0 0 Z " fill="#DB7D38" transform="translate(66,26)"/>
<path d="M0 0 C2.88080957 1.17366316 4.34257199 2.35092741 6.5625 4.625 C8.7909084 7.34893236 8.7909084 7.34893236 12 7 C12.33 9.31 12.66 11.62 13 14 C11.88085919 12.88085919 10.76206063 11.76137493 9.64453125 10.640625 C8.39693967 9.39599682 7.14323731 8.15749029 5.88671875 6.921875 C5.16097656 6.20515625 4.43523437 5.4884375 3.6875 4.75 C2.99011719 4.06421875 2.29273438 3.3784375 1.57421875 2.671875 C0 1 0 1 0 0 Z " fill="#CE7D4F" transform="translate(132,34)"/>
<path d="M0 0 C2.96404505 2.80804268 5.44499019 5.18315774 7 9 C4.69 8.67 2.38 8.34 0 8 C0 5.36 0 2.72 0 0 Z " fill="#D47A34" transform="translate(165,30)"/>
<path d="M0 0 C2.40672398 2.40672398 2.79132175 4.11378549 3.6875 7.375 C4.09548828 8.80972656 4.09548828 8.80972656 4.51171875 10.2734375 C4.9947433 12.97064661 4.9004538 14.44972144 4 17 C4 16.34 4 15.68 4 15 C3.34 15 2.68 15 2 15 C1.93941406 14.41992188 1.87882813 13.83984375 1.81640625 13.2421875 C1.33983439 8.79907137 0.78991334 4.40094577 0 0 Z " fill="#452542" transform="translate(149,57)"/>
<path d="M0 0 C1.44571275 2.8914255 0.61370836 4.87008736 0 8 C-0.185625 8.94875 -0.37125 9.8975 -0.5625 10.875 C-0.7790625 11.926875 -0.7790625 11.926875 -1 13 C-1.99 12.01 -2.98 11.02 -4 10 C-3.52449439 8.51965236 -3.04448784 7.04074979 -2.5625 5.5625 C-2.29566406 4.73878906 -2.02882813 3.91507812 -1.75390625 3.06640625 C-1 1 -1 1 0 0 Z " fill="#D97C45" transform="translate(88,80)"/>
<path d="M0 0 C4.83628305 0.99043705 9.47618873 1.95698846 14 4 C10.80588526 5.02328619 8.5784116 4.96256253 5.3125 4.25 C4.13107422 4.01023437 4.13107422 4.01023437 2.92578125 3.765625 C1.97251953 3.38664063 1.97251953 3.38664063 1 3 C0.67 2.01 0.34 1.02 0 0 Z " fill="#D17737" transform="translate(120,4)"/>
<path d="M0 0 C1.32 0.66 2.64 1.32 4 2 C1.69 4.31 -0.62 6.62 -3 9 C-3.33 7.68 -3.66 6.36 -4 5 C-3.01 5 -2.02 5 -1 5 C-0.67 3.35 -0.34 1.7 0 0 Z " fill="#D67A32" transform="translate(162,160)"/>
<path d="M0 0 C2 1 2 1 3.125 3 C4.30338431 7.04017477 4.16384045 10.82206849 4 15 C2.1866078 11.79989612 1.47786026 8.86716157 0.875 5.25 C0.70742187 4.26515625 0.53984375 3.2803125 0.3671875 2.265625 C0.24601563 1.51796875 0.12484375 0.7703125 0 0 Z " fill="#CF814E" transform="translate(151,59)"/>
<path d="M0 0 C1.32 0.33 2.64 0.66 4 1 C1.525 4.465 1.525 4.465 -1 8 C-1.66 6.68 -2.32 5.36 -3 4 C-2.01 3.67 -1.02 3.34 0 3 C0 2.01 0 1.02 0 0 Z " fill="#D27A32" transform="translate(172,149)"/>
<path d="M0 0 C3.0916909 2.52956528 3.90931332 5.22454612 5 9 C4.34 9 3.68 9 3 9 C3 8.34 3 7.68 3 7 C2.01 6.67 1.02 6.34 0 6 C0 4.02 0 2.04 0 0 Z " fill="#D17C38" transform="translate(178,48)"/>
<path d="M0 0 C1 3 1 3 1 7 C0.67 7.66 0.34 8.32 0 9 C-0.66 8.67 -1.32 8.34 -2 8 C-2 7.34 -2 6.68 -2 6 C-2.66 5.67 -3.32 5.34 -4 5 C-2.68 3.35 -1.36 1.7 0 0 Z " fill="#DC812F" transform="translate(20,38)"/>
<path d="M0 0 C-0.99 0.495 -0.99 0.495 -2 1 C-3.13350534 3.01669827 -3.13350534 3.01669827 -4 5 C-4.33 4.34 -4.66 3.68 -5 3 C-7.02463255 2.34786708 -7.02463255 2.34786708 -9 2 C-3.375 -1.125 -3.375 -1.125 0 0 Z " fill="#D67B33" transform="translate(59,10)"/>
<path d="M0 0 C2.31 0.66 4.62 1.32 7 2 C7 2.66 7 3.32 7 4 C7.99 4 8.98 4 10 4 C10 4.66 10 5.32 10 6 C6.40992874 4.66654496 3.20429093 3.1056769 0 1 C0 0.67 0 0.34 0 0 Z " fill="#CC7B3B" transform="translate(42,175)"/>
<path d="M0 0 C0.33 0 0.66 0 1 0 C1.33 3.63 1.66 7.26 2 11 C1.01 11.495 1.01 11.495 0 12 C-1.03159626 8.90521121 -0.97482862 7.47368607 -0.5625 4.3125 C-0.46066406 3.50425781 -0.35882813 2.69601563 -0.25390625 1.86328125 C-0.17011719 1.24839844 -0.08632812 0.63351563 0 0 Z " fill="#D27D39" transform="translate(1,80)"/>
<path d="M0 0 C1.65 1.65 3.3 3.3 5 5 C4.67 5.66 4.34 6.32 4 7 C2.68 7 1.36 7 0 7 C0 4.69 0 2.38 0 0 Z " fill="#D17833" transform="translate(172,39)"/>
<path d="M0 0 C2.475 0.99 2.475 0.99 5 2 C5 2.33 5 2.66 5 3 C3.35 3 1.7 3 0 3 C0 3.99 0 4.98 0 6 C-0.99 6 -1.98 6 -3 6 C-2 4 -1 2 0 0 Z " fill="#D67B30" transform="translate(147,16)"/>
<path d="M0 0 C0.99 0.33 1.98 0.66 3 1 C4.09658936 4.28976808 3.79953138 5.71303767 3 9 C0.87491756 5.81237635 0.4979837 3.73487777 0 0 Z " fill="#DA7B30" transform="translate(0,100)"/>
<path d="M0 0 C0.99 0.99 1.98 1.98 3 3 C-0.21451269 4.60725635 -3.43612536 4.05748185 -7 4 C-4 2 -4 2 0 2 C0 1.34 0 0.68 0 0 Z " fill="#E07E30" transform="translate(114,185)"/>
<path d="M0 0 C0.33 0 0.66 0 1 0 C1 1.98 1 3.96 1 6 C-0.98 6.99 -0.98 6.99 -3 8 C-1.125 2.25 -1.125 2.25 0 0 Z " fill="#D07E3C" transform="translate(12,49)"/>
</svg>
