<?xml version="1.0" encoding="UTF-8"?>
<svg version="1.1" xmlns="http://www.w3.org/2000/svg" width="1280" height="1203">
<path d="M0 0 C422.4 0 844.8 0 1280 0 C1280 396.99 1280 793.98 1280 1203 C857.6 1203 435.2 1203 0 1203 C0 806.01 0 409.02 0 0 Z " fill="#FEFEFE" transform="translate(0,0)"/>
<path d="M0 0 C3.46865314 1.49443106 5.73517344 3.50925726 8.4375 6.125 C23.9038487 20.23266507 44.59704852 28.72652395 65.5 29.5 C84.45071559 30.23452386 101.97666183 37.06585315 116 50 C117.41152344 51.25683594 117.41152344 51.25683594 118.8515625 52.5390625 C131.89497875 64.56346186 140.71214195 79.98578176 148 96 C148.28069336 96.60827637 148.56138672 97.21655273 148.85058594 97.84326172 C167.13811391 137.74626002 167.43099412 183.44428903 160 226 C159.85046875 226.87881836 159.7009375 227.75763672 159.546875 228.66308594 C155.21345751 253.22914946 144.73861197 276.19972063 133 298 C171.28 298.33 209.56 298.66 249 299 C247.76413438 305.17932808 246.57716519 310.81900249 244.76928711 316.77294922 C244.5560228 317.47999496 244.34275848 318.18704071 244.12303162 318.91551208 C243.42883228 321.21325128 242.72812601 323.50894842 242.02734375 325.8046875 C241.53891578 327.41735846 241.05093206 329.03016403 240.56336975 330.64309692 C239.28717583 334.86114504 238.00556619 339.07752706 236.72259521 343.29351807 C234.91067645 349.25131207 233.10621549 355.21137001 231.30091858 361.1711731 C230.34128422 364.33913967 229.37959666 367.50647143 228.41624451 370.67330933 C227.97792829 372.1166766 227.53961919 373.56004603 227.10131836 375.00341797 C226.71874374 376.26121063 226.33616913 377.5190033 225.94200134 378.81491089 C225.23837411 381.19401093 224.60172342 383.59310631 224 386 C2.9 386 -218.2 386 -446 386 C-461.21986256 336.82813635 -461.21986256 336.82813635 -465.05273438 324.01635742 C-465.79243707 321.54576077 -466.53683516 319.07660243 -467.28125 316.60742188 C-467.76589085 314.99226725 -468.25027841 313.37703659 -468.734375 311.76171875 C-468.95091736 311.04433029 -469.16745972 310.32694183 -469.39056396 309.58781433 C-470.44273899 306.05838779 -471.27557161 302.62214193 -472 299 C-460.45 299 -448.9 299 -437 299 C-438.093125 296.256875 -439.18625 293.51375 -440.3125 290.6875 C-452.60729913 259.17644773 -451.63027944 226.18101558 -438.34301758 195.01708984 C-429.74997848 175.86889856 -415.84487266 158.77712625 -396 150.75390625 C-394.57362064 150.21622809 -393.12770723 149.72923798 -391.671875 149.27734375 C-387.91503869 147.48131236 -385.24565672 144.85428865 -382.25 142 C-381.66089844 141.4534375 -381.07179688 140.906875 -380.46484375 140.34375 C-377.32614561 137.49284423 -377.32614561 137.49284423 -375 134 C-374.95977609 131.6670134 -374.95679753 129.33293334 -375 127 C-375.99 126.38125 -376.98 125.7625 -378 125.125 C-378.556875 124.77695312 -379.11375 124.42890625 -379.6875 124.0703125 C-385.99864419 121.14927617 -393.1802805 120.40162444 -400 119.375 C-400.87011719 119.2409375 -401.74023438 119.106875 -402.63671875 118.96875 C-404.75730331 118.64250622 -406.8785819 118.32077895 -409 118 C-403.70674263 114.64030301 -397.09738613 115.66694347 -391.05078125 115.68432617 C-388.79896108 115.68743246 -386.54852752 115.66421375 -384.296875 115.63867188 C-374.21883993 115.59671468 -364.8276653 116.79503231 -355 119 C-354.87238281 117.93056152 -354.74476563 116.86112305 -354.61328125 115.75927734 C-354.10499041 112.64356782 -353.6041794 110.59814263 -352.1875 107.8515625 C-351.83429688 107.15675781 -351.48109375 106.46195312 -351.1171875 105.74609375 C-350.74851562 105.04613281 -350.37984375 104.34617187 -350 103.625 C-349.63132812 102.90183594 -349.26265625 102.17867188 -348.8828125 101.43359375 C-346.18430261 96.18430261 -346.18430261 96.18430261 -345 95 C-343.14712498 94.92773498 -341.29166122 94.9161878 -339.4375 94.9375 C-337.91962891 94.95103516 -337.91962891 94.95103516 -336.37109375 94.96484375 C-335.58863281 94.97644531 -334.80617188 94.98804688 -334 95 C-334.30744141 95.88751953 -334.30744141 95.88751953 -334.62109375 96.79296875 C-335.02521484 97.97826172 -335.02521484 97.97826172 -335.4375 99.1875 C-335.70433594 99.96480469 -335.97117187 100.74210937 -336.24609375 101.54296875 C-337.62865554 106.04883075 -338.11928688 110.09918893 -338.0625 114.8125 C-338.05347656 115.78832031 -338.04445313 116.76414062 -338.03515625 117.76953125 C-338.02355469 118.50558594 -338.01195312 119.24164063 -338 120 C-337.55011719 119.34515625 -337.10023438 118.6903125 -336.63671875 118.015625 C-323.52580374 99.41336483 -304.66475209 79.53146562 -283 71 C-282.34 71.33 -281.68 71.66 -281 72 C-281.51796143 72.34144043 -282.03592285 72.68288086 -282.56958008 73.03466797 C-301.18553548 84.26910706 -301.18553548 84.26910706 -314 101 C-314.33660145 104.64407137 -314.33660145 104.64407137 -313 108 C-308.03253227 111.38196967 -303.26249761 113.01287831 -297.4375 114.3125 C-296.70853516 114.49361328 -295.97957031 114.67472656 -295.22851562 114.86132812 C-290.11058034 116.04522495 -286.22911833 115.90699432 -281.12426758 114.47314453 C-262.07602279 110.23047146 -243.25743232 116.39915414 -227 126 C-215.59701733 133.46526203 -199.19342626 145.61314748 -193 158 C-164.01365396 159.93600827 -135.34228223 147.76430618 -112.06958008 131.39941406 C-100.52598994 123.31671372 -89.9675251 121.52346267 -76 123 C-67.12662002 124.92819722 -58.64750933 129.19906358 -51 134 C-50.75636719 133.27554688 -50.51273438 132.55109375 -50.26171875 131.8046875 C-48.84350559 128.65212697 -47.16008544 126.6544122 -44.8125 124.125 C-44.01070312 123.25875 -43.20890625 122.3925 -42.3828125 121.5 C-38.69427138 117.63005522 -34.96519681 113.80922881 -31.03125 110.1875 C-28.63984825 107.61214427 -27.06303071 104.92099683 -25.3125 101.875 C-21.55791153 95.56034338 -17.20177236 90.21114492 -12 85 C-11.35675781 84.34515625 -10.71351563 83.6903125 -10.05078125 83.015625 C-8.25 81.3125 -8.25 81.3125 -5 79 C6.37656553 79.82355609 17.87770699 90.06323102 25.67578125 97.625 C30.17242985 101.9008829 35.37452384 104.35782819 40.96362305 106.93383789 C46.14628303 109.37121184 50.53008571 112.42823562 55 116 C51.92662083 97.40655011 48.73712696 79.03453351 43.45556641 60.91235352 C43 59 43 59 43 56 C42.23558594 56.05800781 41.47117187 56.11601562 40.68359375 56.17578125 C26.79728935 56.76064365 13.32310331 52.22300617 2.75390625 43.05078125 C-0.15025029 40.25319926 -2.62064505 37.57952521 -4.8359375 34.1953125 C-7.8178975 29.79234629 -11.34913355 25.95711186 -14.9296875 22.03515625 C-15.45304687 21.44347656 -15.97640625 20.85179687 -16.515625 20.2421875 C-16.99290039 19.7147998 -17.47017578 19.18741211 -17.96191406 18.64404297 C-19 17 -19 17 -19 13 C-17.36352539 11.46020508 -17.36352539 11.46020508 -15.09765625 10.01953125 C-14.29005859 9.49552734 -13.48246094 8.97152344 -12.65039062 8.43164062 C-11.79638672 7.89732422 -10.94238281 7.36300781 -10.0625 6.8125 C-8.38639372 5.73618308 -6.71059586 4.65938565 -5.03515625 3.58203125 C-4.2862915 3.10999268 -3.53742676 2.6379541 -2.76586914 2.15161133 C-1.05102474 1.1197004 -1.05102474 1.1197004 0 0 Z " fill="#F8B233" transform="translate(681,216)"/>
<path d="M0 0 C237.93 0 475.86 0 721 0 C719.76413438 6.17932808 718.57716519 11.81900249 716.76928711 17.77294922 C716.5560228 18.47999496 716.34275848 19.18704071 716.12303162 19.91551208 C715.42883228 22.21325128 714.72812601 24.50894842 714.02734375 26.8046875 C713.53891578 28.41735846 713.05093206 30.03016403 712.56336975 31.64309692 C711.28717583 35.86114504 710.00556619 40.07752706 708.72259521 44.29351807 C706.91067645 50.25131207 705.10621549 56.21137001 703.30091858 62.1711731 C702.34128422 65.33913967 701.37959666 68.50647143 700.41624451 71.67330933 C699.97792829 73.1166766 699.53961919 74.56004603 699.10131836 76.00341797 C698.71874374 77.26121063 698.33616913 78.5190033 697.94200134 79.81491089 C697.23837411 82.19401093 696.60172342 84.59310631 696 87 C474.9 87 253.8 87 26 87 C10.78013744 37.82813635 10.78013744 37.82813635 6.94726562 25.01635742 C6.20756293 22.54576077 5.46316484 20.07660243 4.71875 17.60742188 C4.23410915 15.99226725 3.74972159 14.37703659 3.265625 12.76171875 C3.04908264 12.04433029 2.83254028 11.32694183 2.60943604 10.58781433 C1.55726101 7.05838779 0.72442839 3.62214193 0 0 Z " fill="#F8B132" transform="translate(209,515)"/>
<path d="M0 0 C229.35 0 458.7 0 695 0 C693.6685344 6.65732802 692.24944166 12.9374384 690.25 19.375 C689.70946767 21.14448002 689.16910767 22.91401268 688.62890625 24.68359375 C688.35578613 25.57288574 688.08266602 26.46217773 687.80126953 27.37841797 C687.0539181 29.82359156 686.3185402 32.27186726 685.58984375 34.72265625 C681.18738586 49.52423472 676.57823401 64.24791263 672 79 C457.83 79 243.66 79 23 79 C18.05 62.83 13.1 46.66 8 30 C4.26484419 18.02621095 4.26484419 18.02621095 0.49633789 6.06323242 C0 4 0 4 0 0 Z " fill="#93C01E" transform="translate(241,619)"/>
<path d="M0 0 C210.21 0 420.42 0 637 0 C636.27183339 5.09716628 635.43650876 9.33209994 633.97460938 14.1887207 C633.6695623 15.20956001 633.6695623 15.20956001 633.35835266 16.25102234 C632.69169047 18.4774382 632.01786394 20.70161142 631.34375 22.92578125 C630.87636105 24.48028583 630.40936682 26.03490915 629.94274902 27.58964539 C628.96735619 30.83584794 627.9886655 34.08103028 627.00732422 37.32543945 C625.74829049 41.48814461 624.49531512 45.65264151 623.24449921 49.81782246 C622.28185666 53.02239022 621.31717965 56.22634232 620.35176086 59.43007469 C619.8888947 60.96619838 619.42639948 62.50243389 618.96427917 64.03878212 C618.31988537 66.17918559 617.67303057 68.3188288 617.02539062 70.45825195 C616.6575647 71.67623978 616.28973877 72.8942276 615.9107666 74.14912415 C615 77 615 77 614 79 C418.97 79 223.94 79 23 79 C0 3.61111111 0 3.61111111 0 0 Z " fill="#E20512" transform="translate(270,715)"/>
<path d="M0 0 C191.4 0 382.8 0 580 0 C571.56116053 29.06711371 562.79210182 58.03778225 554 87 C379.76 87 205.52 87 26 87 C24.02288003 81.72768008 22.16957104 76.53794319 20.5480957 71.1628418 C20.3233255 70.4252211 20.0985553 69.6876004 19.86697388 68.92762756 C19.13385591 66.51897486 18.40461535 64.10917087 17.67578125 61.69921875 C17.1645139 60.0138672 16.65313412 58.32854974 16.14164734 56.64326477 C15.07495844 53.12624833 14.01032412 49.60861779 12.94702148 46.09057617 C11.5830642 41.57875013 10.21287994 37.06884183 8.84104633 32.55940533 C7.78557451 29.08680194 6.73391891 25.61305176 5.68337059 22.13895607 C5.17950911 20.47475497 4.67432838 18.81095271 4.16781044 17.14755821 C3.46248108 14.82961156 2.76242871 12.51013526 2.0637207 10.19018555 C1.85336685 9.50288361 1.643013 8.81558167 1.42628479 8.10745239 C0.58185589 5.28641888 0 2.96447998 0 0 Z " fill="#DDDB00" transform="translate(299,811)"/>
<path d="M0 0 C8.89122036 4.63588921 15.84396896 11.10676106 23 18 C23.68578125 18.61101562 24.3715625 19.22203125 25.078125 19.8515625 C53.8760988 46.35053839 66.08113757 87.617118 68.19140625 125.4296875 C68.32183653 132.12510842 67.76946884 138.77276911 67.1875 145.4375 C67.08260254 146.68841431 67.08260254 146.68841431 66.97558594 147.96459961 C66.23941652 155.56752861 64.63305166 162.37909227 63 170 C-24.12 170 -111.24 170 -201 170 C-206.77122409 153.84057256 -206.77122409 153.84057256 -208.25 145.6875 C-208.40984375 144.87216797 -208.5696875 144.05683594 -208.734375 143.21679688 C-212.90299048 121.38367329 -213.00498519 97.45986844 -207 76 C-206.82339844 75.32630371 -206.64679688 74.65260742 -206.46484375 73.95849609 C-201.86285512 56.69677761 -193.02494142 43.26688056 -178.0390625 33.578125 C-170.61660042 29.72378737 -164.10569871 28.58708694 -155.796875 28.84765625 C-153.82552436 28.87589859 -151.85417004 28.90388474 -149.8828125 28.93164062 C-146.8360477 28.99311044 -143.78961463 29.06151896 -140.74316406 29.13696289 C-107.88877647 29.88658459 -79.01492272 21.34683248 -52.06958008 2.39941406 C-35.68344345 -9.07398637 -17.67147726 -8.7675466 0 0 Z " fill="#94C01F" transform="translate(621,345)"/>
<path d="M0 0 C0.99 0.495 0.99 0.495 2 1 C1.48203857 1.34144043 0.96407715 1.68288086 0.43041992 2.03466797 C-18.18553548 13.26910706 -18.18553548 13.26910706 -31 30 C-31.33660145 33.64407137 -31.33660145 33.64407137 -30 37 C-25.03253227 40.38196967 -20.26249761 42.01287831 -14.4375 43.3125 C-13.70853516 43.49361328 -12.97957031 43.67472656 -12.22851562 43.86132812 C-7.11058034 45.04522495 -3.22911833 44.90699432 1.87573242 43.47314453 C20.92397721 39.23047146 39.74256768 45.39915414 56 55 C66.81809374 62.08234914 85.80480219 75.41440658 90 88 C88.58690552 87.9685791 88.58690552 87.9685791 87.14526367 87.93652344 C83.59844886 87.86772511 80.05235865 87.81790186 76.50512695 87.78027344 C74.97962141 87.76034689 73.45419032 87.73319515 71.92895508 87.69824219 C56.13432594 87.34575293 45.02711196 90.67809152 33.22265625 101.65234375 C13.61530577 122.92397862 12.02470249 154.0409905 12.83154297 181.31152344 C13.43420705 194.50724659 15.85795964 206.97987379 19.9140625 219.53125 C21 223 21 223 22 228 C-35.75 228 -93.5 228 -153 228 C-160.03221073 213.93557854 -160.03221073 213.93557854 -161.75 207.75 C-162.05393677 206.67685547 -162.05393677 206.67685547 -162.36401367 205.58203125 C-170.46723469 175.605711 -165.94740228 141.92678825 -150.80224609 114.859375 C-140.86076788 98.28892703 -127.57987786 84.1464386 -108.671875 78.27734375 C-104.91503869 76.48131236 -102.24565672 73.85428865 -99.25 71 C-98.66089844 70.4534375 -98.07179688 69.906875 -97.46484375 69.34375 C-94.32614561 66.49284423 -94.32614561 66.49284423 -92 63 C-91.95977609 60.6670134 -91.95679753 58.33293334 -92 56 C-92.99 55.38125 -93.98 54.7625 -95 54.125 C-95.556875 53.77695312 -96.11375 53.42890625 -96.6875 53.0703125 C-102.99864419 50.14927617 -110.1802805 49.40162444 -117 48.375 C-117.87011719 48.2409375 -118.74023438 48.106875 -119.63671875 47.96875 C-121.75730331 47.64250622 -123.8785819 47.32077895 -126 47 C-120.70674263 43.64030301 -114.09738613 44.66694347 -108.05078125 44.68432617 C-105.79896108 44.68743246 -103.54852752 44.66421375 -101.296875 44.63867188 C-91.21883993 44.59671468 -81.8276653 45.79503231 -72 48 C-71.87238281 46.93056152 -71.74476563 45.86112305 -71.61328125 44.75927734 C-71.10499041 41.64356782 -70.6041794 39.59814263 -69.1875 36.8515625 C-68.83429688 36.15675781 -68.48109375 35.46195312 -68.1171875 34.74609375 C-67.74851562 34.04613281 -67.37984375 33.34617187 -67 32.625 C-66.63132812 31.90183594 -66.26265625 31.17867188 -65.8828125 30.43359375 C-63.18430261 25.18430261 -63.18430261 25.18430261 -62 24 C-60.14712498 23.92773498 -58.29166122 23.9161878 -56.4375 23.9375 C-55.42558594 23.94652344 -54.41367187 23.95554687 -53.37109375 23.96484375 C-52.58863281 23.97644531 -51.80617188 23.98804688 -51 24 C-51.20496094 24.59167969 -51.40992188 25.18335938 -51.62109375 25.79296875 C-51.89050781 26.58316406 -52.15992188 27.37335938 -52.4375 28.1875 C-52.70433594 28.96480469 -52.97117187 29.74210937 -53.24609375 30.54296875 C-54.62865554 35.04883075 -55.11928688 39.09918893 -55.0625 43.8125 C-55.05347656 44.78832031 -55.04445313 45.76414062 -55.03515625 46.76953125 C-55.02355469 47.50558594 -55.01195312 48.24164063 -55 49 C-54.55011719 48.34515625 -54.10023438 47.6903125 -53.63671875 47.015625 C-40.52580374 28.41336483 -21.66475209 8.53146562 0 0 Z " fill="#E20613" transform="translate(398,287)"/>
<path d="M0 0 C3.21184753 0.53369068 6.3764679 1.14762703 9.5625 1.8125 C11.13257813 2.13504761 11.13257813 2.13504761 12.734375 2.46411133 C15.25459888 2.98309308 17.77419086 3.5047429 20.29345703 4.02832031 C24.8753971 4.97784284 29.46179005 5.90488874 34.04832458 6.83192444 C38.42834624 7.71895749 42.80669982 8.61404768 47.18478394 9.5105896 C49.3999852 9.9628958 51.61575039 10.4124486 53.83206177 10.85928345 C56.98352548 11.49568328 60.13255656 12.14302069 63.28125 12.79296875 C64.24683334 12.98555267 65.21241669 13.1781366 66.20726013 13.3765564 C67.08825882 13.56062042 67.96925751 13.74468445 68.87695312 13.93432617 C69.65204224 14.09245285 70.42713135 14.25057953 71.22570801 14.41349792 C71.81122437 14.60704361 72.39674072 14.80058929 73 15 C74 17 74 17 73.43309021 19.02088928 C73.10639847 19.85712326 72.77970673 20.69335724 72.44311523 21.55493164 C72.07272125 22.51424088 71.70232727 23.47355011 71.32070923 24.46192932 C70.90421112 25.51734421 70.48771301 26.57275909 70.05859375 27.66015625 C69.62888275 28.76701279 69.19917175 29.87386932 68.75643921 31.01426697 C67.57222992 34.06076657 66.38129989 37.10453848 65.18762589 40.14733887 C63.92687962 43.36617492 62.67500829 46.58845667 61.42260742 49.81054688 C59.59468528 54.51144122 57.76436337 59.21138675 55.93100071 63.91016197 C51.3136395 75.74560473 46.74526466 87.5998033 42.17852783 99.4548645 C34.43697911 119.54584548 26.66112244 139.62346366 18.87075806 159.69555664 C13.72486282 172.95519619 8.5991452 186.22231528 3.5 199.5 C-1.95364503 213.69568272 -7.42100325 227.88604269 -12.90869141 242.06860352 C-13.7524242 244.25009897 -14.59537732 246.43189616 -15.4375 248.61401367 C-16.61630769 251.66800403 -17.79803295 254.72085034 -18.98046875 257.7734375 C-19.32776535 258.67488495 -19.67506195 259.5763324 -20.03288269 260.50509644 C-20.53130424 261.78913864 -20.53130424 261.78913864 -21.03979492 263.09912109 C-21.32320236 263.83198334 -21.6066098 264.56484558 -21.89860535 265.31991577 C-23.51350485 269.24953961 -25.27451635 273.11766178 -27 277 C-53.4 277 -79.8 277 -107 277 C-105.04794454 270.49314846 -103.05410115 264.23932712 -100.5859375 257.9453125 C-100.259422 257.10336838 -99.93290649 256.26142426 -99.59649658 255.39396667 C-98.52615922 252.63627192 -97.45056074 249.88066121 -96.375 247.125 C-95.61206628 245.16185833 -94.84954153 243.19855768 -94.08740234 241.23510742 C-92.50709502 237.16475564 -90.92504295 233.09508845 -89.34179688 229.02587891 C-86.10006626 220.68978565 -82.88164633 212.34471351 -79.66210938 204.00003052 C-72.84801736 186.34222058 -66.00484889 168.69573041 -59.15777588 151.0506897 C-53.91654268 137.54218119 -48.69425118 124.02664068 -43.5 110.5 C-35.50693556 89.68739333 -27.45036444 68.8995321 -19.37646484 48.11816406 C-17.78696444 44.02686434 -16.19881295 39.93504503 -14.61181641 35.84277344 C-12.72290687 30.97224804 -10.83136301 26.10275426 -8.93771362 21.23406982 C-8.23297936 19.42098243 -7.52913253 17.60754982 -6.82620239 15.79376221 C-5.86317569 13.30945259 -4.89687809 10.8264409 -3.9296875 8.34375 C-3.6452327 7.60776581 -3.36077789 6.87178162 -3.06770325 6.11349487 C-1.11418298 1.11418298 -1.11418298 1.11418298 0 0 Z " fill="#F8B233" transform="translate(964,215)"/>
<path d="M0 0 C10.86487025 3.3734947 20.28860799 10.63462082 28.35546875 18.45703125 C32.34224216 22.2480716 36.70167642 24.41001895 41.6171875 26.76953125 C55.03908574 33.38239844 55.03908574 33.38239844 57.6796875 37.83203125 C63.73816358 57.81211193 62.02762657 81.18147729 61.6796875 101.83203125 C61.66711914 102.6729834 61.65455078 103.51393555 61.64160156 104.38037109 C60.8739155 143.90053636 48.5471508 180.83217341 28.6796875 214.83203125 C28.11636719 215.84007812 27.55304688 216.848125 26.97265625 217.88671875 C23.30854959 220.99527943 19.56066686 220.36684562 14.9296875 220.14453125 C14.04152344 220.12197266 13.15335938 220.09941406 12.23828125 220.07617188 C10.05035938 220.01735677 7.86589079 219.93524393 5.6796875 219.83203125 C5.86144531 218.68154297 5.86144531 218.68154297 6.046875 217.5078125 C13.10805426 170.74107908 8.8365753 124.88888063 -19.9453125 85.64453125 C-24.40575623 79.74477752 -29.19944166 74.16980823 -34.3203125 68.83203125 C-35.00996094 68.10242188 -35.69960938 67.3728125 -36.41015625 66.62109375 C-40.42886751 62.47125372 -44.51337812 59.03665417 -49.3203125 55.83203125 C-44.69912694 45.52323268 -36.29136039 38.34783968 -28.1171875 30.796875 C-25.84094087 28.30784879 -24.31256396 25.62986922 -22.6328125 22.70703125 C-18.87822403 16.39237463 -14.52208486 11.04317617 -9.3203125 5.83203125 C-8.67707031 5.1771875 -8.03382813 4.52234375 -7.37109375 3.84765625 C-3.06798697 -0.22209333 -3.06798697 -0.22209333 0 0 Z " fill="#DEDC00" transform="translate(678.3203125,295.16796875)"/>
<path d="M0 0 C12.16368735 6.49150154 20.44055388 16.65927699 25.015625 29.609375 C28.0904899 44.15213227 25.59333605 57.00785994 18.015625 69.609375 C13.36631683 76.01073825 7.96654412 80.84190813 1.015625 84.609375 C0.26410156 85.02316406 -0.48742187 85.43695312 -1.26171875 85.86328125 C-11.55260778 90.52913457 -26.39971478 90.5660953 -37.109375 87.109375 C-50.96006087 80.87766737 -59.0609137 71.24069433 -64.984375 57.609375 C-68.67177563 47.55282781 -68.46770004 34.94396223 -64.234375 25.125 C-63.821875 24.29484375 -63.409375 23.4646875 -62.984375 22.609375 C-62.571875 21.75859375 -62.159375 20.9078125 -61.734375 20.03125 C-49.75426008 -2.15919013 -22.63984079 -9.54950631 0 0 Z " fill="#94C11F" transform="translate(451.984375,931.390625)"/>
<path d="M0 0 C9.80767653 7.12691161 17.70138872 16.9019089 20.25 29.0078125 C21.96994267 43.57954898 19.72970138 56.158015 11.53125 68.390625 C4.26912152 77.41752879 -6.33809035 84.22977401 -17.96704102 85.70825195 C-20.58015261 85.86296416 -23.16369008 85.90981884 -25.78125 85.890625 C-27.16546143 85.88095703 -27.16546143 85.88095703 -28.57763672 85.87109375 C-41.45944436 85.52691467 -52.42188688 79.81073298 -61.3125 70.44921875 C-70.6204873 58.6955103 -73.67938316 46.19061533 -72.46875 31.390625 C-70.80496656 23.35530727 -67.40866192 16.87344904 -62.46875 10.390625 C-61.72625 9.359375 -60.98375 8.328125 -60.21875 7.265625 C-44.56508943 -9.0995656 -19.0598263 -12.42507664 0 0 Z " fill="#94C11F" transform="translate(747.46875,934.609375)"/>
<path d="M0 0 C14.31116467 4.38816914 26.53096798 11.36512917 38 21 C38.9590625 21.76054687 39.918125 22.52109375 40.90625 23.3046875 C54.32780226 34.53526659 63.04609974 51.76380841 65 69 C66.09301046 83.41559353 65.96243043 100.40108965 56 112 C51.56603979 116.44541748 47.35513121 119.27673031 41 119.4375 C25.8036894 119.09396638 13.55435455 108.24157607 3.5078125 97.8515625 C-3.22164447 90.19968776 -7.58835217 81.55772501 -11 72 C-11.36738281 70.99066406 -11.73476563 69.98132813 -12.11328125 68.94140625 C-18.24851755 46.62315213 -10.98276878 21.00592846 -1 1 C-0.67 0.67 -0.34 0.34 0 0 Z " fill="#94C11F" transform="translate(446,198)"/>
<path d="M0 0 C23.76 0 47.52 0 72 0 C67.45411532 18.18353873 67.45411532 18.18353873 65.0625 24.9375 C63.1225602 30.59291771 61.28279968 36.255385 59.625 42 C57.40864647 49.66919808 55.09294037 57.30603008 52.75 64.9375 C52.21947021 66.67290039 52.21947021 66.67290039 51.67822266 68.44335938 C51.18008057 70.06274414 51.18008057 70.06274414 50.671875 71.71484375 C50.3737793 72.68542725 50.07568359 73.65601074 49.76855469 74.65600586 C49 77 49 77 48 79 C24.57 79 1.14 79 -23 79 C-20.7497924 68.87406581 -20.7497924 68.87406581 -19.38354492 64.27514648 C-19.07950241 63.24634872 -18.7754599 62.21755096 -18.46220398 61.15757751 C-18.13823135 60.07303787 -17.81425873 58.98849823 -17.48046875 57.87109375 C-17.14002029 56.72318863 -16.79957184 55.57528351 -16.44880676 54.39259338 C-15.72992789 51.97085421 -15.0095785 49.54955112 -14.2878418 47.12866211 C-13.19841101 43.47410164 -12.11344385 39.81824038 -11.02929688 36.16210938 C-10.3257848 33.79419239 -9.62201672 31.42635145 -8.91796875 29.05859375 C-8.60006882 27.98822372 -8.28216888 26.9178537 -7.95463562 25.81504822 C-5.37967028 17.18364725 -2.68737888 8.5996124 0 0 Z " fill="#94C11F" transform="translate(1071,619)"/>
<path d="M0 0 C15.84 0 31.68 0 48 0 C47.34049893 4.61650746 46.73317418 8.33889801 45.40527344 12.68139648 C45.08113464 13.75038681 44.75699585 14.81937714 44.42303467 15.92076111 C44.07202698 17.05937088 43.72101929 18.19798065 43.359375 19.37109375 C42.99531555 20.56622086 42.6312561 21.76134796 42.25616455 22.99269104 C41.28856921 26.1654607 40.31648366 29.33678271 39.34222412 32.50750732 C38.3686697 35.68021311 37.40153309 38.85487435 36.43359375 42.02929688 C32.66678981 54.36712832 28.84784172 66.6869065 25 79 C9.16 79 -6.68 79 -23 79 C-20.50787152 69.03148609 -17.97742111 59.23150699 -14.9609375 49.43359375 C-14.59400787 48.22985611 -14.22707825 47.02611847 -13.84902954 45.78590393 C-12.69478059 42.00194148 -11.53509573 38.21967353 -10.375 34.4375 C-9.20837364 30.6230142 -8.04406725 26.80782028 -6.87954712 22.99269104 C-6.15947062 20.63503403 -5.43831468 18.27770635 -4.71591187 15.92076111 C-4.38862091 14.85177078 -4.06132996 13.78278046 -3.72412109 12.68139648 C-3.43862396 11.75036606 -3.15312683 10.81933563 -2.85897827 9.86009216 C-1.87465385 6.58264188 -0.9401154 3.29040392 0 0 Z " fill="#E20713" transform="translate(1042,715)"/>
<path d="M0 0 C4.48657297 0.01099407 8.97311645 0.01046288 13.45970058 0.00986195 C17.86014133 0.01013525 22.26056303 0.01563685 26.66099739 0.02286339 C28.72072266 0.02599471 30.78045002 0.02800412 32.84017754 0.0287571 C44.89792136 0.03803875 56.84404341 0.36856801 68.87524414 1.19561768 C69.20524414 8.45561768 69.53524414 15.71561768 69.87524414 23.19561768 C14.10524414 23.52561768 -41.66475586 23.85561768 -99.12475586 24.19561768 C-98.51276546 16.85173291 -97.88671889 9.52343235 -97.12475586 2.19561768 C-64.73304678 0.55869777 -32.43097037 -0.10060878 0 0 Z " fill="#95C122" transform="translate(591.124755859375,965.8043823242188)"/>
<path d="M0 0 C14.52 0 29.04 0 44 0 C35.36606008 29.01003812 26.70706593 58.01184147 18 87 C3.81 87 -10.38 87 -25 87 C-23.875 79.125 -23.875 79.125 -22.96861267 76.12110901 C-22.76529831 75.43835403 -22.56198395 74.75559906 -22.35250854 74.05215454 C-22.1316861 73.32926239 -21.91086365 72.60637024 -21.68334961 71.86157227 C-21.44911789 71.08026443 -21.21488617 70.2989566 -20.97355652 69.49397278 C-20.20459878 66.93331771 -19.42853209 64.37487789 -18.65234375 61.81640625 C-18.11524569 60.03292399 -17.57859555 58.24930679 -17.04237366 56.46556091 C-15.63466374 51.78714716 -14.22090037 47.11058428 -12.80584717 42.43438721 C-11.10668705 36.81474981 -9.41509195 31.19283122 -7.72222137 25.57129669 C-5.15392317 17.04577427 -2.57606247 8.52319694 0 0 Z " fill="#DDDB01" transform="translate(895,811)"/>
<path d="M0 0 C0.72106934 0.00088623 1.44213867 0.00177246 2.18505859 0.00268555 C13.21676486 0.23661947 24.10974337 2.78795989 34.125 7.375 C33.64957885 19.26052879 27.42584812 30.27517493 20.125 39.375 C19.44566406 40.22964844 18.76632812 41.08429688 18.06640625 41.96484375 C8.87445369 52.8608303 -2.77526781 59.15962358 -16.875 61.375 C-28.16653829 62.07285596 -37.19057135 61.83128577 -46.875 55.375 C-50.60083513 51.64916487 -51.20570444 48.46413624 -51.3125 43.25 C-51.06760843 30.35717916 -42.62529413 20.7512013 -33.6875 12.125 C-24.35472794 4.14854775 -12.20115902 -0.02773654 0 0 Z " fill="#94C11F" transform="translate(580.875,268.625)"/>
<path d="M0 0 C0.66 0 1.32 0 2 0 C12.66075152 21.68846065 21.42952924 43.4764199 26.25 67.25 C26.40098145 67.99217773 26.55196289 68.73435547 26.70751953 69.49902344 C29.52932775 84.26659248 30.37070663 98.69048534 30.3125 113.6875 C30.31134186 114.61309723 30.31018372 115.53869446 30.30899048 116.49234009 C30.27582388 129.89150022 29.71575676 142.8440849 27 156 C26.74275189 157.40564251 26.48880392 158.81189328 26.23828125 160.21875 C24.94469435 167.3001557 23.23139429 174.15975989 21 181 C20.7218042 181.87197021 20.4436084 182.74394043 20.15698242 183.64233398 C17.69994334 191.21027332 14.85561931 198.55103248 11.75 205.875 C11.27127441 207.00671631 10.79254883 208.13843262 10.29931641 209.30444336 C1.69940907 229.30059093 1.69940907 229.30059093 -3 234 C-4.56172745 234.08685603 -6.12729344 234.10702219 -7.69140625 234.09765625 C-8.63564453 234.09443359 -9.57988281 234.09121094 -10.55273438 234.08789062 C-11.54595703 234.07951172 -12.53917969 234.07113281 -13.5625 234.0625 C-14.55958984 234.05798828 -15.55667969 234.05347656 -16.58398438 234.04882812 C-19.05604849 234.03700007 -21.52799518 234.02051849 -24 234 C-23.55011719 233.25621094 -23.10023438 232.51242187 -22.63671875 231.74609375 C-1.5207571 195.90397047 11.37511789 157.811022 12 116 C12.01514648 115.10104004 12.03029297 114.20208008 12.04589844 113.27587891 C12.30887433 94.76173496 12.4698709 75.99035129 9.10424805 57.72753906 C8.31927192 53.43030432 7.85947475 49.23038789 7.59375 44.8671875 C7.07568868 37.49979897 5.59493498 30.44977726 4 23.25 C2.30541166 15.50445235 0.68454176 7.90645728 0 0 Z " fill="#E49E2D" transform="translate(727,281)"/>
<path d="M0 0 C13.86 0 27.72 0 42 0 C38.55272657 13.7890937 38.55272657 13.7890937 36.65576172 20.03173828 C36.44235138 20.74228867 36.22894104 21.45283905 36.00906372 22.18492126 C35.31869432 24.48089239 34.62432361 26.77562902 33.9296875 29.0703125 C33.44293077 30.68498976 32.95637223 32.29972678 32.47000122 33.91452026 C31.45817562 37.27167728 30.44443547 40.62824787 29.42919922 43.984375 C28.12691173 48.2897567 26.82881289 52.59638768 25.53202629 56.90342903 C24.53145087 60.225453 23.52905716 63.54692601 22.52606583 66.86822128 C22.04633689 68.45734035 21.567094 70.04660623 21.08834457 71.63602066 C20.42251195 73.8452981 19.75432205 76.05384844 19.08544922 78.26220703 C18.70589081 79.51840851 18.3263324 80.77460999 17.93527222 82.06887817 C17 85 17 85 16 87 C2.47 87 -11.06 87 -25 87 C-24.29450876 81.35607011 -23.44567772 76.5011068 -21.79101562 71.1628418 C-21.56814377 70.4252211 -21.34527191 69.6876004 -21.11564636 68.92762756 C-20.38536533 66.51622959 -19.64591629 64.10775274 -18.90625 61.69921875 C-18.39385081 60.01407044 -17.8820189 58.32874954 -17.37072754 56.64326477 C-16.02884237 52.22534119 -14.67908498 47.80986119 -13.32769775 43.39483643 C-11.95177394 38.89429423 -10.58375178 34.39135187 -9.21484375 29.88867188 C-7.21681682 23.32130925 -5.21629842 16.75471608 -3.20898438 10.19018555 C-2.89413338 9.15923264 -2.89413338 9.15923264 -2.57292175 8.10745239 C-1.74257737 5.3946281 -0.89720876 2.69162628 0 0 Z " fill="#DDDB01" transform="translate(955,811)"/>
<path d="M0 0 C14.19 0 28.38 0 43 0 C41.80597207 5.97013967 40.7021679 11.40701175 38.95288086 17.14624023 C38.75912369 17.78661728 38.56536652 18.42699432 38.36573792 19.08677673 C37.73659812 21.16211207 37.10082714 23.23534651 36.46484375 25.30859375 C36.02128986 26.76672825 35.57814623 28.2249876 35.13539124 29.68336487 C33.97771791 33.49249595 32.8143191 37.29985442 31.64971924 41.10687256 C30.46265744 44.99134892 29.28149642 48.87761864 28.09960938 52.76367188 C26.37516329 58.42982535 24.64914024 64.09549341 22.91772461 69.75952148 C22.57067978 70.89518051 22.22363495 72.03083954 21.86607361 73.20091248 C21.26584159 75.14081913 20.64214611 77.07356166 20 79 C5.81 79 -8.38 79 -23 79 C-20.74998726 67.7499363 -20.74998726 67.7499363 -19.27587891 62.93041992 C-18.94858795 61.85197311 -18.621297 60.77352631 -18.28408813 59.66239929 C-17.93510468 58.52986221 -17.58612122 57.39732513 -17.2265625 56.23046875 C-16.86154633 55.03247147 -16.49653015 53.83447418 -16.12045288 52.60017395 C-15.15548706 49.43626359 -14.18641562 46.27365129 -13.215271 43.1116333 C-12.23893207 39.92901676 -11.26823143 36.74468766 -10.296875 33.56054688 C-6.88024886 22.36886472 -3.44127284 11.18413671 0 0 Z " fill="#E20713" transform="translate(924,715)"/>
<path d="M0 0 C14.19 0 28.38 0 43 0 C40.36181379 10.55274484 37.62091309 20.955686 34.453125 31.34375 C34.03252169 32.73325621 33.61226109 34.12286621 33.19232178 35.51257324 C32.10415357 39.11042835 31.01144412 42.70688731 29.91766357 46.30303955 C28.59659957 50.65002728 27.28139337 54.99879071 25.96516418 59.34724426 C23.9811726 65.89950705 21.98992054 72.44952226 20 79 C5.81 79 -8.38 79 -23 79 C-20.7498499 67.74924949 -20.7498499 67.74924949 -19.49121094 63.57641602 C-19.21041687 62.63745987 -18.9296228 61.69850372 -18.64031982 60.73109436 C-18.34135803 59.74862228 -18.04239624 58.76615021 -17.734375 57.75390625 C-17.41849426 56.70331528 -17.10261353 55.6527243 -16.77716064 54.57029724 C-16.11026198 52.35521753 -15.44117879 50.14079445 -14.77001953 47.92700195 C-13.76269772 44.60438303 -12.76157294 41.27995094 -11.76171875 37.95507812 C-11.10713661 35.78374386 -10.45219938 33.61251661 -9.796875 31.44140625 C-9.50601013 30.47715225 -9.21514526 29.51289825 -8.91546631 28.51942444 C-6.02383605 18.98594755 -3.00069591 9.50220372 0 0 Z " fill="#94C11F" transform="translate(953,619)"/>
<path d="M0 0 C1.77206192 0.00015919 3.54412846 0.00585754 5.31616211 0.01586914 C6.24698105 0.01728409 7.17779999 0.01869904 8.13682556 0.02015686 C11.12241777 0.02577367 14.10793615 0.03832899 17.09350586 0.05102539 C19.11238499 0.05603823 21.13126529 0.06060151 23.15014648 0.06469727 C28.11046158 0.07574856 33.07072118 0.09302444 38.03100586 0.11352539 C37.7228167 1.13828476 37.7228167 1.13828476 37.40840149 2.18374634 C37.1385997 3.08176971 36.86879791 3.97979309 36.59082031 4.9050293 C36.32348587 5.79445221 36.05615143 6.68387512 35.78071594 7.60025024 C34.89916252 10.55550768 34.05412683 13.51997237 33.21850586 16.48852539 C30.90030114 24.62394794 28.47075969 32.72424755 26.0246582 40.82202148 C25.28173722 43.28297005 24.53990626 45.7442338 23.79907227 48.20581055 C22.66886361 51.96093349 21.53660511 55.7154336 20.40313721 59.46957397 C19.94743261 60.97983436 19.49231188 62.49027104 19.03778076 64.00088501 C18.39532831 66.13531356 17.75055593 68.26902826 17.10522461 70.40258789 C16.54194458 72.26971436 16.54194458 72.26971436 15.96728516 74.17456055 C15.03100586 77.11352539 15.03100586 77.11352539 14.03100586 79.11352539 C0.50100586 79.11352539 -13.02899414 79.11352539 -26.96899414 79.11352539 C-26.32642636 73.97298311 -25.82521208 70.05278378 -24.35839844 65.28686523 C-23.86734871 63.67380997 -23.86734871 63.67380997 -23.36637878 62.02816772 C-23.01223404 60.88844513 -22.65808929 59.74872253 -22.29321289 58.57446289 C-21.92678177 57.37600739 -21.56035065 56.17755188 -21.18281555 54.94277954 C-20.21084345 51.76730509 -19.2333868 48.5936334 -18.25292969 45.42077637 C-16.88281144 40.98205314 -15.52319611 36.54010121 -14.16230774 32.09854126 C-13.43978193 29.7425718 -12.71530276 27.3872001 -11.9884491 25.03256226 C-10.5729937 20.43397747 -9.16467605 15.83630203 -7.86099243 11.20465088 C-7.67943761 10.55974512 -7.49788279 9.91483936 -7.3108263 9.25039101 C-6.8030761 7.43621483 -6.30060163 5.62056452 -5.79841614 3.80484009 C-4.66696205 0.13348941 -4.66696205 0.13348941 0 0 Z " fill="#94C11F" transform="translate(1016.968994140625,618.886474609375)"/>
<path d="M0 0 C13.86 0 27.72 0 42 0 C37.56050572 15.6621393 32.98800058 31.28110212 28.33911133 46.88232422 C27.36330514 50.157414 26.39165893 53.43372397 25.42083263 56.71029282 C24.48518474 59.8649893 23.54503732 63.0183444 22.60546875 66.171875 C22.25759811 67.34764099 21.90972748 68.52340698 21.55131531 69.73480225 C21.23040421 70.80812805 20.9094931 71.88145386 20.57885742 72.98730469 C20.29717209 73.93434265 20.01548676 74.88138062 19.7252655 75.8571167 C19 78 19 78 18 79 C14.97022196 79.08871273 11.96332978 79.1151935 8.93359375 79.09765625 C8.02497086 79.0962413 7.11634796 79.09482635 6.18019104 79.09336853 C3.26592779 79.08775193 0.35174019 79.07519665 -2.5625 79.0625 C-4.53320202 79.05748714 -6.50390524 79.05292386 -8.47460938 79.04882812 C-13.31643559 79.03777711 -18.15820495 79.02050138 -23 79 C-22.39917518 74.09138985 -21.39932074 69.54435658 -19.97460938 64.8112793 C-19.77124466 64.13071976 -19.56787994 63.45016022 -19.35835266 62.74897766 C-18.69169047 60.5225618 -18.01786394 58.29838858 -17.34375 56.07421875 C-16.87636105 54.51971417 -16.40936682 52.96509085 -15.94274902 51.41035461 C-14.96735619 48.16415206 -13.9886655 44.91896972 -13.00732422 41.67456055 C-11.74829049 37.51185539 -10.49531512 33.34735849 -9.24449921 29.18217754 C-8.28185666 25.97760978 -7.31717965 22.77365768 -6.35176086 19.56992531 C-5.8888947 18.03380162 -5.42639948 16.49756611 -4.96427917 14.96121788 C-4.31988537 12.82081441 -3.67303057 10.6811712 -3.02539062 8.54174805 C-2.6575647 7.32376022 -2.28973877 6.1057724 -1.9107666 4.85087585 C-1 2 -1 2 0 0 Z " fill="#E20713" transform="translate(984,715)"/>
<path d="M0 0 C0.99 0.495 0.99 0.495 2 1 C1.22305786 1.51216064 1.22305786 1.51216064 0.43041992 2.03466797 C-18.18553548 13.26910706 -18.18553548 13.26910706 -31 30 C-31.33660145 33.64407137 -31.33660145 33.64407137 -30 37 C-24.93267909 40.48747054 -20.16657982 41.93229544 -14.1875 43.125 C-6.25159405 44.74840595 -6.25159405 44.74840595 -4 47 C-4.71542969 47.4125 -5.43085938 47.825 -6.16796875 48.25 C-11.65782512 51.43170201 -17.07565526 54.66884461 -22.4375 58.0625 C-28.73327329 61.95593875 -35.20461278 65.08270009 -42 68 C-42.81726563 68.36867188 -43.63453125 68.73734375 -44.4765625 69.1171875 C-64.19178656 77.62308684 -84.8782359 78.33840638 -106 78 C-103.51220063 74.75358916 -101.01629528 71.99075539 -97.875 69.375 C-95.3673258 67.28369434 -93.84000804 65.76001206 -92 63 C-91.92094936 60.66800612 -91.91201231 58.33167378 -92 56 C-92.99 55.38125 -93.98 54.7625 -95 54.125 C-95.8353125 53.60292969 -95.8353125 53.60292969 -96.6875 53.0703125 C-102.99864419 50.14927617 -110.1802805 49.40162444 -117 48.375 C-117.87011719 48.2409375 -118.74023438 48.106875 -119.63671875 47.96875 C-121.75730331 47.64250622 -123.8785819 47.32077895 -126 47 C-120.70674263 43.64030301 -114.09738613 44.66694347 -108.05078125 44.68432617 C-105.79896108 44.68743246 -103.54852752 44.66421375 -101.296875 44.63867188 C-91.21883993 44.59671468 -81.8276653 45.79503231 -72 48 C-71.87238281 46.93056152 -71.74476563 45.86112305 -71.61328125 44.75927734 C-71.10499041 41.64356782 -70.6041794 39.59814263 -69.1875 36.8515625 C-68.83429688 36.15675781 -68.48109375 35.46195312 -68.1171875 34.74609375 C-67.74851562 34.04613281 -67.37984375 33.34617187 -67 32.625 C-66.63132812 31.90183594 -66.26265625 31.17867188 -65.8828125 30.43359375 C-63.18430261 25.18430261 -63.18430261 25.18430261 -62 24 C-60.14712498 23.92773498 -58.29166122 23.9161878 -56.4375 23.9375 C-55.42558594 23.94652344 -54.41367187 23.95554687 -53.37109375 23.96484375 C-52.58863281 23.97644531 -51.80617188 23.98804688 -51 24 C-51.20496094 24.59167969 -51.40992188 25.18335938 -51.62109375 25.79296875 C-51.89050781 26.58316406 -52.15992188 27.37335938 -52.4375 28.1875 C-52.70433594 28.96480469 -52.97117187 29.74210937 -53.24609375 30.54296875 C-54.62865554 35.04883075 -55.11928688 39.09918893 -55.0625 43.8125 C-55.05347656 44.78832031 -55.04445313 45.76414062 -55.03515625 46.76953125 C-55.02355469 47.50558594 -55.01195312 48.24164063 -55 49 C-54.55011719 48.34515625 -54.10023438 47.6903125 -53.63671875 47.015625 C-40.52580374 28.41336483 -21.66475209 8.53146562 0 0 Z " fill="#94C020" transform="translate(398,287)"/>
<path d="M0 0 C0.66 0 1.32 0 2 0 C8.83400778 12.60451003 13.01154379 25.17652347 16.1875 39.125 C16.4198938 40.14352051 16.4198938 40.14352051 16.65698242 41.18261719 C19.42372476 53.98463672 20.37819601 66.51180818 20.3125 79.5625 C20.30876877 80.74978699 20.30876877 80.74978699 20.30496216 81.96105957 C20.16121434 111.60223304 13.70823889 140.74962316 -0.0625 167.1875 C-0.37888428 167.79988525 -0.69526855 168.41227051 -1.02124023 169.04321289 C-3.21572527 173.07910569 -5.65947656 175.92579212 -9 179 C-9.44451531 172.24529991 -7.78387115 166.20339158 -6.125 159.6875 C-4.23978561 152.15115251 -2.41952824 144.6390459 -1 137 C-0.80019531 135.92758057 -0.60039063 134.85516113 -0.39453125 133.75024414 C2.51606756 117.81098972 4.85591206 102.23123994 5 86 C5.01901367 84.82775879 5.03802734 83.65551758 5.05761719 82.44775391 C5.43226788 58.13538042 4.66610471 34.00100683 0.5859375 9.9765625 C0.0368406 6.62309245 -0.11889265 3.4046532 0 0 Z " fill="#E59E2D" transform="translate(816,315)"/>
<path d="M0 0 C6.6 0 13.2 0 20 0 C19.21238281 2.60519531 18.42476562 5.21039062 17.61328125 7.89453125 C17.33937561 8.80063141 17.06546997 9.70673157 16.78326416 10.64028931 C15.37664316 15.29342282 13.9694892 19.9463943 12.56152344 24.59912109 C9.7650367 33.84211942 6.97180603 43.08603902 4.19572449 52.33518982 C3.00260871 56.30973805 1.80722093 60.28360132 0.61166382 64.25741577 C0.03681083 66.17050453 -0.53689787 68.08393751 -1.10946655 69.99771118 C-1.90866851 72.66861114 -2.71171781 75.33832567 -3.515625 78.0078125 C-3.75358292 78.80681473 -3.99154083 79.60581696 -4.23670959 80.42903137 C-5.88613382 85.88613382 -5.88613382 85.88613382 -7 87 C-8.34267413 87.08631874 -9.68974322 87.10706473 -11.03515625 87.09765625 C-11.84404297 87.09443359 -12.65292969 87.09121094 -13.48632812 87.08789062 C-14.33646484 87.07951172 -15.18660156 87.07113281 -16.0625 87.0625 C-16.91650391 87.05798828 -17.77050781 87.05347656 -18.65039062 87.04882812 C-20.76695663 87.03700373 -22.88348685 87.01906769 -25 87 C-23.67898357 79.58433322 -21.76481175 72.46825582 -19.55078125 65.2734375 C-19.21507614 64.16811676 -18.87937103 63.06279602 -18.53349304 61.92398071 C-17.46427722 58.4062809 -16.38871755 54.8905633 -15.3125 51.375 C-13.91069361 46.77927396 -12.51155899 42.18273825 -11.11328125 37.5859375 C-10.77112579 36.46249939 -10.42897034 35.33906128 -10.07644653 34.18157959 C-6.62302363 22.81518268 -3.29789641 11.41234614 0 0 Z " fill="#DEDC03" transform="translate(1013,811)"/>
<path d="M0 0 C8.21472635 -0.54933161 14.82960512 2.38672575 22.12768555 5.72998047 C24.18306168 6.67101984 26.24990062 7.58191288 28.32055664 8.48876953 C38.37032006 12.95548387 38.37032006 12.95548387 39.53540039 15.28564453 C35.76505273 16.39147402 31.99403267 17.49499401 28.22290039 18.59814453 C26.64412109 19.06124023 26.64412109 19.06124023 25.03344727 19.53369141 C22.9108673 20.15413786 20.78698953 20.77016098 18.66186523 21.38183594 C16.62712905 21.97004407 14.5959246 22.57065752 12.5690918 23.18554688 C11.63629395 23.45963379 10.70349609 23.7337207 9.74243164 24.01611328 C8.9287915 24.26127686 8.11515137 24.50644043 7.27685547 24.7590332 C1.1242924 25.94089076 -4.55214381 25.26924301 -10.63647461 24.03564453 C-11.63951881 23.83492088 -11.63951881 23.83492088 -12.66282654 23.63014221 C-14.84847576 23.19003914 -17.03150865 22.73825288 -19.21459961 22.28564453 C-20.74489381 21.97406735 -22.27524976 21.66279334 -23.80566406 21.35180664 C-40.74056677 17.88860343 -57.60757548 14.10732845 -74.46459961 10.28564453 C-74.46459961 9.95564453 -74.46459961 9.62564453 -74.46459961 9.28564453 C-73.30226807 9.14989014 -72.13993652 9.01413574 -70.94238281 8.87426758 C-43.160671 5.68228222 -43.160671 5.68228222 -15.46069336 1.86376953 C-10.31352035 1.10642666 -5.16468732 0.59858189 0 0 Z " fill="#F8B234" transform="translate(1044.464599609375,190.71435546875)"/>
<path d="M0 0 C-1.40377629 11.68373807 -13.75984809 22.91504976 -22.36328125 29.92578125 C-40.07887918 43.00227006 -60.26005413 48.42459149 -82.09765625 45.4921875 C-92.79208505 43.82595276 -104.5060582 41.03783749 -113 34 C-113 33.34 -113 32.68 -113 32 C-112.0934668 31.97494385 -111.18693359 31.9498877 -110.25292969 31.92407227 C-106.83096999 31.82790325 -103.4091221 31.72874713 -99.98730469 31.62768555 C-98.51728604 31.58485545 -97.04723399 31.54315419 -95.57714844 31.50268555 C-61.55713105 30.56284196 -33.1687533 21.90680136 -5.57421875 1.65234375 C-3 0 -3 0 0 0 Z " fill="#89AD26" transform="translate(582,356)"/>
<path d="M0 0 C13.16562766 4.29566335 22.21565534 22.8065534 28.24511719 34.39257812 C32.92967617 43.90449383 36.66693768 53.63981733 39 64 C39.17515137 64.76699219 39.35030273 65.53398437 39.53076172 66.32421875 C41.17472555 74.25513437 41.38438418 82.04324795 41.375 90.125 C41.37545319 90.80476898 41.37590637 91.48453796 41.37637329 92.18490601 C41.35585401 102.66810053 41.06171778 113.17852189 37 123 C36.01 123.66 35.02 124.32 34 125 C31.96333162 122.96333162 32.3040827 118.98519232 31.984375 116.1796875 C31.78670102 114.52425499 31.58835025 112.86890318 31.3894043 111.21362305 C31.28558441 110.34200531 31.18176453 109.47038757 31.07479858 108.57235718 C26.87858477 73.72402959 18.45168204 41.8702018 3.58740234 9.96826172 C2.90025146 8.48156982 2.90025146 8.48156982 2.19921875 6.96484375 C1.56826294 5.61120728 1.56826294 5.61120728 0.92456055 4.23022461 C0 2 0 2 0 0 Z " fill="#88AD26" transform="translate(640,375)"/>
<path d="M0 0 C0.66 0 1.32 0 2 0 C2.48913541 1.93500736 2.96565717 3.8732034 3.4375 5.8125 C3.70433594 6.89144531 3.97117187 7.97039062 4.24609375 9.08203125 C6.71321835 21.90340936 6.19744132 35.00603817 6 48 C5.98324219 49.25039063 5.96648438 50.50078125 5.94921875 51.7890625 C4.75180481 79.36379505 -3.87674455 110.21016081 -18 134 C-18.66 134 -19.32 134 -20 134 C-19.46675078 126.52730484 -18.06723879 119.47358856 -16.375 112.1875 C-8.20329958 75.26749775 -4.1599939 37.53695775 0 0 Z " fill="#C4BF01" transform="translate(726,355)"/>
<path d="M0 0 C-2.52723866 2.57778343 -5.11355608 4.98911646 -7.875 7.3125 C-17.91204716 16.12732371 -25.78159829 27.90860659 -29 41 C-29.20238281 41.72832031 -29.40476562 42.45664062 -29.61328125 43.20703125 C-32.81811805 56.35340262 -30.95339857 69.05401456 -28 82 C-27.65191872 83.99748605 -27.31356984 85.99680628 -27 88 C-29.64 88.33 -32.28 88.66 -35 89 C-43.89877455 68.65994389 -43.15811883 45.3546474 -35.4921875 24.83984375 C-34.14472547 21.44117794 -32.61702903 18.16835491 -30.95654297 14.91210938 C-30.31890686 13.63748814 -29.71339033 12.3462888 -29.14111328 11.04101562 C-23.12262091 -2.54093293 -13.21833408 -1.52776533 0 0 Z " fill="#935F37" transform="translate(552,272)"/>
<path d="M0 0 C-0.51052825 4.06599283 -2.43183301 5.55872452 -5.5 8.125 C-23.00220361 23.40192344 -32.78497798 41.78108908 -35 65 C-35.11896238 67.81415831 -35.11772481 70.62124526 -35.09765625 73.4375 C-35.09553383 74.58581299 -35.09553383 74.58581299 -35.09336853 75.75732422 C-35.08782853 78.17159142 -35.07528779 80.58576144 -35.0625 83 C-35.05747723 84.64973823 -35.05291569 86.29947794 -35.04882812 87.94921875 C-35.03787886 91.96618255 -35.02065666 95.98307487 -35 100 C-37.57380273 96.72381208 -38.85891912 93.94781199 -40.0625 89.9375 C-40.38347656 88.89464844 -40.70445312 87.85179687 -41.03515625 86.77734375 C-46.2135268 66.50412788 -46.96063921 43.30907223 -36.75 24.5 C-29.26825322 12.81963582 -18.16458567 4.40817681 -4.8046875 0.375 C-3 0 -3 0 0 0 Z " fill="#BE1521" transform="translate(437,374)"/>
<path d="M0 0 C0.66 0 1.32 0 2 0 C1.19787679 6.64230115 -0.41491956 13.00193076 -2.09570312 19.47070312 C-5.45543339 33.0004277 -6.33484685 46.42492705 -6.26074219 60.30102539 C-6.24996003 62.69638074 -6.26074699 65.09099431 -6.2734375 67.48632812 C-6.2797823 75.57340421 -5.92305668 83.29949325 -4.44091797 91.28125 C-3.80032106 95.2312429 -3.86466289 99.0075552 -4 103 C-11.3367067 96.71139426 -13.56713339 86.97792367 -16 78 C-16.34417969 76.75863281 -16.34417969 76.75863281 -16.6953125 75.4921875 C-21.78338315 53.20500478 -17.37521398 27.83758263 -5.8125 8.25 C-4.9022526 6.81567076 -3.96653966 5.39701531 -3 4 C-2.23236328 2.87851562 -2.23236328 2.87851562 -1.44921875 1.734375 C-0.97097656 1.16203125 -0.49273437 0.5896875 0 0 Z " fill="#BE1521" transform="translate(261,399)"/>
<path d="M0 0 C11.38840151 1.78563787 20.22954465 11.96519464 27.078125 20.62890625 C34.51529152 31.47746872 38.17755341 44.3250777 38.1875 57.375 C38.19974609 58.21289062 38.21199219 59.05078125 38.22460938 59.9140625 C38.23586069 64.68461817 37.84709958 68.51731565 36 73 C34 72 34 72 33.30151367 70.16503906 C33.09244385 69.37323242 32.88337402 68.58142578 32.66796875 67.765625 C32.42957275 66.887854 32.19117676 66.01008301 31.94555664 65.10571289 C31.69539795 64.16332764 31.44523926 63.22094238 31.1875 62.25 C25.08011912 40.15832767 15.72586721 21.44272659 1.21484375 3.70703125 C0 2 0 2 0 0 Z " fill="#88AC26" transform="translate(465,218)"/>
<path d="M0 0 C0.66 0.33 1.32 0.66 2 1 C-1.03321682 12.56413912 -8.26289972 22.07863631 -18 29 C-28.2660627 34.82387348 -38.26245227 36.7873862 -50 36 C-50.66 35.67 -51.32 35.34 -52 35 C-52 34.34 -52 33.68 -52 33 C-50.82824219 32.63648438 -49.65648437 32.27296875 -48.44921875 31.8984375 C-35.41148314 27.76553783 -24.58246728 22.83213524 -14 14 C-13.07574219 13.25943359 -13.07574219 13.25943359 -12.1328125 12.50390625 C-7.57412105 8.76577926 -3.77345125 4.51896594 0 0 Z " fill="#88AD26" transform="translate(602,285)"/>
<path d="M0 0 C0.99 0.495 0.99 0.495 2 1 C2.33 2.65 2.66 4.3 3 6 C-54.75 6 -112.5 6 -172 6 C-172.33 5.34 -172.66 4.68 -173 4 C-116.24 4 -59.48 4 -1 4 C-0.67 2.68 -0.34 1.36 0 0 Z " fill="#E4151C" transform="translate(417,509)"/>
<path d="M0 0 C0 3.84535528 -1.30495827 5.13164707 -3.5 8.25 C-7.23112045 13.95199456 -7.63279602 17.28232338 -6.5 23.9375 C-6.335 24.618125 -6.17 25.29875 -6 26 C-10.58913637 22.39424999 -14.32167983 18.52615993 -18 14 C-16.63152161 10.72781612 -15.33016757 9.24676774 -12.3046875 7.421875 C-11.23154297 6.76445312 -11.23154297 6.76445312 -10.13671875 6.09375 C-9.01716797 5.42859375 -9.01716797 5.42859375 -7.875 4.75 C-7.12089844 4.29109375 -6.36679687 3.8321875 -5.58984375 3.359375 C-3.73201171 2.23056566 -1.86670717 1.11407125 0 0 Z " fill="#925E37" transform="translate(679,218)"/>
<path d="M0 0 C0.98484375 0.01804687 1.9696875 0.03609375 2.984375 0.0546875 C4.10585938 0.08949219 4.10585938 0.08949219 5.25 0.125 C5.91 1.445 6.57 2.765 7.25 4.125 C1.55948637 3.5868629 -4.09865884 2.9849867 -9.75 2.125 C-6.40060119 0.09941119 -3.88037449 -0.09238987 0 0 Z " fill="#9AC42F" transform="translate(281.75,331.875)"/>
<path d="M0 0 C-0.33 0.66 -0.66 1.32 -1 2 C-7.0204673 3.2674668 -11.14205483 2.77830479 -17 1 C-17 0.67 -17 0.34 -17 0 C-11.1314592 -1.14819277 -5.9114744 -0.77313045 0 0 Z " fill="#F9B640" transform="translate(987,200)"/>
<path d="M0 0 C0.66 0.33 1.32 0.66 2 1 C-2.29 3.97 -6.58 6.94 -11 10 C-11.99 9.34 -12.98 8.68 -14 8 C-11.7136988 6.63597957 -9.42178251 5.28365726 -7.125 3.9375 C-6.47402344 3.54755859 -5.82304687 3.15761719 -5.15234375 2.75585938 C-3.46934275 1.77555467 -1.73703801 0.88101568 0 0 Z " fill="#9BC532" transform="translate(398,287)"/>
<path d="M0 0 C3.3 0 6.6 0 10 0 C8.515 1.485 8.515 1.485 7 3 C7 3.33 7 3.66 7 4 C5.35 4 3.7 4 2 4 C1.34 2.68 0.68 1.36 0 0 Z " fill="#8EBE14" transform="translate(287,332)"/>
<path d="M0 0 C-1.44253657 3.36591866 -3.33264727 5.51047079 -6 8 C-6.99 7.67 -7.98 7.34 -9 7 C-7.88121617 5.82737096 -6.75476949 4.66204862 -5.625 3.5 C-4.68527344 2.52546875 -4.68527344 2.52546875 -3.7265625 1.53125 C-2 0 -2 0 0 0 Z " fill="#9CB926" transform="translate(437,384)"/>
<path d="M0 0 C-1.39332574 3.36720387 -2.9789286 4.9859524 -6 7 C-6 4 -6 4 -4.125 1.8125 C-2 0 -2 0 0 0 Z " fill="#E4242C" transform="translate(267,379)"/>
</svg>
