<svg width="92" height="92" viewBox="0 0 92 92" fill="none" xmlns="http://www.w3.org/2000/svg">
<path fill-rule="evenodd" clip-rule="evenodd" d="M83.553 0H3.02301C1.39929 0 0.0830078 1.31629 0.0830078 2.94V83.82C0.0830078 88.2383 3.66473 91.82 8.08301 91.82H83.553C87.9713 91.82 91.553 88.2383 91.553 83.82V8C91.553 3.58172 87.9713 0 83.553 0ZM77.673 5.88C82.0913 5.88 85.673 9.46172 85.673 13.88V77.94C85.673 82.3583 82.0913 85.94 77.673 85.94H13.963C9.54473 85.94 5.96301 82.3583 5.96301 77.94V13.88C5.96301 9.46172 9.54473 5.88 13.963 5.88H77.673ZM75.8146 69.2285L45.8184 17.2734L15.8221 69.2285H75.8146Z" fill="#7c0a02"/>
</svg>