<svg width="93" height="92" viewBox="0 0 93 92" fill="none" xmlns="http://www.w3.org/2000/svg">
<path d="M3.53277 0H85.0628C88.9288 0 92.0628 3.13401 92.0628 7V84.82C92.0628 88.686 88.9288 91.82 85.0628 91.82H7.59277C3.72678 91.82 0.592773 88.686 0.592773 84.82V2.94C0.592773 1.31629 1.90906 0 3.53277 0ZM46.3228 19.96C60.6528 19.96 72.2728 31.58 72.2728 45.91C72.2728 60.24 60.6528 71.85 46.3228 71.85C31.9928 71.85 20.3728 60.23 20.3728 45.91C20.3828 31.58 31.9928 19.96 46.3228 19.96ZM86.1828 12.88C86.1828 9.014 83.0488 5.88 79.1828 5.88H13.4728C9.60678 5.88 6.47277 9.01401 6.47277 12.88V78.94C6.47277 82.806 9.60678 85.94 13.4728 85.94H79.1828C83.0488 85.94 86.1828 82.806 86.1828 78.94V12.88Z" fill="#71BA00"/>
</svg>
